<svg width="340" height="149" viewBox="0 0 340 149" fill="none" xmlns="http://www.w3.org/2000/svg">
<g opacity="0.1">
<path d="M0 148.848H21.8465V89.837C21.8465 89.837 21.8465 71.5011 40.77 69.6521C60.9242 69.6521 59.5395 89.837 59.5395 89.837V148.848H81.6938V89.837C81.6938 89.837 81.6938 71.6552 100.617 69.6521C118.002 69.6521 119.694 86.4472 119.694 86.4472V148.848H141.079V83.6737C141.079 83.6737 139.846 58.25 118.002 52.5489C88.3093 44.7992 75.5398 66.5681 75.5398 66.5681C75.5398 66.5681 67.3858 52.4379 48.7701 50.5458C32.1544 48.8571 20.7696 63.4864 20.7696 63.4864V49.4648H0V148.848Z" fill="#B4B4B4"/>
<path d="M302.922 117.874V148.69H323.23V117.874H340V99.5377H323.23V0L233.229 117.874H302.922Z" fill="#B4B4B4"/>
<path d="M302.767 57.0078L270.92 99.5347H302.767V57.0078Z" fill="white"/>
<path d="M245.384 128.66V148.845L155.074 148.999L210.46 81.5103C210.46 81.5103 227.845 61.4795 223.537 43.4517C220.305 29.9268 205.998 26.5026 205.998 26.5026C205.998 26.5026 194.306 23.1128 184.306 32.2037C176.509 39.2915 176.767 49.7691 176.767 49.7691H155.536C155.536 49.7691 154.305 33.7445 166.613 20.3393C178.921 6.93404 196.46 5.54731 196.46 5.54731C196.46 5.54731 231.845 2.46564 243.537 35.9017C254.307 60.2468 227.845 90.9093 227.845 90.9093L196.46 128.66H245.384Z" fill="#B4B4B4"/>
</g>
</svg>
