<svg width="1766" height="962" viewBox="0 0 1766 962" fill="none" xmlns="http://www.w3.org/2000/svg">
<path opacity="0.2" d="M1514.94 958.03C1520.13 954.231 1520.15 953.396 1515.28 938.76C1512.49 930.346 1507.83 920.526 1504.92 916.939C1500.32 911.259 1500.15 909.425 1503.61 902.757C1505.8 898.545 1508.94 894.931 1510.6 894.726C1512.26 894.522 1516.14 894.187 1519.22 893.983C1525.99 893.534 1529.33 882.901 1525.15 875.1C1523.01 871.089 1523.18 868.173 1525.75 865.073C1529.44 860.635 1529.33 860.205 1519.51 839.448C1516.6 833.282 1516.51 830.387 1519.15 827.205C1521.83 823.982 1521.59 822.193 1518.11 819.306C1515.64 817.254 1513.62 812.393 1513.62 808.505C1513.62 804.617 1512.6 801.436 1511.36 801.436C1508.76 801.436 1500.21 813.908 1500.95 816.619C1501.22 817.611 1498.12 820.199 1494.06 822.368C1490.01 824.538 1485.91 829.413 1484.96 833.202C1484.01 836.99 1482.14 840.09 1480.79 840.09C1479.45 840.09 1476.43 842.017 1474.07 844.373C1467.83 850.619 1458.53 846.923 1452.55 835.817C1448.83 828.916 1445.09 826.024 1439.58 825.785C1435.32 825.601 1426.76 824.956 1420.55 824.351C1414.34 823.746 1408.63 824.282 1407.85 825.541C1405.77 828.912 1395 826.185 1386.44 820.119C1375.85 812.609 1373.14 811.06 1366.42 808.674C1360.77 806.67 1360.82 806.471 1367.43 804.721L1374.38 802.879L1366.68 794.571C1362.45 790.001 1358.98 784.993 1358.98 783.442C1358.98 781.891 1357.58 780.622 1355.88 780.622C1354.17 780.622 1349.15 777.211 1344.73 773.042C1337.19 765.949 1335.25 765.562 1314.37 767.01C1282.39 769.228 1278.69 769.867 1278.65 773.188C1278.63 774.823 1273.95 779.184 1268.24 782.879C1256.45 790.516 1255.25 795.391 1263.82 800.745C1270.47 804.898 1271.91 818.921 1266.26 824.568C1264.32 826.503 1262.62 837.099 1262.46 848.206C1262.2 865.934 1261.18 869.391 1253.87 877.163L1245.58 885.988L1232.44 881.264C1221.66 877.388 1218.37 877.221 1214.11 880.335C1209.87 883.435 1207.43 883.366 1200.84 879.957C1193.58 876.205 1191.7 876.414 1182.18 882.029C1176.36 885.465 1170.82 891.355 1169.88 895.12C1168.66 899.948 1165.29 902.503 1158.41 903.793C1153.05 904.798 1146.29 908.24 1143.39 911.44C1140.5 914.64 1136.75 916.409 1135.07 915.371C1133.39 914.333 1124.32 913.762 1114.91 914.101C1100.68 914.615 1096.78 913.627 1091.76 908.237C1087.82 904.018 1083.57 902.316 1079.57 903.361C1075.43 904.443 1072.43 903.111 1070.38 899.29C1066.58 892.185 1045.54 891.49 1032.95 898.053C1028.27 900.496 1021.96 902.503 1018.94 902.513C1012.7 902.534 996.182 886.181 996.182 879.993C996.182 875.572 981.472 866.851 974.016 866.851C966.652 866.851 947.386 855.445 945.132 849.75C943.458 845.523 943.033 845.861 942.864 851.554C942.749 855.407 939.309 862.534 935.22 867.393C927.486 876.583 925.461 890.098 930.989 895.625C933.278 897.914 931.99 901.031 926.478 906.542C920.218 912.802 916.95 913.913 909.149 912.436C903.861 911.434 897.921 909.35 895.948 907.804C893.975 906.258 891.143 905.746 889.655 906.666C886.586 908.562 879.093 900.763 876.217 892.678C874.79 888.666 871.819 887.524 864.614 888.218C859.287 888.731 853.59 887.545 851.955 885.583C849.676 882.848 845.161 883.467 832.626 888.234C823.63 891.654 812.464 894.307 807.811 894.13C801.749 893.898 799.8 894.973 800.933 897.923C802.699 902.527 798.043 904.893 782.328 907.379C776.462 908.307 770.741 909.632 769.613 910.323C768.485 911.015 764.471 908.294 760.692 904.277C756.558 899.884 749.712 896.6 743.507 896.036C734.739 895.239 732.779 893.649 730.438 885.435C728.923 880.12 725.87 875.771 723.653 875.771C721.153 875.771 719.623 872.367 719.623 866.803C719.623 859.476 717.712 856.923 709.185 852.857C701.745 849.31 697.829 848.798 695.552 851.075C690.515 856.111 681.136 852.022 676.308 842.685C671.648 833.676 663.121 831.036 663.121 838.603C663.121 841.056 661.114 843.063 658.661 843.063C655.166 843.063 654.2 838.994 654.2 824.276C654.2 813.943 652.102 798.423 649.537 789.788C646.972 781.153 645.494 773.469 646.251 772.711C647.009 771.954 644.423 767.876 640.506 763.65C631.687 754.136 631.627 752.144 640.075 749.435C645.891 747.57 645.231 746.99 635.029 745.001C626.573 743.353 622.161 743.844 619.247 746.757C615.182 750.821 603.872 750.665 593.732 746.404C589.473 744.615 589.145 743.578 592.231 741.671C595.334 739.753 594.908 738.265 590.25 734.746C586.987 732.28 582.686 730.22 580.693 730.168C578.7 730.116 577.839 728.066 578.781 725.613C580.032 722.352 578.409 721.153 572.74 721.153C565.333 721.153 562.376 715.835 567.137 711.075C568.319 709.892 569.582 704.317 569.942 698.685C570.478 690.303 569.549 688.446 564.818 688.446C561.64 688.446 556.436 685.842 553.254 682.66C548.624 678.031 545.673 677.389 538.492 679.448C528.695 682.258 502.05 677.518 471.314 667.5C461.5 664.301 451.569 661.684 449.245 661.684C446.92 661.685 442.655 659.547 439.767 656.933C436.88 654.32 433.254 652.962 431.711 653.916C427.135 656.744 425.473 671.736 429.201 676.552C432.181 680.4 431.964 680.471 427.615 677.067C419.693 670.867 408.721 673.724 409.573 681.765C410.374 689.315 402.348 691.038 395.773 684.729C392.609 681.692 392.2 683.189 393.537 692.906C397.116 718.915 397.084 719.458 391.911 720.507C389.129 721.071 383.957 718.204 380.419 714.134C376.88 710.064 372.345 707.364 370.341 708.132C365.606 709.949 360.636 703.756 359.339 694.423C358.708 689.879 356.026 686.584 352.395 685.891C349.141 685.27 344.653 682.156 342.421 678.97C340.143 675.718 336.441 673.917 333.976 674.863C331.563 675.789 326.349 675.734 322.39 674.74C316.894 673.361 315.192 670.942 315.192 664.511C315.192 654.214 310.692 650.771 306.56 657.906C304.238 661.914 303.746 659.772 304.497 648.942C305.298 637.385 304.423 634.145 299.835 631.689C296.728 630.027 294.387 627.064 294.633 625.105C295.731 616.357 294.019 613.786 287.684 614.667C282.686 615.361 280.757 613.933 280.058 609.021C279.226 603.172 277.828 602.626 267.42 604.082C260.549 605.043 255.716 604.498 255.716 602.763C255.716 601.137 250.029 600.094 243.078 600.444C232.749 600.965 230.272 602.226 229.522 607.344C229.018 610.789 226.625 614.367 224.205 615.295C219.347 617.16 215.555 610.42 217.951 604.177C220.838 596.654 215.772 593.636 203.107 595.334C193.484 596.625 190.385 598.474 189.071 603.708C187.339 610.607 175.425 616.272 175.425 610.197C175.425 608.351 173.301 609.871 170.706 613.576C167.109 618.712 166.794 621.285 169.384 624.405C172.015 627.575 171.57 629.178 167.412 631.518C162.367 634.355 162.462 634.93 168.988 641.031C173.729 645.462 175.394 649.536 174.233 653.861C173.298 657.346 172.514 661.871 172.492 663.915C172.469 665.959 170.444 667.632 167.99 667.632C162.616 667.632 162.023 678.243 167.217 681.453C175.503 686.574 155.686 687.229 143.796 682.228C133.033 677.7 130.501 677.571 123.517 681.194C119.127 683.471 114.625 685.207 113.512 685.051C104.007 683.721 101.026 685.993 101.644 694.096C102.005 698.839 100.602 704.767 98.5251 707.269C95.3932 711.043 95.7296 712.343 100.498 714.894C103.66 716.586 107.092 717.126 108.124 716.093C109.157 715.06 110.002 715.776 110.002 717.684C110.002 719.737 105.244 721.153 98.3435 721.153C85.7071 721.153 86.4726 719.902 81.5223 748.657C80.0716 757.084 78.1831 759.808 73.7907 759.808C61.4048 759.808 56.4746 754.325 56.4746 740.551C56.4746 733.346 55.0494 726.57 53.3076 725.494C51.5658 724.418 50.3694 719.99 50.649 715.655C51.9763 695.071 50.5306 689.956 42.0171 685.114C35.0312 681.141 33.2598 677.767 31.9203 665.884C31.0268 657.958 28.7977 650.974 26.9669 650.363C22.4976 648.874 14.8419 633.693 14.8419 626.32C14.8419 623.061 12.3095 618.621 9.21427 616.453C4.40278 613.083 3.32648 607.217 1.79328 576.004L0 539.497L7.18086 547.245C13.5105 554.074 15.0952 554.534 20.5493 551.128C25.5209 548.024 27.9059 547.994 32.6845 550.978C38.0242 554.313 38.632 553.948 38.632 547.409C38.632 543.403 39.9702 539.299 41.6058 538.288C43.2413 537.277 44.59 537.533 44.6027 538.856C44.6259 541.264 58.5318 548.695 63.0149 548.695C67.5057 548.695 65.397 540.071 60.1918 537.149C55.5929 534.568 55.5332 534.018 59.6789 532.42C65.5285 530.165 80.2646 535.521 80.2646 539.902C80.2646 544.242 92.9156 540.247 96.0246 534.925C97.3326 532.686 100.344 530.854 102.716 530.854C105.088 530.854 107.028 529.672 107.028 528.228C107.028 526.783 109.705 524.901 112.976 524.046C120.32 522.126 121.081 506.814 114.464 494.127C112.031 489.464 110.813 482.57 111.758 478.808C113.198 473.072 112.053 471.656 104.662 470.033C97.065 468.364 95.9461 466.872 96.5487 459.213C96.9332 454.326 100.117 447.655 103.625 444.387C111.239 437.295 111.371 436.009 105.368 427.439C100.991 421.191 101.151 420.664 108.258 417.962C112.719 416.267 116.605 411.828 117.801 407.063C119.497 400.306 118.045 397.4 108.687 388.825L97.5555 378.625L105.822 369.997C115.601 359.791 117.711 359.386 119.785 367.316C120.926 371.677 123.841 373.263 130.716 373.263C136.81 373.263 139.379 372.112 138.057 369.973C135.205 365.359 142.583 343.362 149.652 335.403C152.896 331.752 158.014 327.982 161.026 327.026C166.732 325.215 168.743 312.556 163.809 309.507C162.327 308.592 161.775 305.318 162.581 302.234C163.388 299.149 162.593 295.727 160.815 294.628C155.987 291.644 156.914 284.061 162.107 284.061C164.595 284.061 168.155 280.716 170.018 276.627C171.881 272.539 175.198 269.194 177.389 269.194C179.58 269.194 181.372 267.903 181.372 266.325C181.372 264.747 184.252 261.915 187.771 260.032C193.221 257.116 193.896 257.321 192.325 261.414C189.865 267.823 194.908 267.554 199.79 261.017C201.927 258.155 210.095 252.789 217.941 249.094C233.445 241.791 240.809 243.142 246.832 254.395C252.166 264.361 255.927 261.153 253.885 248.38C252.563 240.116 253.06 236.486 255.512 236.486C257.453 236.486 258.125 235.005 257.006 233.194C255.679 231.046 256.91 230.512 260.548 231.657C272.371 235.378 298.723 239.46 310.924 239.46C323.681 239.46 334.81 232.844 331.383 227.3C328.211 222.168 333.273 213.082 339.866 212.073C343.468 211.522 346.081 209.43 345.673 207.425C345.264 205.419 347.605 203.779 350.877 203.779C354.55 203.779 356.833 201.789 356.847 198.575C356.87 193.562 368.834 185.938 376.678 185.938C378.767 185.938 382.831 182.258 385.709 177.761C392.923 166.486 398.663 162.364 407.378 162.2C417.793 162.003 421.196 159.092 423.517 148.391C425.216 140.552 427.215 138.818 436.231 137.355C444.093 136.079 449.066 137.141 454.996 141.364C459.433 144.523 463.726 146.446 464.535 145.637C465.344 144.828 467.783 146.308 469.955 148.925C472.541 152.04 472.854 154.376 470.862 155.687C466.866 158.317 463.687 171.071 467.027 171.071C468.452 171.071 471.223 174.071 473.186 177.738C477.572 185.933 476.796 248.026 472.239 253.517C470.524 255.583 464.117 258.772 458 260.604C448.84 263.348 445.601 263.099 439.631 259.187C428.759 252.064 419.112 221.953 419.209 195.438C419.239 186.951 414.165 189.566 409.674 200.351C405.414 210.582 405.216 211.373 404.776 219.932C404.533 224.663 402.09 227.867 397.713 229.194C386.201 232.685 377.64 242.736 377.64 252.764C377.64 257.875 376.035 263.663 374.072 265.626C371.723 267.974 371.605 269.194 373.725 269.194C375.497 269.194 377.647 271.87 378.502 275.141C380.239 281.78 387.892 283.084 391.59 277.371C392.914 275.326 393.996 270.338 393.996 266.285C393.996 261.686 395.921 258.536 399.117 257.906C403.206 257.099 404.162 258.921 403.86 266.946C403.101 287.148 417.087 297.166 422.874 280.565C425.988 271.635 426.108 271.593 442.599 273.653C452.628 274.906 460.624 277.668 462.814 280.637C464.842 283.385 465.211 285.987 463.653 286.545C458.985 288.217 463.843 292.981 470.215 292.981C477.374 292.981 483.645 287.274 485.149 279.39C485.761 276.179 489.15 273.239 492.845 272.711C496.475 272.193 502.015 268.504 505.154 264.513C508.764 259.925 512.612 257.929 515.621 259.084C521.197 261.223 521.419 263.103 517.358 273.783C515.069 279.802 513.406 280.963 510.512 278.562C503.809 272.999 494.331 277.847 492.905 287.567C491.198 299.196 497.807 306.061 508.212 303.466C526.794 298.831 550.924 300.927 558.322 307.818C562.027 311.27 565.432 312.508 566.493 310.791C567.493 309.173 571.117 307.848 574.545 307.848C580.57 307.848 580.6 308.045 575.446 313.739C570.978 318.675 570.747 320.393 574.021 324.337C576.404 327.208 580.461 328.409 584.422 327.415C588.529 326.384 592.69 327.744 595.74 331.114C598.742 334.432 604.048 336.203 609.792 335.805C618.092 335.231 618.844 335.865 617.275 342.119C615.795 348.015 616.566 348.961 622.352 348.344C632.177 347.297 636.357 344.004 636.357 337.314C636.357 326.655 644.614 327.608 655.59 339.534C665.998 350.842 671.026 360.404 668.101 363.328C667.27 364.159 669.197 367.445 672.383 370.631C675.569 373.816 678.971 380.395 679.942 385.25C680.913 390.105 683.383 394.077 685.432 394.077C691.555 394.077 696.465 385.888 694.346 379.21C693.252 375.765 693.97 371.047 695.951 368.66C698.48 365.614 698.552 364.343 696.197 364.343C690.947 364.343 692.287 355.601 698.806 347.314C702.078 343.156 704.754 336.589 704.754 332.721C704.754 327.732 706.438 325.689 710.551 325.689C713.739 325.689 722.723 319.667 730.514 312.308C738.306 304.949 744.977 298.928 745.34 298.928C745.703 298.928 749.432 300.233 753.627 301.828C763.929 305.744 763.546 315.757 752.596 328.774C746.313 336.244 744.348 341.179 745.436 346.759C746.365 351.526 745.135 356.249 742.2 359.184C739.596 361.788 737.465 365.101 737.465 366.546C737.465 367.991 734.761 374.769 731.457 381.608C727.664 389.457 726.135 396.78 727.311 401.466C728.658 406.829 727.802 409.416 724.228 410.787C721.507 411.831 720.001 414.562 720.882 416.857C721.869 419.428 719.653 422.104 715.105 423.833C711.048 425.376 707.728 427.911 707.728 429.467C707.728 431.023 703.4 434.455 698.11 437.093C689.162 441.557 688.231 441.533 684.728 436.743C682.658 433.912 680.964 432.684 680.964 434.014C680.964 435.345 678.956 434.768 676.503 432.732C673.802 430.49 672.042 430.251 672.042 432.124C672.042 439.7 676.467 445.151 685.767 449.037C694.811 452.815 697.113 452.645 709.191 447.303C726.668 439.573 738.803 428.107 739.552 418.616C740.341 408.617 743.548 405.785 751.674 407.91C759.277 409.898 763.75 422.506 758.658 427.597C754.51 431.745 754.225 444.625 758.282 444.625C759.917 444.625 764.064 447.433 767.496 450.866L773.737 457.106L771.524 450.134C770.307 446.299 767.182 441.605 764.579 439.702C760.277 436.556 760.316 435.724 765.012 430.536C767.852 427.398 770.177 421.935 770.177 418.396C770.177 410.611 759.011 397.068 752.541 397.005C749.974 396.98 746.149 395.866 744.041 394.528C739.247 391.487 743.806 377.927 752.879 368.243C757.255 363.571 758.641 358.88 757.793 351.612C756.616 341.531 760.603 334.609 767.587 334.609C769.571 334.609 773.977 332.267 777.377 329.405C783.399 324.336 783.439 324.356 778.938 330.149C776.396 333.42 773.955 340.428 773.513 345.723C772.858 353.577 774.119 355.992 780.364 358.837C784.575 360.755 788.019 363.447 788.019 364.82C788.019 366.193 789.984 367.316 792.386 367.316C797.992 367.316 794.92 358.383 787.472 353.024C780.938 348.323 780.353 340.556 786.532 340.556C788.986 340.556 790.993 341.894 790.993 343.529C790.993 345.165 793.156 346.503 795.8 346.503C799.085 346.503 800.133 344.685 799.107 340.766C798.01 336.57 799.06 335.138 803.015 335.436C805.99 335.66 807.768 336.904 806.967 338.2C806.166 339.495 807.571 340.556 810.09 340.556C812.609 340.556 815.512 343.912 816.542 348.015C817.677 352.536 821.214 356.177 825.52 357.258C834.179 359.431 834.714 363.103 826.678 365.205C822.616 366.267 820.73 369.26 820.73 374.647C820.73 379.625 821.937 381.789 824.001 380.514C825.942 379.314 825.685 381.358 823.369 385.542C821.223 389.419 819.892 393.929 820.411 395.564C821.54 399.117 823.16 406.58 823.477 409.688C823.811 412.961 832.626 412.414 832.626 409.12C832.626 407.581 831.338 405.527 829.765 404.554C827.934 403.423 827.934 400.08 829.765 395.265C831.338 391.128 832.626 383.728 832.626 378.821C832.626 373.914 834.088 367.167 835.875 363.828C838.225 359.438 838.225 356.859 835.875 354.509C834.088 352.722 832.626 349.334 832.626 346.979C832.626 344.624 830.634 341.212 828.199 339.397C825.022 337.027 824.281 333.019 825.575 325.19L827.377 314.285L847.842 314.783C862.271 315.135 868.308 316.409 868.309 319.103C868.31 321.914 869.78 322.138 873.87 319.949C878.08 317.696 879.267 314.1 878.761 305.131C878.312 297.164 879.474 292.757 882.311 291.668C884.632 290.778 885.788 288.849 884.881 287.382C882.524 283.568 901.688 275.141 912.716 275.141C918.247 275.141 922.719 273.331 923.737 270.68C925.639 265.723 933.733 264.519 933.733 269.194C933.733 270.829 936.143 272.167 939.088 272.167C945.733 272.167 960.442 265.521 960.474 262.504C960.487 261.277 963.611 260.273 967.416 260.273C973.344 260.273 974.156 259.05 973.082 251.735C971.491 240.891 985.824 225.646 992.446 231.14C995.719 233.856 995.748 234.937 992.606 236.967C989.517 238.963 989.637 240.043 993.208 242.387C995.662 243.998 999.342 245.336 1001.39 245.361C1003.43 245.386 1005.1 248.082 1005.1 251.353C1005.1 258.305 1010.46 259.321 1012.95 252.84C1015.6 245.934 1028.74 247.56 1040.07 256.195C1047.94 262.198 1049.38 264.624 1046.29 266.658C1043.03 268.812 1043.25 270.052 1047.48 273.295C1054.95 279.023 1054.01 283.06 1042.3 295.41C1036.59 301.433 1031.91 307.749 1031.89 309.444C1031.88 311.14 1025.85 318.902 1018.49 326.692C1011.13 334.483 1005.15 342.462 1005.2 344.423C1005.25 346.423 1007.03 345.704 1009.24 342.786C1011.42 339.924 1015.97 337.582 1019.36 337.582C1022.98 337.582 1026.33 335.043 1027.47 331.42C1028.63 327.788 1031.12 325.905 1033.54 326.834C1035.8 327.7 1039.59 326.459 1041.98 324.076C1047.61 318.444 1057.52 318.515 1059.71 324.202C1060.65 326.655 1062.88 328.662 1064.66 328.662C1066.44 328.662 1067.17 327.47 1066.27 326.014C1063.86 322.127 1078 313.795 1086.99 313.795C1091.25 313.795 1096.75 315.802 1099.2 318.255C1104.95 324.001 1118.98 323.955 1130.2 318.153C1137.72 314.263 1138.56 312.721 1135.86 307.685C1131.49 299.517 1134.66 295.846 1144.41 297.795C1149.88 298.889 1153.94 297.871 1156.52 294.76C1160.03 290.539 1161.27 290.693 1169.18 296.327C1174.25 299.936 1177.29 304.317 1176.38 306.698C1175.47 309.06 1176.66 310.822 1179.16 310.822C1184.16 310.822 1185 315.506 1180.51 318.285C1176.16 320.972 1180.36 326.399 1185.32 324.498C1188.02 323.459 1189.48 324.973 1189.48 328.829C1189.48 332.501 1192.59 336.031 1197.65 338.106C1209.24 342.853 1217.95 342.517 1216.66 337.372C1216.07 335.035 1215.13 328.744 1214.58 323.394C1213.72 315.224 1214.32 314.09 1218.3 316.315C1225.13 320.137 1234.08 316.965 1234.08 310.723C1234.08 303.888 1239.66 301.971 1248.29 305.84C1256.84 309.676 1265.2 303.526 1257.85 298.804C1254.16 296.435 1254.51 295.654 1259.9 294.173C1265.71 292.579 1266.03 291.558 1262.94 284.509C1261.04 280.174 1258.25 275.759 1256.76 274.697C1255.26 273.636 1255.11 270.291 1256.42 267.264C1257.74 264.237 1258.68 260.974 1258.51 260.012C1258.33 259.051 1263.81 255.401 1270.67 251.902C1281.06 246.607 1283.31 246.276 1284.11 249.933C1285.28 255.273 1290.47 255.792 1290.88 250.61C1291.04 248.566 1292.11 250.238 1293.25 254.327C1296.45 265.852 1300.89 263.112 1301.91 248.982C1302.67 238.506 1304.18 235.693 1310.29 233.371C1321.22 229.214 1323.91 229.867 1321.9 236.194C1320.24 241.42 1321.05 241.636 1332.61 239.041C1339.48 237.496 1347.1 236.996 1349.53 237.93C1354.41 239.802 1367.9 228.701 1367.9 222.816C1367.9 220.773 1371.37 214.985 1375.6 209.954C1382 202.347 1385.46 200.805 1396.1 200.805C1404.73 200.805 1409.46 202.257 1410.61 205.265C1414.3 214.867 1437.4 207.521 1436.12 197.155C1435.12 189.025 1440.43 179.405 1447.38 176.761C1451.4 175.235 1456.22 169.914 1458.1 164.935C1460.53 158.498 1463.03 156.278 1466.75 157.251C1469.62 158.003 1472.8 157.29 1473.8 155.666C1474.81 154.041 1478.1 153.36 1481.13 154.151C1484.16 154.942 1488.18 153.721 1490.08 151.437C1495 145.508 1488.34 138.363 1477.88 138.363C1466.17 138.363 1464.93 131.253 1474.82 120.675C1479.48 115.685 1482.68 111.603 1481.93 111.603C1481.18 111.603 1482.99 107.309 1485.94 102.062C1494.09 87.5894 1505.6 78.4381 1532.95 64.6738C1537.85 62.2044 1544.12 58.2417 1546.88 55.8678C1549.64 53.4939 1553.18 52.3441 1554.75 53.3126C1556.32 54.2811 1558.42 52.9353 1559.42 50.3219C1560.53 47.4349 1563.12 46.2881 1566.01 47.3993C1569.55 48.7549 1570.29 47.9566 1568.89 44.3153C1567.23 39.9794 1569.11 39.5931 1584.92 41.0262C1599.09 42.311 1602.83 41.7778 1602.83 38.4719C1602.83 35.9975 1599.8 34.2937 1595.39 34.2937C1586.76 34.2937 1586.19 32.6622 1592.59 26.2644C1595.14 23.7173 1596.55 19.8672 1595.72 17.7088C1594.85 15.4523 1596.99 12.9218 1600.75 11.7552C1604.35 10.6392 1610.97 7.13453 1615.47 3.96698C1624.07 -2.08905 1623.75 -2.33707 1624.83 11.2497C1625 13.294 1626.47 15.9701 1628.11 17.1966C1629.97 18.5978 1629.45 20.4716 1626.71 22.2384C1624.3 23.7848 1623.04 25.7616 1623.91 26.6313C1625.49 28.2111 1636.54 30.6821 1643.89 31.0993C1646.09 31.2239 1646.85 32.8383 1645.64 34.799C1644.19 37.1381 1645.11 37.6557 1648.43 36.379C1651.67 35.1393 1653.38 35.9958 1653.38 38.8472C1653.38 41.2489 1652.04 43.214 1650.41 43.214C1648.77 43.214 1647.71 44.2175 1648.05 45.444C1648.39 46.6706 1644.69 51.8237 1639.84 56.8954C1632.7 64.3489 1630.03 65.5016 1625.92 62.9079C1621.92 60.3866 1619.88 60.9591 1616.39 65.5803C1613.94 68.8149 1611.9 74.472 1611.84 78.1516C1611.77 83.2366 1610.01 84.8418 1604.49 84.8418C1600.5 84.8418 1596.41 83.5038 1595.39 81.8684C1592.66 77.4426 1588.84 78.2658 1586.74 83.7329C1584.44 89.7226 1593.43 97.0849 1600.46 94.972C1604.11 93.8743 1607.24 96.8201 1611.69 105.542C1618.44 118.777 1616.75 126.558 1605.85 132.394C1602.18 134.354 1600.75 137.244 1601.93 140.313C1603.64 144.763 1604.07 144.759 1607.35 140.267C1609.31 137.585 1613.78 135.39 1617.28 135.39C1620.78 135.39 1623.65 133.962 1623.65 132.216C1623.65 128.516 1636.04 131.68 1638.89 136.108C1640.05 137.926 1641.48 137.812 1642.72 135.802C1645.25 131.714 1666.09 132.309 1668.86 136.548C1671.32 140.317 1660.09 153.23 1654.35 153.23C1649.45 153.23 1649.14 158.26 1653.95 159.861C1656.15 160.596 1657.79 169.237 1658.29 182.732C1658.72 194.661 1660.51 208.764 1662.27 214.072C1664.02 219.379 1665.97 226.427 1666.61 229.733C1667.25 233.039 1669.11 240.595 1670.74 246.522C1673.56 256.737 1673.35 257.3 1666.6 257.3C1657.74 257.3 1650.57 270.01 1649.91 286.88C1649.5 297.143 1648.8 298.325 1644.98 295.172C1641.11 291.975 1640.75 293.146 1642.21 304.131C1643.44 313.331 1642.85 316.768 1640.06 316.768C1633.67 316.768 1632.31 329.381 1637.87 337.081C1640.68 340.967 1646.32 350.351 1650.41 357.935C1657.82 371.671 1668.25 378.156 1668.25 369.021C1668.25 366.448 1670.41 364.343 1673.06 364.343C1676.34 364.343 1677.39 366.161 1676.37 370.053C1675.26 374.306 1676.88 376.327 1682.72 377.974C1687.03 379.191 1691.7 379.92 1693.09 379.595C1694.49 379.271 1698.17 379.81 1701.27 380.795C1707.95 382.913 1708.88 391.104 1702.45 391.104C1700 391.104 1697.99 393.599 1697.99 396.65C1697.99 404.634 1709.31 417.865 1716.14 417.865C1723.12 417.865 1726.9 425.826 1722.17 430.553C1720.32 432.405 1718.81 438.818 1718.81 444.804C1718.81 452.818 1720.69 457.098 1725.94 461.042C1732.72 466.135 1732.87 466.961 1729.04 477.813C1725.84 486.897 1725.79 489.227 1728.79 489.227C1733.73 489.227 1745.57 516.521 1745.57 527.909C1745.57 539.601 1737.9 539.727 1727.04 528.213C1722.58 523.49 1713.23 516.658 1706.28 513.031C1681.48 500.109 1635.54 457.696 1635.54 447.729C1635.54 439.803 1629.33 426.785 1625.55 426.785C1623.67 426.785 1623.86 425.38 1626.02 423.217C1631.3 417.94 1630.62 386.741 1625.13 382.184C1622.68 380.148 1620.67 376.049 1620.67 373.075C1620.67 370.101 1619.27 366.8 1617.55 365.741C1615.38 364.398 1615.38 362.67 1617.57 360.04C1619.8 357.348 1619.23 352.289 1615.56 342.39C1611.28 330.841 1611.05 327.489 1614.23 322.408C1618.55 315.478 1616.75 311.992 1601.84 298.521C1596.47 293.667 1593.16 287.721 1593.16 282.91C1593.16 273.943 1588.87 272.841 1583.18 280.344C1577.67 287.606 1578.1 292.22 1584.99 299.613C1588.35 303.227 1590.93 310.106 1590.93 315.471C1590.93 320.682 1591.75 329.03 1592.75 334.022C1594.21 341.332 1593.62 342.961 1589.7 342.386C1587.03 341.994 1582.79 338.745 1580.28 335.167C1575.02 327.65 1570.12 326.664 1570.12 333.122C1570.12 335.575 1567.98 337.582 1565.38 337.582C1562.77 337.582 1559.94 340.258 1559.08 343.529C1558.23 346.8 1556.45 349.476 1555.14 349.476C1550.92 349.476 1548.57 367.311 1552.21 371.693C1554.09 373.966 1556.4 383.612 1557.34 393.129C1558.28 402.645 1560.96 414.231 1563.31 418.875C1567.41 426.988 1567.8 427.115 1573.31 422.131C1576.66 419.092 1579.04 418.373 1579.04 420.397C1579.04 422.296 1575.69 426.759 1571.6 430.314C1567.52 433.869 1564.17 438.633 1564.17 440.902C1564.17 443.613 1562.22 444.406 1558.47 443.218C1555.34 442.224 1551.99 442.677 1551.04 444.225C1550.08 445.774 1546.62 446.341 1543.35 445.486C1539.22 444.405 1537.41 445.396 1537.41 448.739C1537.41 451.383 1536.4 453.387 1535.18 453.194C1526.33 451.798 1522.22 454.401 1520.62 462.399C1518.8 471.507 1514.72 476.174 1503.63 481.851C1500.13 483.646 1497.45 487.425 1497.69 490.248C1497.99 493.799 1497.07 494.507 1494.7 492.546C1492.38 490.619 1487.75 492.95 1480.25 499.818C1463.57 515.105 1459.12 523.295 1461.28 534.771C1462.3 540.21 1462.12 545.668 1460.89 546.9C1459.66 548.132 1458.41 555.801 1458.12 563.942C1457.82 572.083 1456.15 580.467 1454.4 582.574C1452.65 584.68 1451.35 595.134 1451.51 605.803C1451.67 616.472 1450.32 627.97 1448.51 631.354C1446.7 634.738 1445.22 640.861 1445.22 644.96C1445.22 649.06 1443.88 653.241 1442.25 654.251C1440.61 655.262 1439.27 658.686 1439.27 661.86C1439.27 666.265 1441.34 667.632 1448.02 667.632C1452.83 667.632 1457.58 666.304 1458.59 664.68C1459.6 663.05 1463.63 665.379 1467.59 669.884C1473.35 676.421 1474.79 677.007 1474.86 672.835C1474.98 666.513 1480.9 665.784 1480.9 672.092C1480.9 674.545 1482.91 676.552 1485.37 676.552C1487.82 676.552 1489.83 674.545 1489.83 672.092C1489.83 669.639 1491.83 667.632 1494.29 667.632C1499.37 667.632 1500.34 660.045 1495.63 657.135C1489.85 653.565 1499.28 646.187 1507.5 647.847C1525.52 651.487 1534.72 654.397 1534.63 656.432C1534.58 657.631 1539.31 663.389 1545.15 669.227C1551.83 675.905 1555.11 681.553 1553.99 684.455C1551.64 690.574 1557.83 710.689 1564.14 717.464C1566.91 720.431 1572.75 729.984 1577.12 738.693C1585.05 754.479 1585.07 754.696 1583.74 808.46C1582.33 865.436 1581.53 875.278 1577.81 881.293C1576.54 883.348 1576.29 888.153 1577.25 891.971C1579.5 900.939 1568.9 924.998 1558.64 934.223C1552.1 940.102 1548.69 940.996 1538.21 939.574L1525.64 937.867L1523.71 949.934C1522.17 959.518 1520.51 962 1515.64 962C1509.79 962 1509.76 961.813 1514.94 958.03ZM1658.11 810.124C1653.62 805.091 1650.68 799.07 1651.57 796.744C1652.47 794.418 1652 792.515 1650.53 792.515C1647.5 792.515 1638.51 775.684 1638.51 770C1638.51 767.932 1633.99 763.442 1628.46 760.024C1622.92 756.605 1616.65 749.471 1614.51 744.171C1612.37 738.87 1606.07 728.512 1600.52 721.153C1594.96 713.794 1588.59 703.424 1586.37 698.109C1583.67 691.664 1580.28 688.446 1576.22 688.446C1570.12 688.446 1558.22 678.86 1558.22 673.943C1558.22 672.507 1556.22 669.668 1553.76 667.632C1551.31 665.596 1549.3 661.858 1549.3 659.325C1549.3 656.792 1547.01 652.191 1544.22 649.1C1540.26 644.731 1539.97 642.963 1542.9 641.151C1548.2 637.874 1543.91 622.62 1537.19 620.863C1534.11 620.056 1532.54 617.718 1533.47 615.304C1535.95 608.841 1540.23 610.365 1543.46 618.858C1545.08 623.105 1549.06 627.275 1552.31 628.125C1555.56 628.975 1558.22 631.564 1558.22 633.878C1558.22 636.191 1560.56 638.919 1563.43 639.939C1572.54 643.187 1576.33 647.373 1573.39 650.929C1569.85 655.194 1577.73 664.898 1588.7 669.799C1593.2 671.808 1596.88 674.818 1596.88 676.488C1596.88 678.159 1598.35 679.525 1600.14 679.525C1601.93 679.525 1611.64 686.748 1621.7 695.576C1631.77 704.404 1644.68 713.661 1650.41 716.148L1660.82 720.668L1646.6 720.911C1629.29 721.206 1627.48 724.536 1634.06 743.92C1640.67 763.401 1649.84 777.628 1655.86 777.743C1658.58 777.795 1663.42 779.808 1666.61 782.217C1669.79 784.625 1674.59 785.902 1677.26 785.053C1683.71 783.007 1691.35 798.189 1685.64 801.713C1683.59 802.98 1680.71 803.269 1679.23 802.354C1677.75 801.44 1678.35 799.542 1680.57 798.136C1683.54 796.255 1683.63 795.568 1680.89 795.534C1674.47 795.456 1665.71 806.261 1668.56 810.748C1675.91 822.352 1668.61 821.916 1658.11 810.124ZM1644.7 800.197C1644.57 797.062 1645.27 795.306 1646.26 796.294C1647.25 797.282 1647.35 799.846 1646.49 801.993C1645.54 804.365 1644.84 803.66 1644.7 800.197ZM1727.73 787.481C1727.73 779.025 1729.19 774.749 1732.53 773.47C1736.62 771.899 1737.02 773.273 1735.27 782.815C1732.26 799.199 1727.73 802.002 1727.73 787.481ZM1738.71 766.829C1734.53 762.644 1736.47 736.723 1741.11 734.945C1743.56 734.004 1745.57 731.184 1745.57 728.68C1745.57 726.176 1746.91 724.127 1748.54 724.127C1752.6 724.127 1752.29 727.503 1747.09 739.951C1744.65 745.783 1743.42 752.555 1744.36 755.001C1746.36 760.199 1741.74 769.859 1738.71 766.829ZM1754.7 707.205C1754.58 701.986 1755.83 696.89 1757.46 695.879C1761.03 693.675 1761.03 702.447 1757.46 710.746C1755.31 715.759 1754.88 715.203 1754.7 707.205ZM1763.88 661.685C1763.88 657.596 1764.56 655.924 1765.38 657.968C1766.21 660.012 1766.21 663.357 1765.38 665.402C1764.56 667.446 1763.88 665.773 1763.88 661.685ZM1467.52 646.818C1466.51 645.182 1467.1 643.844 1468.83 643.844C1470.57 643.844 1471.98 645.182 1471.98 646.818C1471.98 648.453 1471.39 649.791 1470.67 649.791C1469.95 649.791 1468.53 648.453 1467.52 646.818ZM1752.91 608.014C1750.18 603.595 1752.35 602.031 1757.12 604.98C1759.68 606.56 1759.99 608.092 1757.99 609.327C1756.29 610.376 1754.01 609.785 1752.91 608.014ZM1748.54 587.349C1748.54 585.714 1749.88 584.376 1751.52 584.376C1753.15 584.376 1754.49 585.714 1754.49 587.349C1754.49 588.985 1753.15 590.323 1751.52 590.323C1749.88 590.323 1748.54 588.985 1748.54 587.349ZM1745.32 570.996C1745.07 569.36 1745.04 566.964 1745.26 565.672C1745.47 564.379 1744.36 560.904 1742.77 557.95C1740.83 554.312 1741.01 551.473 1743.33 549.15C1747.61 544.873 1752.54 544.631 1749.95 548.825C1748.89 550.532 1749.37 553.547 1751.02 555.524C1753.05 557.974 1752.69 561.485 1749.89 566.544C1747.63 570.628 1745.57 572.631 1745.32 570.996ZM1552.27 452.234C1552.27 451.513 1553.61 450.096 1555.25 449.085C1556.88 448.075 1558.22 448.665 1558.22 450.397C1558.22 452.129 1556.88 453.546 1555.25 453.546C1553.61 453.546 1552.27 452.956 1552.27 452.234ZM636.357 316.768C636.357 311.862 637.696 307.848 639.331 307.848C640.967 307.848 642.305 311.862 642.305 316.768C642.305 321.675 640.967 325.689 639.331 325.689C637.696 325.689 636.357 321.675 636.357 316.768ZM1048.45 305.235C1047.52 303.744 1048.77 301.757 1051.21 300.819C1053.66 299.882 1055.66 300.332 1055.66 301.819C1055.66 305.85 1050.37 308.353 1048.45 305.235ZM755.734 293.257C752.742 291.399 752.601 290.194 755.188 288.595C759.269 286.073 762.332 288.306 760.822 292.7C760.203 294.5 758.104 294.73 755.734 293.257ZM623.631 284.312C617.195 276.653 616.116 273.57 618.759 270.386C623.191 265.046 619.691 251.353 613.893 251.353C610.377 251.353 610.053 250.103 612.424 245.675C614.334 242.107 617.536 240.538 621.038 241.454C624.428 242.34 629.86 239.903 634.893 235.239C644.41 226.42 647.838 225.874 655.862 231.902C661.41 236.07 661.129 236.692 648.64 247.9C636.881 258.455 635.469 261.204 633.772 276.855L631.897 294.148L623.631 284.312ZM549.127 282.079C545.676 278.628 546.958 275.45 553.136 272.143C557.912 269.588 559.509 269.929 561.004 273.826C563.486 280.294 553.962 286.912 549.127 282.079ZM1242.27 244.663C1238.84 235.316 1247.12 230.716 1259.12 235.318C1265.85 237.903 1264.94 240.969 1256.25 244.929C1246.6 249.322 1243.97 249.271 1242.27 244.663ZM663.121 230.539C660.963 226.507 660.929 224.592 663.017 224.592C664.71 224.592 665.76 222.92 665.352 220.876C664.936 218.799 666.904 217.544 669.812 218.033C672.674 218.513 675.016 217.672 675.016 216.163C675.016 214.655 679.031 211.758 683.938 209.725C688.844 207.693 692.859 205.147 692.859 204.066C692.859 202.986 696.312 201.816 700.533 201.467C704.754 201.118 710.371 199.621 713.015 198.142C715.885 196.536 720.684 196.539 724.92 198.15C728.823 199.634 733.301 200.054 734.871 199.084C736.441 198.114 739.699 198.958 742.112 200.959C745.019 203.372 752.05 204.026 762.967 202.899C775.873 201.568 779.801 202.15 781.121 205.591C782.048 208.006 781.952 210.835 780.909 211.879C778.041 214.746 749.893 217.839 746.387 215.672C744.7 214.63 736.315 214.95 727.754 216.383C719.193 217.817 708.384 219.369 703.734 219.833C699.084 220.297 694.4 221.892 693.326 223.378C692.251 224.864 688.027 226.439 683.938 226.879C679.849 227.319 675.017 229.661 673.202 232.083C668.817 237.931 666.922 237.641 663.121 230.539ZM1231.11 235.175C1231.11 234.454 1232.45 233.037 1234.08 232.026C1235.72 231.015 1237.06 231.605 1237.06 233.337C1237.06 235.069 1235.72 236.486 1234.08 236.486C1232.45 236.486 1231.11 235.896 1231.11 235.175ZM81.1962 229.923C79.5561 227.809 77.3793 223.738 76.3589 220.876C75.2707 217.823 71.4644 215.672 67.1515 215.672C63.1078 215.672 58.9391 214.281 57.8878 212.58C56.6483 210.574 58.6775 210.165 63.6598 211.415C70.005 213.008 71.3434 212.307 71.3434 207.392C71.3434 196.661 85.9474 196.762 86.1666 207.495C86.1916 208.722 88.3002 209.725 90.8523 209.725C94.3943 209.725 95.274 212.358 94.5695 220.851C93.5981 232.56 86.8125 237.163 81.1962 229.923ZM1205.14 226.299C1197.88 222.939 1191.72 209.146 1194.38 202.208C1196.38 196.999 1199.67 196.713 1207.77 201.046C1214.84 204.829 1218.88 202.251 1213.81 197.187C1208.15 191.524 1209.58 190.432 1223.46 189.809C1236.75 189.213 1245.46 194.428 1241.6 200.675C1238.58 205.556 1228.76 204.304 1225.14 198.575C1222.91 195.058 1222.22 194.817 1222.99 197.832C1223.63 200.285 1227.1 203.778 1230.71 205.594L1237.28 208.897L1228.99 214.433C1224.43 217.477 1219.53 219.616 1218.11 219.185C1216.68 218.755 1216.26 220.353 1217.17 222.738C1219.35 228.418 1213.48 230.157 1205.14 226.299ZM966.222 207.944C969.615 201.613 972.392 194.741 972.392 192.672C972.392 190.604 973.73 188.911 975.366 188.911C977.001 188.911 978.34 190.249 978.34 191.885C978.34 193.52 979.773 194.858 981.526 194.858C986.704 194.858 993.911 203.605 992.266 207.892C991.43 210.071 986.951 212.68 982.312 213.691C977.674 214.702 970.768 216.413 966.965 217.492L960.051 219.456L966.222 207.944ZM941.911 196.131C931.744 190.616 930.984 179.28 940.342 172.726C948.782 166.815 952.7 166.825 950.426 172.752C949.073 176.277 950.018 176.969 954.318 175.605C961.113 173.448 964.852 178.318 961.79 185.337C960.576 188.121 959.873 192.74 960.227 195.602C961.024 202.04 953.221 202.266 941.911 196.131ZM1247.93 186.64C1246.22 183.819 1252.12 178.665 1257.87 177.951C1260.33 177.647 1265.67 176.403 1269.74 175.187C1276.93 173.042 1277.01 173.183 1272.57 179.877C1268.1 186.605 1250.78 191.358 1247.93 186.64ZM923.821 175.035C920.209 171.424 921.766 168.256 926.299 169.996C928.752 170.937 930.76 172.902 930.76 174.362C930.76 177.48 926.663 177.877 923.821 175.035ZM929.686 163.643C927.336 157.519 932.569 147.284 938.051 147.284C940.31 147.284 942.756 145.611 943.486 143.567C945.259 138.604 947.73 141.193 949.877 150.263C952.089 159.607 949.168 164.123 939.311 166.596C933.628 168.022 931.065 167.236 929.686 163.643ZM1454.14 149.088C1454.14 148.446 1456.15 147.15 1458.6 146.208C1461.05 145.267 1463.06 145.793 1463.06 147.377C1463.06 148.961 1461.05 150.257 1458.6 150.257C1456.15 150.257 1454.14 149.731 1454.14 149.088ZM789.346 108.37C788.247 106.592 788.514 103.972 789.939 102.547C793.456 99.0304 801.196 104.149 798.633 108.297C796.035 112.499 791.918 112.532 789.346 108.37ZM805.862 108.629C805.862 106.994 808.617 105.656 811.985 105.656C815.352 105.656 817.281 106.994 816.27 108.629C815.259 110.265 812.504 111.603 810.147 111.603C807.79 111.603 805.862 110.265 805.862 108.629ZM780.606 87.8493C779.564 86.1638 780.758 85.6653 783.404 86.6807C788.556 88.6574 789.498 90.7887 785.221 90.7887C783.682 90.7887 781.605 89.4659 780.606 87.8493ZM744.9 75.9216C735.735 73.5898 737.437 72.5761 751.392 72.0561C755.781 71.8926 759.907 73.3644 760.561 75.3269C761.865 79.2365 758.44 79.3666 744.9 75.9216ZM739.448 65.019C738.357 63.9288 737.465 62.047 737.465 60.8373C737.465 57.9786 748.962 60.9785 751.069 64.3868C752.939 67.4116 742.413 67.9842 739.448 65.019ZM1469.52 53.5617C1464.57 42.6874 1465.18 37.9371 1471.98 34.2937C1478.55 30.7804 1478.77 31.2229 1477.99 46.1874C1477.27 59.9867 1473.82 62.9887 1469.52 53.5617Z" fill="#5F3EC0"/>
<path fill-rule="evenodd" clip-rule="evenodd" d="M233.651 267.607L253.935 261.036C254.497 260.854 255.025 261.394 254.831 261.952L248.68 279.638C255.025 287.384 258.833 297.29 258.833 308.084C258.833 332.891 238.724 353.001 213.917 353.001C189.11 353.001 169 332.891 169 308.084C169 283.278 189.11 263.168 213.917 263.168C220.946 263.168 227.599 264.783 233.524 267.662C233.563 267.64 233.606 267.621 233.651 267.607Z" fill="white"/>
<g clip-path="url(#clip0)">
<circle cx="213.916" cy="307.486" r="35.7911" fill="#2A0D80"/>
<path fill-rule="evenodd" clip-rule="evenodd" d="M213.612 271.697L179.254 316.44C178.517 313.579 178.125 310.579 178.125 307.487C178.125 287.822 193.985 271.861 213.612 271.697Z" fill="#00C8AF"/>
<circle cx="213.917" cy="307.487" r="33.6436" fill="white"/>
<ellipse cx="213.941" cy="307.414" rx="31.7109" ry="31.7109" fill="#2A0D80"/>
<path d="M187.574 318.988H190.962V309.85C190.962 309.85 190.962 307.01 193.897 306.724C197.023 306.724 196.808 309.85 196.808 309.85V318.988H200.244V309.85C200.244 309.85 200.244 307.034 203.179 306.724C205.875 306.724 206.138 309.325 206.138 309.325V318.988H209.455V308.895C209.455 308.895 209.263 304.958 205.875 304.075C201.27 302.875 199.29 306.246 199.29 306.246C199.29 306.246 198.025 304.058 195.138 303.765C192.561 303.504 190.795 305.769 190.795 305.769V303.598H187.574V318.988Z" fill="white"/>
<path fill-rule="evenodd" clip-rule="evenodd" d="M210.382 275.904L182.576 312.115C182.348 310.582 182.23 309.014 182.23 307.418C182.23 291.108 194.544 277.673 210.382 275.904Z" fill="#00C8AF"/>
<path d="M234.555 314.191V318.963H237.705V314.191H240.305V311.352H237.705V295.938L223.746 314.191H234.555Z" fill="#00C8AF"/>
<path d="M234.533 304.766L229.594 311.351H234.533V304.766Z" fill="#2A0D80"/>
<path d="M225.631 315.861V318.987L211.625 319.011L220.215 308.56C220.215 308.56 222.911 305.458 222.243 302.666C221.742 300.572 219.523 300.042 219.523 300.042C219.523 300.042 217.709 299.517 216.159 300.925C214.949 302.022 214.989 303.645 214.989 303.645H211.697C211.697 303.645 211.506 301.163 213.415 299.087C215.323 297.011 218.044 296.797 218.044 296.797C218.044 296.797 223.532 296.32 225.345 301.497C227.015 305.267 222.911 310.016 222.911 310.016L218.044 315.861H225.631Z" fill="#00C8AF"/>
</g>
<defs>
<clipPath id="clip0">
<rect width="71.5822" height="71.5822" fill="white" transform="translate(178.125 271.695)"/>
</clipPath>
</defs>
</svg>
