<svg width="30" height="10" viewBox="0 0 30 10" fill="none" xmlns="http://www.w3.org/2000/svg">
<path fill-rule="evenodd" clip-rule="evenodd" d="M21.3502 6.67047C21.3563 5.14572 20.0988 4.48716 19.1229 3.97609C18.5051 3.65255 18.0002 3.38812 18.0002 3.00047C18.0002 2.67047 18.3202 2.32047 19.0002 2.23047C19.8095 2.1504 20.6253 2.29213 21.3602 2.64047L21.7802 0.640469C21.0638 0.371827 20.3053 0.23299 19.5402 0.230469C17.1802 0.230469 15.5402 1.49047 15.5402 3.29047C15.5402 4.62047 16.7302 5.36047 17.6302 5.80047C18.5302 6.24047 18.8802 6.55047 18.8702 6.95047C18.8702 7.57047 18.1302 7.85047 17.4402 7.86047C16.589 7.87143 15.7492 7.66491 15.0002 7.26047L14.5702 9.26047C15.4176 9.59131 16.3204 9.75761 17.2302 9.75047C19.7402 9.75047 21.3902 8.51047 21.4002 6.59047L21.3502 6.67047ZM14.8602 0.390469L12.8602 9.64047H10.4602L12.4602 0.390469H14.8602ZM24.9202 6.39047L26.1802 2.92047L26.9102 6.39047H24.9202ZM29.8102 9.67047H27.5902L27.3002 8.29047H24.2902L23.8002 9.67047H21.2802L24.8702 1.10047C25.0357 0.692723 25.4301 0.424493 25.8702 0.420469H27.8702L29.8102 9.67047ZM7.61016 9.61047L11.4902 0.360469H8.89016L6.40016 6.65047L5.40016 1.30047C5.31164 0.756817 4.84096 0.358227 4.29016 0.360469H0.220156L0.160156 0.630469C0.976494 0.790188 1.76942 1.05226 2.52016 1.41047C2.83991 1.56081 3.0566 1.86873 3.09016 2.22047L5.00016 9.61047H7.61016Z" fill="white"/>
</svg>
