<svg width="240" height="240" viewBox="0 0 240 240" fill="none" xmlns="http://www.w3.org/2000/svg">
<path d="M139.247 25.0305C147.225 25.0305 154.607 29.2553 158.647 36.1342L166.793 50H187.5C205.449 50 220 64.5508 220 82.5V177.5C220 195.449 205.449 210 187.5 210H52.5C34.5507 210 20 195.449 20 177.5V82.5C20 64.5508 34.5507 50 52.5 50H73.3042L82.05 35.7571C86.1425 29.0921 93.4026 25.0305 101.224 25.0305H139.247ZM139.247 40.0305H101.224C98.9892 40.0305 96.892 41.0252 95.4793 42.7084L94.8325 43.606L83.8913 61.4245C82.5271 63.6462 80.1071 65 77.5 65H52.5C42.835 65 35 72.8351 35 82.5V177.5C35 187.165 42.835 195 52.5 195H187.5C197.165 195 205 187.165 205 177.5V82.5C205 72.8351 197.165 65 187.5 65H162.5C159.841 65 157.38 63.5918 156.033 61.2988L145.714 43.7318C144.367 41.4388 141.906 40.0305 139.247 40.0305ZM120 80C144.853 80 165 100.147 165 125C165 149.853 144.853 170 120 170C95.1472 170 75 149.853 75 125C75 100.147 95.1472 80 120 80ZM120 95C103.431 95 90 108.431 90 125C90 141.569 103.431 155 120 155C136.569 155 150 141.569 150 125C150 108.431 136.569 95 120 95Z" fill="#B4B4B4"/>
</svg>
