<svg width="24" height="24" viewBox="0 0 24 24" fill="none" xmlns="http://www.w3.org/2000/svg">
<path d="M20.5962 9.49809V14.8923L24 13.5987L19.2835 1.75293L0 9.49809" fill="#6F9935"/>
<path d="M21.5767 14.5199V8.51758H2.44182L0.980469 9.10457V9.49835H20.5959V14.8926L21.5767 14.5199Z" fill="#658B30"/>
<path d="M0 9.49805H20.5962V22.2481H0V9.49805Z" fill="#79A73A"/>
<path d="M1.96094 13.7697C3.07056 13.4377 3.93867 12.5696 4.27066 11.46H16.3244C16.6563 12.5696 17.5244 13.4377 18.6341 13.7697V17.9772C17.5244 18.3091 16.6563 19.1772 16.3244 20.2869H4.41287H4.27017C3.9383 19.1774 3.07038 18.3093 1.96094 17.9772V13.7697Z" fill="#AAC16B"/>
<path d="M10.2976 18.3248C11.6518 18.3248 12.7496 17.227 12.7496 15.8728C12.7496 14.5187 11.6518 13.4209 10.2976 13.4209C8.94347 13.4209 7.8457 14.5187 7.8457 15.8728C7.8457 17.227 8.94347 18.3248 10.2976 18.3248Z" fill="#79A73A"/>
<path d="M20.2567 9.49844L19.094 6.50708L19.041 6.37517C17.8876 6.47747 16.76 5.9926 16.0408 5.08496L15.9094 5.13792L5.39453 9.49844H20.2567Z" fill="#AAC16B"/>
<path d="M7.75966 8.51758L5.39453 9.49835H20.2567L19.8756 8.51758H7.75966Z" fill="#89B140"/>
<path d="M4.90445 16.3636C5.17528 16.3636 5.39483 16.144 5.39483 15.8732C5.39483 15.6024 5.17528 15.3828 4.90445 15.3828C4.63362 15.3828 4.41406 15.6024 4.41406 15.8732C4.41406 16.144 4.63362 16.3636 4.90445 16.3636Z" fill="#79A73A"/>
<path d="M15.6935 16.3636C15.9643 16.3636 16.1839 16.144 16.1839 15.8732C16.1839 15.6024 15.9643 15.3828 15.6935 15.3828C15.4227 15.3828 15.2031 15.6024 15.2031 15.8732C15.2031 16.144 15.4227 16.3636 15.6935 16.3636Z" fill="#79A73A"/>
</svg>
