<svg xmlns="http://www.w3.org/2000/svg">
<style>[viewBox] { display: none; } :target { display: block; }</style>

<svg id="arrow-left" viewBox="0 0 24 24">
<path fill-rule="evenodd" clip-rule="evenodd" d="M15.7071 19.7071C16.0976 19.3166 16.0976 18.6834 15.7071 18.2929L9.41421 12L15.7071 5.70711C16.0976 5.31658 16.0976 4.68342 15.7071 4.29289C15.3166 3.90237 14.6834 3.90237 14.2929 4.29289L7.29289 11.2929C6.90237 11.6834 6.90237 12.3166 7.29289 12.7071L14.2929 19.7071C14.6834 20.0976 15.3166 20.0976 15.7071 19.7071Z" fill="#303030"/></svg>

<svg id="arrow-right" viewBox="0 0 24 24">
<path fill-rule="evenodd" clip-rule="evenodd" d="M8.29289 4.29289C7.90237 4.68342 7.90237 5.31658 8.29289 5.70711L14.5858 12L8.29289 18.2929C7.90237 18.6834 7.90237 19.3166 8.29289 19.7071C8.68342 20.0976 9.31658 20.0976 9.70711 19.7071L16.7071 12.7071C17.0976 12.3166 17.0976 11.6834 16.7071 11.2929L9.70711 4.29289C9.31658 3.90237 8.68342 3.90237 8.29289 4.29289Z" fill="#303030"/></svg>

<svg id="arrow-right-w" viewBox="0 0 24 24">
<path fill-rule="evenodd" clip-rule="evenodd" d="M8.29289 4.29289C7.90237 4.68342 7.90237 5.31658 8.29289 5.70711L14.5858 12L8.29289 18.2929C7.90237 18.6834 7.90237 19.3166 8.29289 19.7071C8.68342 20.0976 9.31658 20.0976 9.70711 19.7071L16.7071 12.7071C17.0976 12.3166 17.0976 11.6834 16.7071 11.2929L9.70711 4.29289C9.31658 3.90237 8.68342 3.90237 8.29289 4.29289Z" fill="#FFFFFF"/></svg>

<svg id="close" viewBox="0 0 24 24"><path d="M20,4,4,20" fill="none" stroke="#303030" stroke-linecap="round" stroke-width="2"/><path d="M4,4,20,20" fill="none" stroke="#303030" stroke-linecap="round" stroke-width="2"/></svg>

<svg id="close-w" viewBox="0 0 24 24"><path d="M20,4,4,20" fill="none" stroke="#fff" stroke-linecap="round" stroke-width="2"/><path d="M4,4,20,20" fill="none" stroke="#fff" stroke-linecap="round" stroke-width="2"/></svg>

<svg id="search-purple" viewBox="0 0 24 24">
<path d="M10 2.5C14.1421 2.5 17.5 5.85786 17.5 10C17.5 11.7101 16.9276 13.2866 15.964 14.5483L20.7071 19.2929C21.0976 19.6834 21.0976 20.3166 20.7071 20.7071C20.3466 21.0676 19.7794 21.0953 19.3871 20.7903L19.2929 20.7071L14.5483 15.964C13.2866 16.9276 11.7101 17.5 10 17.5C5.85786 17.5 2.5 14.1421 2.5 10C2.5 5.85786 5.85786 2.5 10 2.5ZM10 4.5C6.96243 4.5 4.5 6.96243 4.5 10C4.5 13.0376 6.96243 15.5 10 15.5C13.0376 15.5 15.5 13.0376 15.5 10C15.5 6.96243 13.0376 4.5 10 4.5Z" fill="#5F3EC0"/></svg>

<svg id="star5" viewBox="0 0 90 18">
<path fill-rule="evenodd" clip-rule="evenodd" d="M9.00167 14.0802L5.19175 16.0242C4.63468 16.3085 3.99257 15.8335 4.10141 15.2176L4.8231 11.1336L1.78697 8.26114C1.32597 7.825 1.57342 7.04929 2.20182 6.96067L6.41918 6.36588L8.32639 2.61514C8.60721 2.06287 9.39614 2.06287 9.67696 2.61514L11.5842 6.36588L15.8015 6.96067C16.4299 7.04929 16.6774 7.825 16.2164 8.26114L13.1802 11.1336L13.9019 15.2176C14.0108 15.8335 13.3687 16.3085 12.8116 16.0242L9.00167 14.0802Z" fill="#00C8AF"/>
<path fill-rule="evenodd" clip-rule="evenodd" d="M27.0017 14.0802L23.1917 16.0242C22.6347 16.3085 21.9926 15.8335 22.1014 15.2176L22.8231 11.1336L19.787 8.26114C19.326 7.825 19.5734 7.04929 20.2018 6.96067L24.4192 6.36588L26.3264 2.61514C26.6072 2.06287 27.3961 2.06287 27.677 2.61514L29.5842 6.36588L33.8015 6.96067C34.4299 7.04929 34.6774 7.825 34.2164 8.26114L31.1802 11.1336L31.9019 15.2176C32.0108 15.8335 31.3687 16.3085 30.8116 16.0242L27.0017 14.0802Z" fill="#00C8AF"/>
<path fill-rule="evenodd" clip-rule="evenodd" d="M45.0017 14.0802L41.1917 16.0242C40.6347 16.3085 39.9926 15.8335 40.1014 15.2176L40.8231 11.1336L37.787 8.26114C37.326 7.825 37.5734 7.04929 38.2018 6.96067L42.4192 6.36588L44.3264 2.61514C44.6072 2.06287 45.3961 2.06287 45.677 2.61514L47.5842 6.36588L51.8015 6.96067C52.4299 7.04929 52.6774 7.825 52.2164 8.26114L49.1802 11.1336L49.9019 15.2176C50.0108 15.8335 49.3687 16.3085 48.8116 16.0242L45.0017 14.0802Z" fill="#00C8AF"/>
<path fill-rule="evenodd" clip-rule="evenodd" d="M63.0017 14.0802L59.1917 16.0242C58.6347 16.3085 57.9926 15.8335 58.1014 15.2176L58.8231 11.1336L55.787 8.26114C55.326 7.825 55.5734 7.04929 56.2018 6.96067L60.4192 6.36588L62.3264 2.61514C62.6072 2.06287 63.3961 2.06287 63.677 2.61514L65.5842 6.36588L69.8015 6.96067C70.4299 7.04929 70.6774 7.825 70.2164 8.26114L67.1802 11.1336L67.9019 15.2176C68.0108 15.8335 67.3687 16.3085 66.8116 16.0242L63.0017 14.0802Z" fill="#00C8AF"/>
<path fill-rule="evenodd" clip-rule="evenodd" d="M81.0017 14.0802L77.1917 16.0242C76.6347 16.3085 75.9926 15.8335 76.1014 15.2176L76.8231 11.1336L73.787 8.26114C73.326 7.825 73.5734 7.04929 74.2018 6.96067L78.4192 6.36588L80.3264 2.61514C80.6072 2.06287 81.3961 2.06287 81.677 2.61514L83.5842 6.36588L87.8015 6.96067C88.4299 7.04929 88.6774 7.825 88.2164 8.26114L85.1802 11.1336L85.9019 15.2176C86.0108 15.8335 85.3687 16.3085 84.8116 16.0242L81.0017 14.0802Z" fill="#00C8AF"/></svg>

<svg id="star4" viewBox="0 0 95 18">
<path fill-rule="evenodd" clip-rule="evenodd" d="M8.90687 14.0787L5.15195 16.0149C4.59532 16.3019 3.95062 15.8279 4.0585 15.211L4.7718 11.1321L1.76385 8.25641C1.30684 7.81949 1.55454 7.04803 2.18048 6.95882L6.35126 6.36442L8.23014 2.63051C8.50995 2.07444 9.30379 2.07444 9.5836 2.63051L11.4625 6.36442L15.6333 6.95882C16.2592 7.04803 16.5069 7.81949 16.0499 8.25641L13.042 11.1321L13.7552 15.211C13.8631 15.8279 13.2184 16.3019 12.6618 16.0149L8.90687 14.0787Z" fill="#00C8AF"/>
<path fill-rule="evenodd" clip-rule="evenodd" d="M28.2037 14.0787L24.4488 16.0149C23.8922 16.3019 23.2475 15.8279 23.3554 15.211L24.0687 11.1321L21.0607 8.25641C20.6037 7.81949 20.8514 7.04803 21.4774 6.95882L25.6481 6.36442L27.527 2.63051C27.8068 2.07444 28.6007 2.07444 28.8805 2.63051L30.7594 6.36442L34.9301 6.95882C35.5561 7.04803 35.8038 7.81949 35.3468 8.25641L32.3388 11.1321L33.0521 15.211C33.16 15.8279 32.5153 16.3019 31.9587 16.0149L28.2037 14.0787Z" fill="#00C8AF"/>
<path fill-rule="evenodd" clip-rule="evenodd" d="M47.5006 14.0787L43.7457 16.0149C43.1891 16.3019 42.5444 15.8279 42.6523 15.211L43.3655 11.1321L40.3576 8.25641C39.9006 7.81949 40.1483 7.04803 40.7742 6.95882L44.945 6.36442L46.8239 2.63051C47.1037 2.07444 47.8975 2.07444 48.1774 2.63051L50.0562 6.36442L54.227 6.95882C54.853 7.04803 55.1007 7.81949 54.6436 8.25641L51.6357 11.1321L52.349 15.211C52.4569 15.8279 51.8122 16.3019 51.2555 16.0149L47.5006 14.0787Z" fill="#00C8AF"/>
<path fill-rule="evenodd" clip-rule="evenodd" d="M66.7975 14.0787L63.0426 16.0149C62.4859 16.3019 61.8412 15.8279 61.9491 15.211L62.6624 11.1321L59.6545 8.25641C59.1975 7.81949 59.4452 7.04803 60.0711 6.95882L64.2419 6.36442L66.1208 2.63051C66.4006 2.07444 67.1944 2.07444 67.4742 2.63051L69.3531 6.36442L73.5239 6.95882C74.1498 7.04803 74.3975 7.81949 73.9405 8.25641L70.9326 11.1321L71.6459 15.211C71.7537 15.8279 71.1091 16.3019 70.5524 16.0149L66.7975 14.0787Z" fill="#00C8AF"/>
<path fill-rule="evenodd" clip-rule="evenodd" d="M86.0944 14.0787L82.3394 16.0149C81.7828 16.3019 81.1381 15.8279 81.246 15.211L81.9593 11.1321L78.9514 8.25641C78.4943 7.81949 78.742 7.04803 79.368 6.95882L83.5388 6.36442L85.4176 2.63051C85.6975 2.07444 86.4913 2.07444 86.7711 2.63051L88.65 6.36442L92.8208 6.95882C93.4467 7.04803 93.6944 7.81949 93.2374 8.25641L90.2295 11.1321L90.9427 15.211C91.0506 15.8279 90.4059 16.3019 89.8493 16.0149L86.0944 14.0787Z" stroke="#00C8AF" fill="transparent"/></svg>

<svg id="star3" viewBox="0 0 95 18">
<path fill-rule="evenodd" clip-rule="evenodd" d="M8.90687 14.0787L5.15195 16.0149C4.59532 16.3019 3.95062 15.8279 4.0585 15.211L4.7718 11.1321L1.76385 8.25641C1.30684 7.81949 1.55454 7.04803 2.18048 6.95882L6.35126 6.36442L8.23014 2.63051C8.50995 2.07444 9.30379 2.07444 9.5836 2.63051L11.4625 6.36442L15.6333 6.95882C16.2592 7.04803 16.5069 7.81949 16.0499 8.25641L13.042 11.1321L13.7552 15.211C13.8631 15.8279 13.2184 16.3019 12.6618 16.0149L8.90687 14.0787Z" fill="#00C8AF"/>
<path fill-rule="evenodd" clip-rule="evenodd" d="M28.2037 14.0787L24.4488 16.0149C23.8922 16.3019 23.2475 15.8279 23.3554 15.211L24.0687 11.1321L21.0607 8.25641C20.6037 7.81949 20.8514 7.04803 21.4774 6.95882L25.6481 6.36442L27.527 2.63051C27.8068 2.07444 28.6007 2.07444 28.8805 2.63051L30.7594 6.36442L34.9301 6.95882C35.5561 7.04803 35.8038 7.81949 35.3468 8.25641L32.3388 11.1321L33.0521 15.211C33.16 15.8279 32.5153 16.3019 31.9587 16.0149L28.2037 14.0787Z" fill="#00C8AF"/>
<path fill-rule="evenodd" clip-rule="evenodd" d="M47.5006 14.0787L43.7457 16.0149C43.1891 16.3019 42.5444 15.8279 42.6523 15.211L43.3655 11.1321L40.3576 8.25641C39.9006 7.81949 40.1483 7.04803 40.7742 6.95882L44.945 6.36442L46.8239 2.63051C47.1037 2.07444 47.8975 2.07444 48.1774 2.63051L50.0562 6.36442L54.227 6.95882C54.853 7.04803 55.1007 7.81949 54.6436 8.25641L51.6357 11.1321L52.349 15.211C52.4569 15.8279 51.8122 16.3019 51.2555 16.0149L47.5006 14.0787Z" fill="#00C8AF"/>
<path fill-rule="evenodd" clip-rule="evenodd" d="M66.7975 14.0787L63.0426 16.0149C62.4859 16.3019 61.8412 15.8279 61.9491 15.211L62.6624 11.1321L59.6545 8.25641C59.1975 7.81949 59.4452 7.04803 60.0711 6.95882L64.2419 6.36442L66.1208 2.63051C66.4006 2.07444 67.1944 2.07444 67.4742 2.63051L69.3531 6.36442L73.5239 6.95882C74.1498 7.04803 74.3975 7.81949 73.9405 8.25641L70.9326 11.1321L71.6459 15.211C71.7537 15.8279 71.1091 16.3019 70.5524 16.0149L66.7975 14.0787Z" stroke="#00C8AF" fill="transparent"/>
<path fill-rule="evenodd" clip-rule="evenodd" d="M86.0944 14.0787L82.3394 16.0149C81.7828 16.3019 81.1381 15.8279 81.246 15.211L81.9593 11.1321L78.9514 8.25641C78.4943 7.81949 78.742 7.04803 79.368 6.95882L83.5388 6.36442L85.4176 2.63051C85.6975 2.07444 86.4913 2.07444 86.7711 2.63051L88.65 6.36442L92.8208 6.95882C93.4467 7.04803 93.6944 7.81949 93.2374 8.25641L90.2295 11.1321L90.9427 15.211C91.0506 15.8279 90.4059 16.3019 89.8493 16.0149L86.0944 14.0787Z" stroke="#00C8AF" fill="transparent"/></svg>

<svg id="sum" viewBox="0 0 24 24">
<path d="M3.75391 10.4995H20.2458C20.66 10.4995 20.9958 10.1637 20.9958 9.74951C20.9958 9.3353 20.66 8.99951 20.2458 8.99951H3.75391C3.33969 8.99951 3.00391 9.3353 3.00391 9.74951C3.00391 10.1637 3.33969 10.4995 3.75391 10.4995Z" fill="#212121"/>
<path d="M3.75391 15.5H20.2458C20.66 15.5 20.9958 15.1642 20.9958 14.75C20.9958 14.3358 20.66 14 20.2458 14H3.75391C3.33969 14 3.00391 14.3358 3.00391 14.75C3.00391 15.1642 3.33969 15.5 3.75391 15.5Z" fill="#212121"/></svg>

<svg id="plus" viewBox="0 0 24 24">
<path d="M11.7496 3C12.1293 3 12.4431 3.28201 12.4929 3.64808L12.4997 3.74985L12.501 11H19.754C20.1683 11 20.504 11.3358 20.504 11.75C20.504 12.1297 20.2219 12.4435 19.8558 12.4932L19.754 12.5H12.501L12.503 19.7491C12.5031 20.1633 12.1674 20.4993 11.7532 20.4993C11.3735 20.4993 11.0596 20.2173 11.0099 19.8512L11.003 19.7494L11.001 12.5H3.75195C3.33774 12.5 3.00195 12.1642 3.00195 11.75C3.00195 11.3703 3.28411 11.0565 3.65018 11.0068L3.75195 11H11.001L10.9997 3.75015C10.9997 3.33594 11.3354 3 11.7496 3Z" fill="#212121"/></svg>

<svg id="img-scale" viewBox="0 0 48 48">
<path d="M34.5 6C38.6421 6 42 9.35786 42 13.5V34.5C42 38.6421 38.6421 42 34.5 42H13.5C9.35786 42 6 38.6421 6 34.5V13.5C6 9.35786 9.35786 6 13.5 6H34.5ZM34.5 9H13.5C11.0147 9 9 11.0147 9 13.5V34.5C9 36.9853 11.0147 39 13.5 39H34.5C36.9853 39 39 36.9853 39 34.5V13.5C39 11.0147 36.9853 9 34.5 9ZM34.5 26C35.3284 26 36 26.6716 36 27.5V32C36 34.2092 34.2092 36 32 36H27.5C26.6716 36 26 35.3284 26 34.5C26 33.6716 26.6716 33 27.5 33H32C32.5522 33 33 32.5522 33 32V27.5C33 26.6716 33.6716 26 34.5 26ZM13.5 26C14.3284 26 15 26.6716 15 27.5V32C15 32.5522 15.4477 33 16 33H20.5C21.3284 33 22 33.6716 22 34.5C22 35.3284 21.3284 36 20.5 36H16C13.7909 36 12 34.2092 12 32V27.5C12 26.6716 12.6716 26 13.5 26ZM16 12H20.5C21.3284 12 22 12.6716 22 13.5C22 14.2594 21.4357 14.887 20.7035 14.9863L20.5 15H16C15.5091 15 15.1008 15.3538 15.0161 15.8202L15 16V20.5C15 21.3284 14.3284 22 13.5 22C12.7406 22 12.113 21.4357 12.0137 20.7035L12 20.5V16C12 13.8913 13.6318 12.1637 15.7015 12.011L16 12H20.5H16ZM32 12C34.2092 12 36 13.7909 36 16V20.5C36 21.3284 35.3284 22 34.5 22C33.6716 22 33 21.3284 33 20.5V16C33 15.4477 32.5522 15 32 15H27.5C26.6716 15 26 14.3284 26 13.5C26 12.6716 26.6716 12 27.5 12H32Z" fill="#212121"/></svg>

<svg id="star-on" viewBox="0 0 30 30">
<path fill-rule="evenodd" clip-rule="evenodd" d="M14.9041 23.4647L8.61873 26.6921C7.68681 27.1706 6.60954 26.3766 6.79074 25.3448L7.98332 18.5537L2.95922 13.7706C2.19165 13.0399 2.60605 11.7459 3.65533 11.597L10.6268 10.6076L13.7725 4.38247C14.2415 3.45434 15.5668 3.45434 16.0358 4.38247L19.1814 10.6076L26.1529 11.597C27.2022 11.7459 27.6166 13.0399 26.849 13.7706L21.825 18.5537L23.0175 25.3448C23.1987 26.3766 22.1215 27.1706 21.1895 26.6921L14.9041 23.4647Z" fill="#00C8AF"/></svg>

<svg id="star-off" viewBox="0 0 30 30">
<path fill-rule="evenodd" clip-rule="evenodd" d="M14.9041 23.4647L8.61873 26.6921C7.68681 27.1706 6.60954 26.3766 6.79074 25.3448L7.98332 18.5537L2.95922 13.7706C2.19165 13.0399 2.60605 11.7459 3.65533 11.597L10.6268 10.6076L13.7725 4.38247C14.2415 3.45434 15.5668 3.45434 16.0358 4.38247L19.1814 10.6076L26.1529 11.597C27.2022 11.7459 27.6166 13.0399 26.849 13.7706L21.825 18.5537L23.0175 25.3448C23.1987 26.3766 22.1215 27.1706 21.1895 26.6921L14.9041 23.4647Z" fill="#B4B4B4"/></svg>

<svg id="yt-bg" viewBox="0 0 975 172">
<path opacity="0.1" d="M38.7812 0.953125H0.34375L60.3438 109V169H96.4375V109L156.438 0.953125H118L78.3906 73.0234L38.7812 0.953125ZM180.344 110.289C180.344 101.5 183.156 94.1172 188.898 88.0234C194.523 82.0469 201.32 79 209.172 79C216.906 79 223.703 82.0469 229.445 88.0234C235.07 94.1172 238 101.5 238 110.289C238 119.078 235.07 126.461 229.445 132.438C223.703 138.414 216.906 141.344 209.172 141.344C201.32 141.344 194.523 138.414 188.898 132.438C183.156 126.461 180.344 119.078 180.344 110.289ZM271.516 110.172C271.516 93.8828 265.305 79.5859 252.883 67.3984C240.461 55.2109 225.93 49.1172 209.172 49.1172C192.297 49.1172 177.766 55.2109 165.344 67.3984C152.922 79.5859 146.711 93.8828 146.711 110.172C146.711 126.578 152.922 140.875 165.344 153.062C177.766 165.25 192.297 171.344 209.172 171.344C225.93 171.344 240.461 165.25 252.883 153.062C265.305 140.875 271.516 126.578 271.516 110.172ZM374.758 169H407.102V51.3438H374.758V113.805C374.758 122.711 372.531 129.508 368.195 134.195C363.859 139 358 141.344 350.734 141.344C344.172 141.344 338.664 139.234 334.328 134.898C329.992 130.68 327.883 125.172 327.883 118.609V51.3438H295.539V121.773C295.539 136.773 299.758 148.844 308.195 157.867C316.633 166.891 327.648 171.344 341.125 171.344C347.453 171.344 353.547 170.055 359.406 167.477C365.266 164.898 369.016 162.789 370.773 161.148C372.414 159.508 373.82 158.219 374.758 157.047V169ZM429.836 0.953125V33.4141H477.883V169H513.859V33.4141H561.789V0.953125H429.836ZM648.273 169H680.617V51.3438H648.273V113.805C648.273 122.711 646.047 129.508 641.711 134.195C637.375 139 631.516 141.344 624.25 141.344C617.688 141.344 612.18 139.234 607.844 134.898C603.508 130.68 601.398 125.172 601.398 118.609V51.3438H569.055V121.773C569.055 136.773 573.273 148.844 581.711 157.867C590.148 166.891 601.164 171.344 614.641 171.344C620.969 171.344 627.062 170.055 632.922 167.477C638.781 164.898 642.531 162.789 644.289 161.148C645.93 159.508 647.336 158.219 648.273 157.047V169ZM781.398 49C777.062 49 772.844 49.7031 768.859 50.875C764.875 52.0469 761.594 53.4531 759.133 54.9766C756.555 56.5 754.211 58.2578 752.102 60.1328C749.992 62.0078 748.586 63.2969 748 64C747.297 64.7031 746.828 65.2891 746.594 65.7578V0.953125H714.133V169H746.594V154.586L750.109 158.922C752.453 161.734 756.672 164.43 762.531 167.242C768.391 170.055 774.602 171.344 781.398 171.344C796.516 171.344 809.641 165.484 820.891 153.648C832.141 141.812 837.766 127.281 837.766 110.172C837.766 93.0625 832.141 78.6484 821.008 66.8125C809.758 54.9766 796.633 49 781.398 49ZM775.305 142.633C767.336 142.633 760.539 139.586 754.914 133.492C749.289 127.398 746.594 119.664 746.594 110.172C746.594 100.797 749.289 93.0625 754.914 86.9688C760.539 80.875 767.336 77.8281 775.305 77.8281C783.273 77.8281 790.07 80.875 795.695 86.9688C801.32 93.0625 804.133 100.797 804.133 110.172C804.133 119.664 801.32 127.398 795.695 133.492C790.07 139.586 783.273 142.633 775.305 142.633ZM973.352 120.953L974.523 107.828C974.523 91.0703 968.898 77.125 957.766 65.875C946.516 54.625 932.57 49 915.812 49C898.938 49 884.523 55.0938 872.57 67.0469C860.5 79 854.523 93.4141 854.523 110.172C854.523 127.047 860.617 141.461 872.805 153.414C884.992 165.367 899.641 171.344 916.984 171.344C923.078 171.344 928.938 170.641 934.68 169.234C940.422 167.828 945.109 166.305 948.742 164.43C952.258 162.555 955.656 160.445 958.938 158.102C962.102 155.758 964.211 154.117 965.148 153.18L967.375 150.953L950.617 129.391L947.219 133.023C945.109 135.484 941.359 137.945 936.203 140.289C931.047 142.633 925.422 143.805 919.328 143.805C910.891 143.805 903.859 141.695 898.352 137.242C892.727 132.789 889.328 127.398 888.156 120.953H973.352ZM915.812 76.6562C922.609 76.6562 928.469 78.7656 933.156 82.75C937.844 86.8516 940.891 92.0078 942.18 98.2188H888.156C890.031 91.8906 893.43 86.6172 898.234 82.6328C903.039 78.6484 908.898 76.6562 915.812 76.6562Z" fill="#B4B4B4"/></svg>

<svg id="eye" viewBox="0 0 24 24">
<g opacity="0.4"><path d="M12.0004 9.00462C14.2095 9.00462 16.0004 10.7955 16.0004 13.0046C16.0004 15.2138 14.2095 17.0046 12.0004 17.0046C9.79122 17.0046 8.00036 15.2138 8.00036 13.0046C8.00036 10.7955 9.79122 9.00462 12.0004 9.00462ZM12.0004 10.5046C10.6196 10.5046 9.50036 11.6239 9.50036 13.0046C9.50036 14.3853 10.6196 15.5046 12.0004 15.5046C13.3811 15.5046 14.5004 14.3853 14.5004 13.0046C14.5004 11.6239 13.3811 10.5046 12.0004 10.5046ZM12.0004 5.5C16.6139 5.5 20.5965 8.65001 21.7015 13.0644C21.8021 13.4662 21.5579 13.8735 21.1561 13.9741C20.7542 14.0746 20.347 13.8305 20.2464 13.4286C19.3075 9.67796 15.9217 7 12.0004 7C8.07729 7 4.69046 9.68026 3.75322 13.4332C3.65286 13.835 3.24572 14.0794 2.84385 13.9791C2.44197 13.8787 2.19755 13.4716 2.29792 13.0697C3.40101 8.65272 7.38484 5.5 12.0004 5.5Z" fill="#212121"/></g></svg>

<svg id="youtube" viewBox="0 0 26 20">
<path d="M23.8523 3.74375C23.7535 3.37125 22.5082 2.1525 22.1871 2.06625C21.619 1.9125 18.85 1.5625 13 1.5625C7.15 1.5625 4.3836 1.9125 3.8103 2.06625C3.4931 2.15125 2.24778 3.37 2.14768 3.74375C2.00598 4.27375 1.63548 6.495 1.63548 10C1.63548 13.505 2.00598 15.725 2.14768 16.2575C2.24648 16.6287 3.4918 17.8475 3.8116 17.9325C4.3836 18.0875 7.15 18.4375 13 18.4375C18.85 18.4375 21.6177 18.0875 22.1897 17.9338C22.5069 17.8488 23.7522 16.63 23.8523 16.2562C23.994 15.7262 24.3645 13.5 24.3645 10C24.3645 6.5 23.994 4.275 23.8523 3.74375ZM25.4059 3.1225C26 5.35 26 10 26 10C26 10 26 14.65 25.4059 16.8775C25.0757 18.1087 24.1098 19.0775 22.8865 19.405C20.6648 20 13 20 13 20C13 20 5.3391 20 3.1135 19.405C1.885 19.0725 0.9204 18.105 0.5941 16.8775C5.74897e-08 14.65 0 10 0 10C0 10 5.74897e-08 5.35 0.5941 3.1225C0.9243 1.89125 1.8902 0.9225 3.1135 0.595C5.3391 -2.23517e-07 13 0 13 0C13 0 20.6648 -2.23517e-07 22.8865 0.595C24.115 0.9275 25.0796 1.895 25.4059 3.1225ZM10.4 14.375V5.625L18.2 10L10.4 14.375Z" fill="#121212"/></svg>


</svg>
