<svg width="36" height="22" viewBox="0 0 36 22" fill="none" xmlns="http://www.w3.org/2000/svg">
<rect x="12.9004" y="2.66016" width="10.21" height="16.68" fill="#F26122"/>
<path d="M14.0007 10.9998C13.9839 7.75335 15.4584 4.67887 18.0007 2.65981C13.651 -0.760891 7.40268 -0.264166 3.64802 3.80082C-0.106632 7.86581 -0.106632 14.1338 3.64802 18.1988C7.40268 22.2638 13.651 22.7605 18.0007 19.3398C15.4584 17.3208 13.9839 14.2463 14.0007 10.9998Z" fill="#EA1D25"/>
<path fill-rule="evenodd" clip-rule="evenodd" d="M34.1395 17.2302V17.5702H34.0795V17.2302H33.9395V17.1602H34.2895V17.2302H34.1395ZM34.8195 17.1602V17.5702H34.7495V17.2602L34.6395 17.5302H34.5595L34.4395 17.2602V17.5702H34.3695V17.1602H34.4695L34.5995 17.4502L34.7195 17.1602H34.8195Z" fill="#F69E1E"/>
<path d="M35.16 10.9997C35.1574 15.0591 32.8389 18.7611 29.1879 20.5356C25.5369 22.31 21.1935 21.8457 18 19.3397C22.6001 15.7177 23.3967 9.05404 19.78 4.44974C19.2616 3.78301 18.6638 3.18192 18 2.65974C21.1935 0.153736 25.5369 -0.310515 29.1879 1.46391C32.8389 3.23834 35.1574 6.9404 35.16 10.9997Z" fill="#F69E1E"/>
</svg>
