<svg width="17" height="23" viewBox="0 0 17 23" fill="none" xmlns="http://www.w3.org/2000/svg">
<path fill-rule="evenodd" clip-rule="evenodd" d="M0.525638 11.3421C0.525638 10.1292 0.62733 9.3594 3.13926 7.48432C5.21887 5.9319 11.8848 0.626953 11.8848 0.626953V9.48261H16.954V22.2281H2.10894C1.23814 22.2281 0.525391 21.5154 0.525391 20.6445L0.525638 11.3422V11.3421Z" fill="#FFCF01"/>
<path fill-rule="evenodd" clip-rule="evenodd" d="M12.2623 9.4834V14.6146L2.94727 20.9606L14.7245 17.1286V9.4834H12.2623Z" fill="#D3AC06"/>
<path fill-rule="evenodd" clip-rule="evenodd" d="M8.26224 9.21952C8.807 8.57043 9.60255 8.34134 10.0394 8.70786C10.4762 9.07446 10.3889 9.89786 9.84413 10.5469C9.29977 11.196 8.5039 11.4248 8.06707 11.0582C7.63023 10.6917 7.7178 9.86845 8.26224 9.21944V9.21952Z" fill="#231F20"/>
</svg>
