<svg width="42" height="40" viewBox="0 0 42 40" fill="none" xmlns="http://www.w3.org/2000/svg">
<path d="M15.9392 15.2866L14.5387 3.53705L14.535 3.38986C14.535 1.61261 15.9757 0.171875 17.7529 0.171875C19.3585 0.171875 20.8444 1.0112 21.7096 2.4407L21.8823 2.76205L27.7721 14.9401L35.6864 14.7085C38.5537 14.6242 40.9463 16.8804 41.031 19.7696L41.0328 19.9001C41.0328 22.7688 38.7072 25.0944 35.7945 25.0938L27.8662 24.8617L21.8825 37.2381C21.1167 38.8221 19.5123 39.8285 17.7529 39.8285C15.9757 39.8285 14.535 38.3878 14.5356 36.5658L14.5486 36.3299L15.9624 24.5133L11.6982 24.3888L11.1604 25.8602C10.5994 27.3948 9.13945 28.4155 7.50548 28.4155C5.75362 28.4155 4.33345 26.9954 4.33345 25.2428L4.33417 23.7236L4.02408 23.6591C2.2441 23.2875 0.96875 21.7185 0.96875 19.9001C0.96875 18.0815 2.24505 16.5126 4.02519 16.1424L4.33417 16.0781L4.33345 14.5567C4.33345 12.9527 5.5297 11.607 7.20276 11.4006L7.50548 11.3847C8.99536 11.3847 10.3512 12.235 11.0344 13.6388L11.1601 13.939L11.6993 15.4108L15.9392 15.2866ZM17.7529 3.17187C17.6326 3.17187 17.535 3.26947 17.5343 3.34511L19.3071 18.1891L9.62619 18.4729L8.37137 15.0424L8.30628 14.8842C8.15755 14.5796 7.8467 14.3847 7.59848 14.3818L7.48201 14.3861C7.39882 14.3965 7.33345 14.47 7.33345 14.556L7.33533 18.5176L4.63625 19.0795C4.24745 19.1604 3.96875 19.503 3.96875 19.9001C3.96875 20.2979 4.24774 20.6411 4.63631 20.7222L7.33533 21.2841L7.33345 25.2435C7.33345 25.3385 7.41047 25.4155 7.50548 25.4155C7.87981 25.4155 8.21428 25.1817 8.34278 24.8302L9.62327 21.3269L19.3311 21.6104L17.5374 36.5528L17.535 36.6105C17.535 36.7309 17.6326 36.8285 17.7529 36.8285C18.3616 36.8285 18.9166 36.4803 19.1815 35.9323L26.0113 21.8061L35.8384 22.0944C37.0503 22.0944 38.0329 21.112 38.0329 19.9221L38.0318 19.8357C37.9962 18.6246 36.9856 17.6716 35.7743 17.7072L25.9174 17.9957L19.214 4.13133L19.1092 3.93494C18.8225 3.46233 18.3083 3.17187 17.7529 3.17187Z" fill="currentColor"/>
</svg>
