<svg width="48" height="48" viewBox="0 0 48 48" fill="none" xmlns="http://www.w3.org/2000/svg">
<g clip-path="url(#clip70)">
<path d="M39.0001 0H16.5C10.8137 0 6.1875 4.62619 6.1875 10.3125V17.8125C6.1875 19.0346 6.97134 20.0767 8.0625 20.4637V21.5625C8.0625 23.1133 9.32419 24.375 10.875 24.375H13.6877V25.9921H12.7268C12.2092 25.9921 11.7893 26.4119 11.7893 26.9296C11.7893 27.4473 12.2092 27.8671 12.7268 27.8671H13.6877V29.4976C12.1118 30.2532 10.3932 32.5191 10.0088 33.0451C9.14184 34.2311 7.12528 37.3132 7.12528 40.3108C7.12528 42.3535 7.96472 44.3614 9.42844 45.8194C10.8408 47.2263 12.6765 47.9999 14.5937 47.9999C14.6123 48 14.6312 48 14.6495 47.9999C16.5738 47.9999 18.4098 47.2262 19.8222 45.8193C21.2858 44.3613 22.1253 42.3535 22.1253 40.3108C22.1253 37.3132 20.1087 34.2311 19.2417 33.0451C18.8572 32.5191 17.1385 30.2531 15.5627 29.4976V27.8671H16.5237C17.0414 27.8671 17.4612 27.4473 17.4612 26.9296C17.4612 26.4119 17.0414 25.9921 16.5237 25.9921H15.5627V24.375H37.1251C38.6759 24.375 39.9376 23.1133 39.9376 21.5625V20.4637C41.0288 20.0767 41.8125 19.0346 41.8125 17.8125V2.8125C41.8125 1.26169 40.5509 0 39.0001 0V0ZM14.6252 32.2905C15.2356 34.1323 16.0253 37.4582 16.0253 40.3015C16.0253 41.8181 15.8311 43.2881 15.4781 44.441C15.1356 45.5604 14.7656 45.9798 14.6252 46.0684C14.4847 45.9797 14.115 45.5603 13.7723 44.4409C13.4194 43.288 13.2251 41.8179 13.2251 40.3015C13.2251 37.4582 14.0148 34.1323 14.6252 32.2905ZM9.00028 40.3108C9.00028 38.6372 9.87947 36.4478 11.4125 34.3037C11.7696 33.8043 12.1201 33.3657 12.4521 32.986C12.4154 33.1186 12.3791 33.2528 12.3435 33.3889C11.7123 35.7998 11.3501 38.3194 11.3501 40.3014C11.3501 42.3083 11.6497 44.1569 12.1618 45.5247C11.653 45.2609 11.1772 44.915 10.7516 44.4909C9.63862 43.3823 9.00028 41.8587 9.00028 40.3108ZM17.8379 34.3037C19.371 36.4478 20.2502 38.6373 20.2502 40.3108C20.2502 41.8586 19.6118 43.3823 18.4988 44.4909C18.0735 44.9146 17.5979 45.2601 17.0888 45.5237C17.6007 44.156 17.9002 42.3078 17.9002 40.3015C17.9002 38.3194 17.5381 35.7997 16.9068 33.389C16.8712 33.2529 16.8349 33.1187 16.7982 32.9861C17.1303 33.3657 17.4808 33.8043 17.8379 34.3037ZM37.1251 22.5H10.875C10.3581 22.5 9.9375 22.0794 9.9375 21.5625V20.625H18.8442C19.3619 20.625 19.7817 20.2052 19.7817 19.6875C19.7817 19.1698 19.3619 18.75 18.8442 18.75H9C8.48306 18.75 8.0625 18.3294 8.0625 17.8125V10.3125C8.0625 5.66006 11.8476 1.875 16.5 1.875H39.0001C39.517 1.875 39.9375 2.29556 39.9375 2.8125V17.8125C39.9375 18.3294 39.517 18.75 39.0001 18.75H38.0625V15.9375C38.0625 15.4198 37.6427 15 37.125 15C36.6073 15 36.1875 15.4198 36.1875 15.9375V18.75H34.3123V15.9375C34.3123 15.4198 33.8925 15 33.3748 15C32.8571 15 32.4373 15.4198 32.4373 15.9375V18.75H30.5622V15.9375C30.5622 15.4198 30.1424 15 29.6247 15C29.107 15 28.6872 15.4198 28.6872 15.9375V18.75H27.2817C26.764 18.75 26.3442 19.1698 26.3442 19.6875C26.3442 20.2052 26.764 20.625 27.2817 20.625H38.0626V21.5625C38.0626 22.0794 37.642 22.5 37.1251 22.5Z" fill="black"/>
<path d="M30.5626 7.03223C30.5626 5.22295 29.0906 3.75098 27.2813 3.75098H18.8438C17.0345 3.75098 15.5625 5.22295 15.5625 7.03232C15.5625 8.8416 17.0345 10.3136 18.8438 10.3136H27.2813C29.0906 10.3136 30.5626 8.8416 30.5626 7.03223ZM17.4375 7.03223C17.4375 6.25682 18.0683 5.62598 18.8438 5.62598H27.2813C28.0568 5.62598 28.6876 6.25682 28.6876 7.03232C28.6876 7.80782 28.0568 8.43857 27.2813 8.43857H18.8438C18.0683 8.43857 17.4375 7.80763 17.4375 7.03223Z" fill="black"/>
<path d="M23.0628 18.75H23.0621C22.5444 18.75 22.125 19.1698 22.125 19.6875C22.125 20.2052 22.545 20.625 23.0628 20.625C23.5806 20.625 24.0003 20.2052 24.0003 19.6875C24.0003 19.1698 23.5805 18.75 23.0628 18.75Z" fill="black"/>
</g>
<defs>
<clipPath id="clip70">
<rect width="48" height="48" fill="white"/>
</clipPath>
</defs>
</svg>
