<svg width="48" height="48" viewBox="0 0 48 48" fill="none" xmlns="http://www.w3.org/2000/svg">
<path d="M25.3743 6.399L24.5903 6.047L10.7663 5.32699C10.2595 5.32059 9.75651 5.41542 9.28683 5.60593C8.81715 5.79644 8.39023 6.07879 8.0311 6.43644C7.67196 6.79408 7.38783 7.21982 7.19537 7.68871C7.00291 8.15759 6.90599 8.66017 6.91029 9.167L7.56629 22.975L7.91829 23.759L27.3583 43.199H29.0543L44.7983 27.455V25.759L25.3743 6.399ZM28.2063 40.719L9.95029 22.399L9.31029 9.119C9.31435 8.75383 9.46013 8.40452 9.71686 8.1448C9.97359 7.88508 10.3212 7.73527 10.6863 7.727L23.9983 8.367L42.2543 26.607L28.2063 40.719Z" fill="#303030"/>
<path d="M15.6941 14.0952C15.0839 14.7032 14.6679 15.4786 14.4988 16.3232C14.3296 17.1679 14.415 18.0437 14.7439 18.8398C15.0729 19.6359 15.6306 20.3165 16.3467 20.7953C17.0627 21.2742 17.9047 21.5298 18.7661 21.5298C19.6274 21.5298 20.4695 21.2742 21.1855 20.7953C21.9015 20.3165 22.4593 19.6359 22.7882 18.8398C23.1172 18.0437 23.2025 17.1679 23.0333 16.3232C22.8642 15.4786 22.4482 14.7032 21.8381 14.0952C21.0106 13.3049 19.9103 12.8639 18.7661 12.8639C17.6218 12.8639 16.5216 13.3049 15.6941 14.0952ZM20.7021 19.1032C20.3174 19.4886 19.8271 19.7512 19.2931 19.8579C18.7591 19.9645 18.2055 19.9103 17.7023 19.7022C17.1991 19.4941 16.769 19.1414 16.4663 18.6887C16.1637 18.236 16.0022 17.7037 16.0022 17.1592C16.0022 16.6146 16.1637 16.0823 16.4663 15.6297C16.769 15.177 17.1991 14.8242 17.7023 14.6161C18.2055 14.408 18.7591 14.3538 19.2931 14.4604C19.8271 14.5671 20.3174 14.8297 20.7021 15.2152C20.9605 15.4699 21.166 15.7732 21.3067 16.1076C21.4475 16.442 21.5207 16.801 21.5222 17.1638C21.5237 17.5267 21.4534 17.8862 21.3154 18.2218C21.1774 18.5574 20.9744 18.8623 20.7181 19.1192L20.7021 19.1032Z" fill="#303030"/>
</svg>
