<svg width="48" height="48" viewBox="0 0 48 48" fill="none" xmlns="http://www.w3.org/2000/svg">
<path d="M45.1989 38.9988H42.7943C43.6536 37.7741 43.8244 36.1225 43.2705 34.3327L43.1552 33.96H43.3127C45.8972 33.96 48 31.8572 48 29.2727C48 26.688 45.8972 24.5852 43.3127 24.5852H40.8558L41.9877 21.1265C42.0811 20.8408 42.0321 20.5279 41.8557 20.2846C41.6794 20.0414 41.3972 19.8973 41.0967 19.8973H26.0972C25.7968 19.8973 25.5146 20.0414 25.3382 20.2846C25.1619 20.5278 25.1129 20.8409 25.2062 21.1264L26.6474 25.5311L23.9234 34.3327C23.3695 36.1223 23.5403 37.7741 24.3998 38.9988H18.9372V14.6238C18.9373 14.1069 19.3578 13.6865 19.8748 13.6865H22.7052L24.321 16.9185C24.4798 17.2361 24.8044 17.4367 25.1595 17.4367H42.0337C42.3887 17.4367 42.7134 17.2362 42.8723 16.9185L44.4885 13.6865H45.1988C46.7433 13.6865 47.9997 12.4301 47.9997 10.8859V5.23749C47.9997 3.69296 46.7433 2.43652 45.1988 2.43652H2.80078C1.25644 2.43662 0 3.69296 0 5.23749V39.9363V44.6241C0 45.1419 0.419718 45.5616 0.937498 45.5616H47.0624C47.5801 45.5616 47.9999 45.1419 47.9999 44.6241V41.7997C47.9999 40.2552 46.7435 38.9988 45.1989 38.9988ZM43.3126 26.4603C44.8633 26.4603 46.1249 27.7219 46.1249 29.2728C46.1249 30.8235 44.8633 32.0851 43.3126 32.0851H42.5749L41.8659 29.7946C41.864 29.7884 41.862 29.7819 41.86 29.7758L40.8339 26.4603H43.3126ZM39.8034 21.7724L38.8827 24.5853H28.3108L27.3905 21.7724H39.8034ZM28.3227 26.4603H38.8712L39.7278 29.2281C37.8281 29.5406 36.8279 30.5338 35.9981 31.3592C35.193 32.1597 34.5573 32.792 33.1864 32.9452C32.0708 33.0701 31.5377 32.6067 30.8006 31.9653C29.952 31.2272 28.9386 30.3473 27.0673 30.5168L28.3227 26.4603ZM25.7145 34.8872L26.444 32.5302C28.0829 32.0878 28.718 32.639 29.5698 33.3801C30.3264 34.0383 31.2493 34.8411 32.8307 34.8411C33.01 34.8411 33.1978 34.8308 33.3947 34.8088C35.4157 34.5829 36.4275 33.5765 37.3201 32.6888C38.1441 31.8695 38.8166 31.2008 40.2886 31.0403L40.987 33.2963C40.9879 33.2994 40.9889 33.3027 40.9899 33.3061L41.4793 34.887C41.8703 36.1503 41.784 37.215 41.2301 37.9661C40.7462 38.6225 39.9054 38.9989 38.9234 38.9989H28.2702C27.2883 38.9988 26.4475 38.6224 25.9637 37.9661C25.4097 37.2148 25.3236 36.1501 25.7145 34.8872ZM41.4545 15.5617H25.7391L24.8016 13.6865H42.3922L41.4545 15.5617ZM1.875 5.23749C1.875 4.72693 2.29031 4.31161 2.80078 4.31161H45.1989C45.7094 4.31161 46.1249 4.72693 46.1249 5.23758V10.886C46.1249 11.3963 45.7094 11.8116 45.1989 11.8116H19.8748C18.3239 11.8116 17.0623 13.0732 17.0623 14.6239V38.9989H1.875V5.23749ZM46.1249 43.6866H1.875V40.8738H28.2702H38.9234H45.1989C45.7094 40.8738 46.1249 41.2893 46.1249 41.7997V43.6866Z" fill="black"/>
<path d="M10.807 31.2762H5.36328C4.84569 31.2762 4.42578 31.6962 4.42578 32.2137C4.42578 32.7315 4.84569 33.1512 5.36328 33.1512H10.807C11.3247 33.1512 11.7445 32.7315 11.7445 32.2137C11.7445 31.6962 11.3247 31.2762 10.807 31.2762Z" fill="black"/>
<path d="M13.5758 31.2762H13.5312C13.0137 31.2762 12.5938 31.6962 12.5938 32.2137C12.5938 32.7315 13.0137 33.1512 13.5312 33.1512H13.5758C14.0934 33.1512 14.5133 32.7315 14.5133 32.2137C14.5133 31.6962 14.0934 31.2762 13.5758 31.2762Z" fill="black"/>
<path d="M13.5783 27.5283H5.36328C4.84569 27.5283 4.42578 27.948 4.42578 28.4658C4.42578 28.9834 4.84569 29.4033 5.36328 29.4033H13.5783C14.0959 29.4033 14.5158 28.9834 14.5158 28.4658C14.5158 27.948 14.0959 27.5283 13.5783 27.5283Z" fill="black"/>
<path d="M13.5783 23.7762H5.36328C4.84569 23.7762 4.42578 24.196 4.42578 24.7137C4.42578 25.2314 4.84569 25.6512 5.36328 25.6512H13.5783C14.0959 25.6512 14.5158 25.2314 14.5158 24.7137C14.5158 24.1961 14.0959 23.7762 13.5783 23.7762Z" fill="black"/>
<path d="M13.5783 11.8125H5.36328C4.84569 11.8125 4.42578 12.2322 4.42578 12.75V20.965C4.42578 21.4826 4.84569 21.9025 5.36328 21.9025H13.5783C14.0959 21.9025 14.5158 21.4826 14.5158 20.965V12.75C14.5158 12.2322 14.0959 11.8125 13.5783 11.8125ZM12.6408 20.0274H6.30078V13.6875H12.6408V20.0274Z" fill="black"/>
<path d="M42.0333 8.06348H36.5898C36.0722 8.06348 35.6523 8.48319 35.6523 9.00097C35.6523 9.51857 36.0722 9.93847 36.5898 9.93847H42.0333C42.5511 9.93847 42.9708 9.51857 42.9708 9.00097C42.9708 8.48319 42.5511 8.06348 42.0333 8.06348Z" fill="black"/>
<path d="M33.865 8.06348H33.8203C33.3025 8.06348 32.8828 8.48319 32.8828 9.00097C32.8828 9.51857 33.3025 9.93847 33.8203 9.93847H33.865C34.3827 9.93847 34.8025 9.51857 34.8025 9.00097C34.8025 8.48319 34.3827 8.06348 33.865 8.06348Z" fill="black"/>
</svg>
