<svg width="32" height="32" viewBox="0 0 32 32" fill="none" xmlns="http://www.w3.org/2000/svg">
<path d="M16.0013 2.66797C23.3651 2.66797 29.3346 8.63751 29.3346 16.0013C29.3346 23.3651 23.3651 29.3346 16.0013 29.3346C13.8436 29.3346 11.7584 28.8207 9.88511 27.852L4.78402 29.2751C3.89747 29.5227 2.97808 29.0046 2.73051 28.1181C2.64859 27.8247 2.64863 27.5145 2.73057 27.2214L4.15412 22.1243C3.18312 20.2493 2.66797 18.1617 2.66797 16.0013C2.66797 8.63751 8.63751 2.66797 16.0013 2.66797ZM16.0013 4.66797C9.74207 4.66797 4.66797 9.74207 4.66797 16.0013C4.66797 17.9608 5.165 19.8458 6.09868 21.5179L6.29954 21.8776L4.81591 27.1898L10.1314 25.7069L10.4908 25.9073C12.1614 26.8388 14.0442 27.3346 16.0013 27.3346C22.2605 27.3346 27.3346 22.2605 27.3346 16.0013C27.3346 9.74207 22.2605 4.66797 16.0013 4.66797ZM11.668 17.3346H17.6657C18.2179 17.3346 18.6657 17.7824 18.6657 18.3346C18.6657 18.8409 18.2894 19.2593 17.8013 19.3255L17.6657 19.3346H11.668C11.1157 19.3346 10.668 18.8869 10.668 18.3346C10.668 17.8284 11.0442 17.41 11.5323 17.3438L11.668 17.3346H17.6657H11.668ZM11.668 12.668H20.3406C20.8929 12.668 21.3406 13.1157 21.3406 13.668C21.3406 14.1742 20.9644 14.5926 20.4763 14.6588L20.3406 14.668H11.668C11.1157 14.668 10.668 14.2203 10.668 13.668C10.668 13.1617 11.0442 12.7433 11.5323 12.6771L11.668 12.668H20.3406H11.668Z" fill="#303030"/>
</svg>
