<svg xmlns="http://www.w3.org/2000/svg" viewBox="0 0 32 32"><path d="M16,2.33a4.34,4.34,0,0,1,4.33,4.09v.25h7a1,1,0,0,1,1,1,1,1,0,0,1-.86,1h-1.2L24.57,26a3.69,3.69,0,0,1-3.42,3.3H11.09a3.66,3.66,0,0,1-3.62-3.07l0-.23L5.73,8.67H4.67a1,1,0,0,1-1-.87V7.67a1,1,0,0,1,.86-1h7.14A4.33,4.33,0,0,1,16,2.33Zm8.26,6.34H7.74L9.43,25.83a1.64,1.64,0,0,0,1.49,1.49h10A1.65,1.65,0,0,0,22.55,26l0-.17Zm-5.93,3.66a1,1,0,0,1,1,.87v9.47a1,1,0,0,1-1,1,1,1,0,0,1-1-.87V13.33A1,1,0,0,1,18.33,12.33Zm-4.66,0a1,1,0,0,1,1,.87v9.47a1,1,0,0,1-2,.13V13.33A1,1,0,0,1,13.67,12.33Zm2.33-8a2.33,2.33,0,0,0-2.32,2.14v.2h4.66A2.33,2.33,0,0,0,16,4.33Z" fill="currentColor"/></svg>