<svg width="24" height="24" viewBox="0 0 24 24" xmlns="http://www.w3.org/2000/svg">
<path d="M4.8 15.3158L9.8508 15.3158L8.8401 18.5056C8.6583 19.0816 8.7501 19.7201 9.0876 20.2127C9.4251 20.7054 9.9723 21 10.5492 21L12 21C12.2673 21 12.5202 20.8749 12.6921 20.6589L16.9221 15.3158L19.2 15.3158C20.1927 15.3158 21 14.466 21 13.4211L21 4.89474C21 3.84979 20.1927 3 19.2 3L7.2237 3C6.8575 3.00128 6.5003 3.11952 6.19931 3.33908C5.89832 3.55865 5.66772 3.8692 5.538 4.22968L3.0567 11.1938C3.01903 11.3002 2.99982 11.4128 3 11.5263L3 13.4211C3 14.466 3.8073 15.3158 4.8 15.3158ZM19.2 13.4211L17.4 13.4211L17.4 4.89474L19.2 4.89474L19.2 13.4211ZM4.8 11.6978L7.2237 4.89474L15.6 4.89474L15.6 14.0255L11.5788 19.1053L10.5474 19.1053L11.9532 14.6687C11.9988 14.5263 12.0116 14.3745 11.9903 14.2259C11.9691 14.0773 11.9145 13.9361 11.8311 13.8142C11.7477 13.6922 11.6379 13.5929 11.5107 13.5245C11.3836 13.4562 11.2428 13.4207 11.1 13.4211L4.8 13.4211L4.8 11.6978Z" fill="currentColor"/>
</svg>
