<svg width="24" height="24" viewBox="0 0 24 24" xmlns="http://www.w3.org/2000/svg">
<path d="M21.0312 2.96997C22.4286 4.36743 22.4286 6.63317 21.0312 8.03063L9.06283 19.999C8.78596 20.2758 8.44162 20.4757 8.06386 20.5787L2.94817 21.9739C2.38829 22.1266 1.87456 21.6128 2.02726 21.053L3.42244 15.9373C3.52547 15.5595 3.7253 15.2152 4.00217 14.9383L15.9705 2.96997C17.368 1.57251 19.6337 1.57251 21.0312 2.96997ZM15.001 6.06088L5.06283 15.999C4.97054 16.0913 4.90393 16.206 4.86959 16.332L3.81974 20.1814L7.66918 19.1315C7.7951 19.0972 7.90988 19.0306 8.00217 18.9383L17.94 8.99988L15.001 6.06088ZM17.0312 4.03063L16.061 4.99988L19 7.93988L19.9705 6.96997C20.7822 6.1583 20.7822 4.84231 19.9705 4.03063C19.1588 3.21896 17.8428 3.21896 17.0312 4.03063Z" fill="currentColor"/>
</svg>
