<svg xmlns="http://www.w3.org/2000/svg" viewBox="0 0 32 32"><path d="M15.79,4A3.32,3.32,0,0,1,19,7.35V25.13a3.25,3.25,0,1,1-6.5,0V7.35A3.31,3.31,0,0,1,15.79,4Z" stroke="currentColor" stroke-miterlimit="10" stroke-width="2"/><path d="M25.66,9.57A3.43,3.43,0,0,1,29.09,13V24.86a3.44,3.44,0,1,1-6.87,0V13A3.43,3.43,0,0,1,25.66,9.57Z" stroke="currentColor" stroke-miterlimit="10" stroke-width="2"/><path d="M6,16.24a3.3,3.3,0,0,1,3.3,3.3v5.38a3.3,3.3,0,1,1-6.59,0V19.54A3.29,3.29,0,0,1,6,16.24Z" stroke="currentColor" stroke-miterlimit="10" stroke-width="2"/></svg>