<svg width="16" height="16" viewBox="0 0 16 16" fill="none" xmlns="http://www.w3.org/2000/svg">
<path d="M9 10.6667C9.27614 10.6667 9.5 10.8905 9.5 11.1667C9.5 11.4428 9.27614 11.6667 9 11.6667H7C6.72386 11.6667 6.5 11.4428 6.5 11.1667C6.5 10.8905 6.72386 10.6667 7 10.6667H9ZM11 7.33333C11.2761 7.33333 11.5 7.55719 11.5 7.83333C11.5 8.10948 11.2761 8.33333 11 8.33333H5C4.72386 8.33333 4.5 8.10948 4.5 7.83333C4.5 7.55719 4.72386 7.33333 5 7.33333H11ZM13 4C13.2761 4 13.5 4.22386 13.5 4.5C13.5 4.77614 13.2761 5 13 5H3C2.72386 5 2.5 4.77614 2.5 4.5C2.5 4.22386 2.72386 4 3 4H13Z" fill="#212121"/>
</svg>
