<svg width="40" height="40" viewBox="0 0 40 40" xmlns="http://www.w3.org/2000/svg">
<circle cx="20" cy="20" r="19.5" stroke="currentColor" fill="none"/>
<path d="M28.8877 19.1081C28.8807 18.4753 28.8784 17.8378 28.876 17.2026H26.9823C26.9752 17.8355 26.9705 18.4706 26.9659 19.1081C26.3284 19.1105 25.6955 19.1151 25.0627 19.1222V21.0183C25.6955 21.0253 26.333 21.03 26.9659 21.037C26.9729 21.6698 26.9729 22.305 26.9776 22.9378H28.8737C28.876 22.305 28.8807 21.6698 28.8854 21.0323C29.5229 21.0253 30.1557 21.023 30.7885 21.0159V19.1198C30.158 19.1151 29.5205 19.1151 28.8877 19.1081ZM16.4659 19.1175C16.4635 19.8745 16.4659 20.6339 16.4682 21.3909C17.7385 21.4331 19.0112 21.4144 20.2815 21.4331C19.7213 24.2526 15.8893 25.1667 13.862 23.3245C11.776 21.7097 11.8745 18.1683 14.0424 16.6683C15.5588 15.4589 17.7127 15.7566 19.2291 16.8042C19.8245 16.2534 20.3823 15.6628 20.919 15.0534C19.658 14.048 18.1112 13.3308 16.4659 13.4058C13.0299 13.2909 9.87289 16.3003 9.81664 19.7386C9.59633 22.5487 11.4432 25.3026 14.0495 26.2964C16.6463 27.2972 19.9768 26.6151 21.6362 24.2808C22.7307 22.8066 22.9674 20.9081 22.8385 19.1245C20.7127 19.1081 18.5893 19.1105 16.4659 19.1175Z"/>
</svg>
