<svg width="24" height="24" viewBox="0 0 24 24" fill="none" xmlns="http://www.w3.org/2000/svg">
<g clip-path="url(#clip52)">
<path fill-rule="evenodd" clip-rule="evenodd" d="M22.9232 7.03621C20.1806 1.00379 13.067 -1.66394 7.03462 1.07868C4.39434 2.27904 2.27825 4.39518 1.07784 7.03546C0.366026 8.59387 -0.000929473 10.2876 0.00197018 12.0009V15.758C7.04059e-05 16.5009 0.295435 17.2136 0.822271 17.7374L2.43888 19.3544L2.65845 19.9599C3.33602 21.756 5.06981 22.9319 6.98913 22.8971C7.04104 22.8971 7.09341 22.8932 7.14587 22.8892C7.17828 22.8867 7.21071 22.8843 7.2431 22.8827L7.26309 22.9379C7.56546 23.7735 8.488 24.2058 9.32359 23.9035L9.38924 23.8799C10.2246 23.5787 10.6576 22.6574 10.3564 21.8221L7.1883 13.0628C6.88364 12.2288 5.96265 11.7974 5.12695 12.0973L5.06216 12.1209C4.3521 12.3747 3.91565 13.0899 4.01469 13.8375C3.32682 14.3383 2.78503 15.0136 2.44528 15.7937C2.41788 15.74 2.40298 15.6808 2.40168 15.6205V12.0009C2.40168 6.6996 6.69921 2.40207 12.0005 2.40207C17.3018 2.40207 21.5994 6.6996 21.5994 12.0009V15.6205C21.597 15.6489 21.5913 15.6769 21.5826 15.7041C21.24 14.9613 20.7131 14.3184 20.0519 13.8367C20.1507 13.0896 19.7147 12.375 19.0053 12.1209L18.9389 12.0969C18.1038 11.7974 17.1837 12.2289 16.8799 13.0624L13.7115 21.8213C13.4101 22.6565 13.8426 23.5779 14.6778 23.8795L14.7434 23.9035C15.5791 24.2049 16.501 23.7727 16.8039 22.9376L16.8239 22.8824C16.856 22.8839 16.8883 22.8864 16.9206 22.8888C16.9732 22.8928 17.0259 22.8968 17.0779 22.8968C18.9971 22.9316 20.7309 21.7559 21.4086 19.9599L21.665 19.2512L23.1788 17.737C23.7055 17.2134 24.0009 16.5008 23.9991 15.7581V12.0009C24.0019 10.2878 23.6349 8.59442 22.9232 7.03621ZM4.87618 13.2895C4.96667 13.0947 5.1317 12.9445 5.33413 12.8728L5.39892 12.8492C5.81937 12.697 6.28361 12.9143 6.43599 13.3347L9.60401 22.0936C9.75529 22.5127 9.53822 22.975 9.11917 23.1263L9.11807 23.1267L9.05248 23.1503C8.63218 23.3017 8.16853 23.0846 8.0158 22.6648L7.89582 22.33L4.84819 13.9042C4.77519 13.7038 4.78524 13.4825 4.87618 13.2895ZM4.26586 14.6509V14.6493L6.96113 22.0972C5.51226 22.1139 4.18207 21.2986 3.53954 19.9998H3.56994H3.60154C3.62777 19.9998 3.65228 19.9966 3.67676 19.9933C3.68961 19.9916 3.70245 19.9899 3.71552 19.9886C3.72903 19.9874 3.74123 19.9865 3.75281 19.9858C3.7738 19.9843 3.79278 19.9831 3.81391 19.9794C3.8663 19.9694 3.918 19.9561 3.96869 19.9394C3.97939 19.9362 3.99009 19.9334 4.00075 19.9305C4.01877 19.9258 4.03669 19.921 4.05428 19.9143C4.10792 19.8921 4.15992 19.8662 4.20986 19.8367C4.21939 19.8313 4.22912 19.8266 4.23884 19.8218C4.25317 19.8149 4.26747 19.8079 4.28105 19.7991C4.85888 19.4263 5.02516 18.6558 4.65246 18.0779C4.60401 18.0028 4.54762 17.9331 4.48423 17.8701L3.0512 16.4359C3.28172 15.7393 3.70247 15.121 4.26586 14.6509ZM1.60178 12.0009V15.6204C1.60088 15.9388 1.72746 16.2443 1.95333 16.4687L3.9187 18.4345C4.09388 18.6097 4.09388 18.8936 3.9187 19.0688C3.74352 19.244 3.45955 19.244 3.28437 19.0688L1.3878 17.1714C1.0115 16.7975 0.800524 16.2885 0.801874 15.758V12.0009C0.799274 10.4883 1.10574 8.99122 1.70256 7.60139L2.08172 6.80149C4.95292 1.32345 11.7213 -0.789794 17.1993 2.08141C19.2158 3.13838 20.8624 4.78488 21.9193 6.80144L22.2985 7.60139C22.8953 8.99122 23.2018 10.4883 23.1992 12.0009V15.758C23.2005 16.2886 22.9895 16.7977 22.6132 17.1718L21.037 18.7484L20.7171 19.0684C20.5419 19.2436 20.2579 19.2436 20.0827 19.0684C19.9076 18.8932 19.9076 18.6093 20.0827 18.4341L22.0481 16.4683C22.2736 16.2438 22.4 15.9386 22.3993 15.6204V12.0009C22.3989 10.4808 22.0661 8.97923 21.4242 7.60139L21.007 6.80144C19.1485 3.58463 15.7157 1.60292 12.0005 1.60212C8.28537 1.60292 4.85258 3.58468 2.99401 6.80149L2.57686 7.60139C1.93499 8.97923 1.60218 10.4808 1.60178 12.0009ZM16.6068 21.1309L16.1728 22.3308L16.0528 22.6655C15.9007 23.0861 15.4363 23.3037 15.0157 23.1516L14.9498 23.1275C14.5302 22.9764 14.3125 22.5139 14.4634 22.0944L17.6318 13.3354C17.7836 12.9154 18.2471 12.6978 18.6672 12.8496L18.6681 12.8499L18.7345 12.8739C19.1538 13.0246 19.3715 13.4866 19.2208 13.9059L19.2204 13.907L16.6068 21.1309ZM17.1079 22.0972L18.8753 17.2102L19.8012 14.6505C20.3512 15.1095 20.766 15.7096 21.001 16.3863L19.5188 17.8689C19.0322 18.3567 19.0322 19.1464 19.5188 19.6343C19.583 19.6978 19.6539 19.7542 19.7304 19.8023C19.7478 19.8133 19.7657 19.8219 19.7837 19.8305C19.7918 19.8343 19.7999 19.8382 19.808 19.8423C19.8595 19.8711 19.9129 19.8962 19.968 19.9175C19.9926 19.9266 20.0175 19.9333 20.0426 19.94L20.0627 19.9454C20.1142 19.9606 20.1665 19.9725 20.2195 19.981C20.2535 19.9858 20.2871 19.9882 20.3211 19.9906C20.3352 19.9906 20.349 19.9927 20.3626 19.9948C20.3757 19.9967 20.3885 19.9986 20.4011 19.9986C20.4161 19.9986 20.4302 19.9967 20.4441 19.9948C20.454 19.9935 20.4638 19.9921 20.4739 19.9914C20.4857 19.9907 20.4954 19.9912 20.5043 19.9917C20.5139 19.9922 20.5226 19.9927 20.5319 19.9914C19.8916 21.2944 18.5596 22.1135 17.1079 22.0972Z" fill="currentColor"/>
</g>
<defs>
<clipPath id="clip52">
<rect width="24" height="24" fill="white"/>
</clipPath>
</defs>
</svg>
