<svg width="24" height="24" viewBox="0 0 24 24" fill="none" xmlns="http://www.w3.org/2000/svg">
<path d="M12.0016 1.99902C17.5253 1.99902 22.0031 6.47687 22.0031 12.0006C22.0031 17.5243 17.5253 22.0021 12.0016 22.0021C6.47785 22.0021 2 17.5243 2 12.0006C2 6.47687 6.47785 1.99902 12.0016 1.99902ZM12.0016 3.49902C7.30627 3.49902 3.5 7.3053 3.5 12.0006C3.5 16.6959 7.30627 20.5021 12.0016 20.5021C16.6968 20.5021 20.5031 16.6959 20.5031 12.0006C20.5031 7.3053 16.6968 3.49902 12.0016 3.49902ZM11.9979 10.4996C12.3776 10.4994 12.6916 10.7813 12.7415 11.1473L12.7484 11.2491L12.752 16.7507C12.7523 17.1649 12.4167 17.5009 12.0025 17.5012C11.6228 17.5014 11.3088 17.2195 11.2589 16.8535L11.252 16.7517L11.2484 11.2501C11.2481 10.8359 11.5837 10.4999 11.9979 10.4996ZM12.002 7.00184C12.5535 7.00184 13.0007 7.44896 13.0007 8.0005C13.0007 8.55205 12.5535 8.99917 12.002 8.99917C11.4505 8.99917 11.0033 8.55205 11.0033 8.0005C11.0033 7.44896 11.4505 7.00184 12.002 7.00184Z" fill="currentColor"/>
</svg>
