<svg width="48" height="48" viewBox="0 0 48 48" fill="none" xmlns="http://www.w3.org/2000/svg">
<g clip-path="url(#clip72)">
<path d="M36.9884 0H11.0135C8.78327 0 6.96875 1.81452 6.96875 4.04479V43.9553C6.96875 46.1856 8.78327 48.0001 11.0135 48.0001H36.9886C39.2188 48.0001 41.0334 46.1856 41.0334 43.9551V4.04479C41.0333 1.81452 39.2187 0 36.9884 0ZM39.4847 43.9552C39.4847 45.3315 38.365 46.4517 36.9882 46.4517H11.0135C9.63677 46.4517 8.5171 45.3316 8.5171 43.9551V4.04479C8.5171 2.66848 9.63677 1.54835 11.0135 1.54835H36.9886C38.3653 1.54835 39.485 2.66836 39.4848 4.04479V43.9552H39.4847Z" fill="black"/>
<path d="M40.2591 5.42102H7.74298C7.3151 5.42102 6.96875 5.76771 6.96875 6.19525V39.4855C6.96875 39.9131 7.31498 40.2598 7.74298 40.2598H40.2591C40.687 40.2598 41.0334 39.9131 41.0334 39.4855V6.19514C41.0333 5.76759 40.687 5.42102 40.2591 5.42102ZM39.4849 38.7113H8.5171V6.96937H39.4849V38.7113Z" fill="black"/>
<path d="M15.2585 8.74373C14.9561 8.44138 14.4661 8.44138 14.1638 8.74373L10.6799 12.2276C10.3775 12.5299 10.3775 13.02 10.6799 13.3223C10.8311 13.4735 11.0293 13.5491 11.2272 13.5491C11.4252 13.5491 11.6234 13.4735 11.7745 13.3223L15.2584 9.83845C15.5608 9.5361 15.5608 9.04596 15.2585 8.74373Z" fill="black"/>
<path d="M18.3556 8.74373C18.0533 8.44138 17.5633 8.44138 17.2609 8.74373L10.2932 15.7115C9.99082 16.0138 9.99082 16.5039 10.2932 16.8062C10.4443 16.9574 10.6426 17.033 10.8405 17.033C11.0384 17.033 11.2367 16.9574 11.3878 16.8062L18.3555 9.83845C18.658 9.5361 18.658 9.04596 18.3556 8.74373Z" fill="black"/>
<path d="M23.9984 41.0327C22.7177 41.0327 21.6758 42.0746 21.6758 43.3553C21.6758 44.636 22.7177 45.6779 23.9984 45.6779C25.2791 45.6779 26.321 44.636 26.321 43.3553C26.321 42.0746 25.2791 41.0327 23.9984 41.0327ZM23.9984 44.1295C23.5712 44.1295 23.2241 43.7822 23.2241 43.3553C23.2241 42.9284 23.5712 42.5811 23.9984 42.5811C24.4256 42.5811 24.7726 42.9284 24.7726 43.3553C24.7726 43.7822 24.4255 44.1295 23.9984 44.1295Z" fill="black"/>
</g>
<defs>
<clipPath id="clip72">
<rect width="48" height="48" fill="white"/>
</clipPath>
</defs>
</svg>
