<svg width="48" height="48" viewBox="0 0 48 48" fill="none" xmlns="http://www.w3.org/2000/svg">
<path d="M33 0.75H15C14.0058 0.751117 13.0526 1.14656 12.3496 1.84958C11.6466 2.5526 11.2511 3.50578 11.25 4.5V43.5C11.2511 44.4942 11.6466 45.4474 12.3496 46.1504C13.0526 46.8534 14.0058 47.2489 15 47.25H33C33.9942 47.2489 34.9474 46.8534 35.6504 46.1504C36.3534 45.4474 36.7489 44.4942 36.75 43.5V4.5C36.7489 3.50578 36.3534 2.5526 35.6504 1.84958C34.9474 1.14656 33.9942 0.751117 33 0.75ZM29.0852 2.25L28.6352 4.5H19.3649L18.9149 2.25H29.0852ZM35.25 43.5C35.2493 44.0965 35.0121 44.6684 34.5903 45.0903C34.1684 45.5121 33.5965 45.7493 33 45.75H15C14.4035 45.7493 13.8316 45.5121 13.4097 45.0903C12.9879 44.6684 12.7507 44.0965 12.75 43.5V4.5C12.7507 3.90347 12.9879 3.33156 13.4097 2.90975C13.8316 2.48794 14.4035 2.25067 15 2.25H17.3851L18.0145 5.39709C18.0485 5.56711 18.1404 5.7201 18.2745 5.83002C18.4086 5.93994 18.5766 6.00001 18.75 6H29.25C29.4234 6.00001 29.5914 5.93994 29.7255 5.83002C29.8596 5.7201 29.9515 5.56711 29.9855 5.39709L30.6149 2.25H33C33.5965 2.25067 34.1684 2.48794 34.5903 2.90975C35.0121 3.33156 35.2493 3.90347 35.25 4.5V43.5Z" fill="black"/>
<path d="M26.25 42.75H21.75C21.5511 42.75 21.3603 42.829 21.2197 42.9697C21.079 43.1103 21 43.3011 21 43.5C21 43.6989 21.079 43.8897 21.2197 44.0303C21.3603 44.171 21.5511 44.25 21.75 44.25H26.25C26.4489 44.25 26.6397 44.171 26.7803 44.0303C26.921 43.8897 27 43.6989 27 43.5C27 43.3011 26.921 43.1103 26.7803 42.9697C26.6397 42.829 26.4489 42.75 26.25 42.75Z" fill="black"/>
</svg>
