<svg width="18" height="18" viewBox="0 0 18 18" xmlns="http://www.w3.org/2000/svg">
<path d="M14.4 6.51316L10.6119 6.51316L11.3699 4.12082C11.5063 3.68882 11.4374 3.20992 11.1843 2.84045C10.9312 2.47097 10.5208 2.25 10.0881 2.25H9C8.79953 2.25 8.60985 2.34379 8.48093 2.50579L5.30843 6.51316H3.6C2.85548 6.51316 2.25 7.1505 2.25 7.93421L2.25 14.3289C2.25 15.1127 2.85548 15.75 3.6 15.75L12.5822 15.75C12.8569 15.749 13.1248 15.6604 13.3505 15.4957C13.5763 15.331 13.7492 15.0981 13.8465 14.8277L15.7075 9.60466C15.7357 9.52488 15.7501 9.4404 15.75 9.35526V7.93421C15.75 7.1505 15.1445 6.51316 14.4 6.51316ZM3.6 7.93421H4.95L4.95 14.3289H3.6L3.6 7.93421ZM14.4 9.22666L12.5822 14.3289L6.3 14.3289L6.3 7.4809L9.3159 3.67105H10.0895L9.0351 6.99845C9.00087 7.10525 8.99133 7.2191 9.00725 7.33057C9.02318 7.44203 9.06411 7.54789 9.12667 7.63937C9.18923 7.73085 9.2716 7.80532 9.36696 7.85659C9.46232 7.90787 9.56792 7.93448 9.675 7.93421L14.4 7.93421V9.22666Z" fill="currentColor"/>
</svg>
