<svg width="180" height="32" viewBox="0 0 180 32" fill="none" xmlns="http://www.w3.org/2000/svg">
<g clip-path="url(#clip15)">
<path d="M22.7253 25.0345H19.2584V15.9793C19.2584 13.8171 18.1282 12.5672 16.3439 12.5672C14.4391 12.5672 13.112 14.0233 13.112 16.2543V25.0345H9.61334V15.9793C9.61334 13.8171 8.47676 12.5672 6.69251 12.5672C4.78762 12.5672 3.4669 14.0233 3.4669 16.2543V25.0345H0V13.3609L3.32721 9.66128V11.6236C3.83614 10.9718 4.49263 10.446 5.24443 10.088C5.99622 9.72996 6.82256 9.54961 7.65765 9.56129C8.56062 9.5344 9.45356 9.75362 10.2379 10.1947C11.0223 10.6359 11.6675 11.2817 12.1024 12.061C12.6617 11.2685 13.4123 10.6252 14.2868 10.1889C15.1612 9.75257 16.1322 9.53691 17.1123 9.56129C20.5093 9.56129 22.7063 11.861 22.7063 15.6106L22.7253 25.0345Z" fill="currentColor"/>
<path d="M39.8621 22.7412C38.0028 24.4464 35.5587 25.3992 33.0172 25.4096C28.2741 25.4096 24.7056 21.9288 24.7056 17.5043C24.7038 16.4539 24.9141 15.4136 25.3242 14.4438C25.7344 13.4741 26.3362 12.5942 27.0947 11.8552C27.8532 11.1162 28.7533 10.5329 29.7428 10.1392C30.7322 9.74542 31.7913 9.54905 32.8585 9.56147C36.7699 9.56147 39.8431 12.1299 40.3066 16.2545L28.4328 20.0353C28.8688 20.8515 29.5308 21.5295 30.3421 21.9907C31.1535 22.4519 32.081 22.6775 33.0172 22.6412C35.1126 22.6412 36.9985 21.7601 38.7319 20.004L39.8621 22.7412ZM36.6873 14.5296C36.3368 13.8371 35.7912 13.2586 35.1157 12.863C34.4401 12.4674 33.6631 12.2715 32.8775 12.2987C32.2105 12.3076 31.5517 12.4458 30.9389 12.7054C30.3261 12.965 29.7712 13.3408 29.306 13.8114C28.8408 14.2821 28.4743 14.8383 28.2275 15.4483C27.9807 16.0584 27.8585 16.7103 27.8677 17.3668L36.6873 14.5296Z" fill="currentColor"/>
<path d="M57.7187 0.543701V25.0346H54.4233V22.9411C53.7898 23.7286 52.9799 24.3611 52.0568 24.7894C51.1338 25.2176 50.1225 25.4299 49.1023 25.4096C47.01 25.3653 45.0203 24.5088 43.5668 23.0268C42.1134 21.5448 41.3141 19.5575 41.343 17.498C41.2732 13.1797 44.9496 9.46143 49.1023 9.56141C50.059 9.55319 51.0065 9.74503 51.8822 10.1243C52.7579 10.5035 53.5418 11.0614 54.182 11.7612V4.37451L57.7187 0.543701ZM49.6166 12.5673C48.624 12.5437 47.6468 12.8117 46.8096 13.337C45.9724 13.8623 45.3131 14.6212 44.916 15.5168C44.5188 16.4124 44.4018 17.4042 44.5797 18.3655C44.7577 19.3269 45.2226 20.2143 45.9151 20.9145C46.6076 21.6148 47.4964 22.0961 48.4681 22.2971C49.4397 22.4981 50.4502 22.4097 51.3706 22.0431C52.2909 21.6765 53.0795 21.0484 53.6356 20.2389C54.1918 19.4294 54.4903 18.4752 54.4931 17.498C54.5023 16.859 54.3835 16.2244 54.1433 15.6307C53.9032 15.0369 53.5464 14.4956 53.0935 14.0376C52.6406 13.5797 52.1004 13.2141 51.5038 12.9618C50.9072 12.7095 50.2659 12.5755 49.6166 12.5673V12.5673Z" fill="currentColor"/>
<path d="M62.8612 2.19357C63.2939 2.20462 63.7137 2.34082 64.0682 2.58517C64.4227 2.82952 64.6962 3.1712 64.8546 3.56757C65.013 3.96394 65.0493 4.39744 64.959 4.81399C64.8687 5.23054 64.6557 5.61168 64.3466 5.90985C64.0375 6.20802 63.6461 6.41002 63.2211 6.49064C62.7961 6.57126 62.3564 6.52693 61.9569 6.36318C61.5574 6.19943 61.2157 5.92352 60.9745 5.56987C60.7333 5.21621 60.6032 4.80049 60.6006 4.37457C60.5997 4.08419 60.6578 3.79658 60.7717 3.52869C60.8855 3.26079 61.0527 3.01805 61.2634 2.81477C61.4741 2.61149 61.7241 2.4518 61.9985 2.34511C62.2729 2.23842 62.5663 2.18689 62.8612 2.19357V2.19357ZM61.1467 13.361L64.6139 9.66146V25.0347H61.1531L61.1467 13.361Z" fill="currentColor"/>
<path d="M76.6021 25.0347L76.5005 24.0223C75.4281 24.9443 74.0446 25.439 72.6209 25.4096C71.8809 25.4279 71.1445 25.3009 70.4548 25.0361C69.7652 24.7713 69.136 24.374 68.604 23.8673C68.0721 23.3606 67.648 22.7547 67.3565 22.085C67.065 21.4152 66.9119 20.6951 66.9062 19.9665C66.9063 16.8918 69.4461 14.5296 72.7098 14.5296C74.0239 14.5158 75.301 14.9584 76.3164 15.7795V14.9983C76.3164 13.1235 75.3513 12.2236 72.9828 12.2236C71.7182 12.2535 70.4665 12.4813 69.2747 12.8985L69.7572 10.1614C70.9595 9.80269 72.2091 9.62157 73.4654 9.62392C77.4784 9.62392 79.6119 11.4112 79.6119 14.7608V22.1975L79.7452 25.0347H76.6021ZM73.3067 16.9981C72.7298 17.037 72.177 17.2407 71.716 17.5843C71.255 17.9278 70.9059 18.3963 70.7114 18.9322C70.5169 19.4682 70.4856 20.0483 70.6211 20.6016C70.7567 21.1548 71.0533 21.6571 71.4746 22.0469C71.8959 22.4367 72.4237 22.697 72.9931 22.796C73.5625 22.895 74.1489 22.8283 74.6804 22.6041C75.2119 22.38 75.6654 22.0081 75.9853 21.534C76.3052 21.06 76.4777 20.5043 76.4815 19.9352C76.47 19.5369 76.3787 19.1447 76.2127 18.7812C76.0467 18.4178 75.8094 18.0901 75.5144 17.8172C75.2194 17.5443 74.8725 17.3314 74.4936 17.1908C74.1147 17.0502 73.7113 16.9847 73.3067 16.9981V16.9981Z" fill="currentColor"/>
<path d="M82.1005 21.1849C83.3506 22.0825 84.8408 22.5996 86.3865 22.6722C87.7643 22.6722 88.6533 21.9598 88.6533 20.7974C88.6533 19.8538 88.0691 19.2788 86.2849 18.7039L85.6499 18.4977C83.2815 17.7228 81.9417 16.1355 81.9417 13.9732C81.9417 11.436 83.999 9.54871 86.9897 9.54871C88.5112 9.58121 90.0061 9.94848 91.3646 10.6236L90.8503 13.392C89.711 12.6987 88.4154 12.293 87.0786 12.2109C85.8404 12.2109 85.1737 12.8858 85.1737 13.8357C85.1737 14.6481 85.688 15.2168 87.231 15.7605L87.9167 15.998C90.5645 16.8416 91.9678 18.4289 91.9678 20.7287C91.9678 23.4971 89.8089 25.4219 86.6151 25.4219C84.8513 25.3676 83.1337 24.8544 81.637 23.9346L82.1005 21.1849Z" fill="currentColor"/>
<path d="M108.363 25.0346H104.896V16.2481C104.896 13.9484 103.626 12.5986 101.53 12.5986C99.4349 12.5986 97.8221 14.1484 97.8221 16.4794V25.0346H94.3552V4.37451L97.8221 0.543701V11.6549C98.3838 10.9743 99.0981 10.4311 99.9089 10.0679C100.72 9.70465 101.605 9.53129 102.495 9.56141C105.994 9.56141 108.363 11.9611 108.363 15.8482V25.0346Z" fill="currentColor"/>
<path d="M118.63 9.56123C120.212 9.6091 121.745 10.1144 123.037 11.0141C124.329 11.9138 125.323 13.1681 125.895 14.6204C126.468 16.0727 126.593 17.6586 126.255 19.1804C125.917 20.7022 125.131 22.0924 123.996 23.1775C122.86 24.2625 121.425 24.9945 119.87 25.2819C118.314 25.5694 116.707 25.3997 115.249 24.7939C113.791 24.1881 112.547 23.1731 111.671 21.8756C110.795 20.5781 110.327 19.0555 110.325 17.4978C110.33 16.4368 110.55 15.3873 110.972 14.4109C111.394 13.4346 112.01 12.5509 112.783 11.8118C113.557 11.0726 114.472 10.4929 115.476 10.1064C116.48 9.71995 117.553 9.53461 118.63 9.56123V9.56123ZM118.63 12.5671C117.976 12.5627 117.327 12.688 116.723 12.9354C116.119 13.1829 115.572 13.5476 115.114 14.0077C114.656 14.4678 114.296 15.0139 114.057 15.6135C113.818 16.2131 113.704 16.8539 113.722 17.4978C113.722 18.779 114.239 20.0077 115.16 20.9136C116.08 21.8196 117.329 22.3285 118.63 22.3285C119.932 22.3285 121.181 21.8196 122.101 20.9136C123.022 20.0077 123.539 18.779 123.539 17.4978C123.553 16.8549 123.437 16.2155 123.196 15.6175C122.956 15.0194 122.597 14.4747 122.14 14.0153C121.682 13.5559 121.136 13.1911 120.534 12.9424C119.931 12.6937 119.284 12.5661 118.63 12.5671V12.5671Z" fill="currentColor"/>
<path d="M137.724 25.4096C136.754 25.4177 135.794 25.223 134.906 24.8384C134.018 24.4538 133.224 23.888 132.575 23.1786V32.64H129.108V13.361L132.282 9.66141V12.1299C132.921 11.3143 133.744 10.6572 134.687 10.2112C135.63 9.76519 136.666 9.54266 137.711 9.56142C141.864 9.46143 145.572 13.1798 145.471 17.4668C145.501 19.5277 144.705 21.5174 143.255 23.0043C141.805 24.4913 139.818 25.3555 137.724 25.4096V25.4096ZM137.153 12.5673C136.162 12.5537 135.19 12.8302 134.359 13.3617C133.528 13.8932 132.877 14.6558 132.488 15.5524C132.098 16.4491 131.989 17.4394 132.172 18.3976C132.356 19.3557 132.825 20.2385 133.52 20.9337C134.215 21.6289 135.104 22.1052 136.074 22.302C137.045 22.4988 138.052 22.4073 138.97 22.0391C139.887 21.6709 140.673 21.0426 141.226 20.234C141.78 19.4254 142.077 18.4731 142.08 17.498C142.089 16.8548 141.969 16.2162 141.725 15.6192C141.482 15.0222 141.121 14.4786 140.662 14.02C140.204 13.5614 139.658 13.1969 139.055 12.9475C138.453 12.6981 137.806 12.5689 137.153 12.5673V12.5673Z" fill="currentColor"/>
<path d="M0 9.66131L8.21068 0.537354H0V9.66131Z" fill="currentColor"/>
<path d="M157.535 17.2668C161.141 13.1798 162.31 10.9175 162.31 8.31159C162.31 4.05582 158.843 0.949931 154.544 0.949931C153.547 0.927552 152.556 1.0997 151.627 1.45645C150.698 1.81319 149.851 2.34746 149.133 3.02841C148.415 3.70936 147.841 4.52351 147.445 5.42386C147.048 6.32421 146.837 7.29293 146.823 8.27409V8.38033H150.487V8.34283C150.483 7.81223 150.585 7.28604 150.788 6.79456C150.991 6.30307 151.291 5.856 151.671 5.47905C152.05 5.1021 152.502 4.80273 152.999 4.59816C153.497 4.39359 154.03 4.28786 154.57 4.28705C155.115 4.27828 155.656 4.37869 156.161 4.58218C156.666 4.78567 157.123 5.088 157.506 5.4708C157.888 5.8536 158.188 6.3089 158.386 6.80906C158.584 7.30921 158.677 7.84379 158.659 8.38033C158.659 10.1364 157.668 12.0612 154.951 15.342L146.791 25.0347H161.656L162.24 21.6913H153.827L157.535 17.2668Z" fill="currentColor"/>
<path d="M179.987 19.8351H177.155V25.0345H173.689V19.8351H161.726L177.155 -0.00012207V16.7605H180L179.987 19.8351ZM173.676 16.7605V9.56128L168.145 16.7605H173.676Z" fill="currentColor"/>
</g>
<defs>
<clipPath id="clip15">
<rect width="180" height="32" fill="currentColor"/>
</clipPath>
</defs>
</svg>
