<svg width="290" height="50" viewBox="0 0 290 50" fill="none" xmlns="http://www.w3.org/2000/svg">
<g clip-path="url(#clip12)">
<path d="M36.613 39.1164H31.0275V24.9676C31.0275 21.5891 29.2065 19.6362 26.3319 19.6362C23.2629 19.6362 21.1249 21.9113 21.1249 25.3973V39.1164H15.4882V24.9676C15.4882 21.5891 13.657 19.6362 10.7824 19.6362C7.71339 19.6362 5.58556 21.9113 5.58556 25.3973V39.1164H0V20.8763L5.3605 15.0957V18.1618C6.18044 17.1434 7.23813 16.3218 8.44935 15.7624C9.66058 15.203 10.9919 14.9212 12.3373 14.9395C13.7921 14.8975 15.2307 15.24 16.4944 15.9292C17.7581 16.6185 18.7976 17.6276 19.4983 18.8453C20.3994 17.607 21.6088 16.6019 23.0176 15.9201C24.4265 15.2384 25.9907 14.9014 27.5697 14.9395C33.0428 14.9395 36.5823 18.5328 36.5823 24.3915L36.613 39.1164Z" fill="#2A0D80"/>
<path d="M64.2226 35.5331C61.227 38.1975 57.2893 39.6863 53.1947 39.7026C45.553 39.7026 39.8037 34.2638 39.8037 27.3505C39.8009 25.7092 40.1397 24.0838 40.8005 22.5685C41.4612 21.0532 42.4308 19.6784 43.6528 18.5237C44.8749 17.3691 46.3251 16.4577 47.9192 15.8425C49.5133 15.2272 51.2196 14.9204 52.939 14.9398C59.2406 14.9398 64.1919 18.953 64.9387 25.3976L45.8087 31.3051C46.5111 32.5805 47.5777 33.6399 48.8848 34.3605C50.192 35.0811 51.6864 35.4335 53.1947 35.3769C56.5706 35.3769 59.6089 34.0001 62.4017 31.2563L64.2226 35.5331ZM59.1077 22.7026C58.5429 21.6206 57.6639 20.7165 56.5755 20.0984C55.4871 19.4803 54.2354 19.1742 52.9697 19.2167C51.8949 19.2307 50.8336 19.4466 49.8463 19.8522C48.8589 20.2577 47.965 20.845 47.2155 21.5804C46.466 22.3157 45.8755 23.1848 45.4779 24.138C45.0803 25.0912 44.8834 26.1098 44.8982 27.1357L59.1077 22.7026Z" fill="#2A0D80"/>
<path d="M92.9916 0.849411V39.1165H87.6822V35.8454C86.6617 37.0758 85.3568 38.0642 83.8696 38.7333C82.3825 39.4024 80.7533 39.734 79.1095 39.7024C75.7386 39.6331 72.533 38.2948 70.1913 35.9793C67.8497 33.6637 66.5618 30.5585 66.6085 27.3405C66.496 20.5932 72.4191 14.7834 79.1095 14.9396C80.6509 14.9267 82.1775 15.2265 83.5883 15.819C84.9992 16.4115 86.2621 17.2833 87.2935 18.3767V6.83505L92.9916 0.849411ZM79.9381 19.6363C78.339 19.5995 76.7646 20.0181 75.4157 20.839C74.0669 21.6598 73.0048 22.8455 72.365 24.2449C71.7251 25.6443 71.5365 27.1939 71.8232 28.696C72.1099 30.1982 72.8589 31.5847 73.9746 32.6788C75.0904 33.7729 76.5223 34.525 78.0878 34.8391C79.6532 35.1531 81.2812 35.015 82.764 34.4422C84.2468 33.8694 85.5173 32.888 86.4133 31.6232C87.3093 30.3583 87.7902 28.8674 87.7948 27.3405C87.8096 26.342 87.6181 25.3506 87.2312 24.4228C86.8443 23.4951 86.2695 22.6492 85.5398 21.9337C84.8101 21.2181 83.9398 20.6469 82.9786 20.2527C82.0174 19.8585 80.9842 19.649 79.9381 19.6363Z" fill="#2A0D80"/>
<path d="M101.276 3.42742C101.973 3.44469 102.65 3.6575 103.221 4.0393C103.792 4.4211 104.233 4.95497 104.488 5.57429C104.743 6.19362 104.802 6.87097 104.656 7.52183C104.511 8.17268 104.167 8.76821 103.67 9.23411C103.172 9.7 102.541 10.0156 101.856 10.1416C101.172 10.2676 100.463 10.1983 99.8195 9.94244C99.1758 9.68658 98.6253 9.25546 98.2367 8.70288C97.848 8.1503 97.6385 7.50073 97.6343 6.83523C97.6328 6.38152 97.7265 5.93212 97.9099 5.51354C98.0933 5.09495 98.3627 4.71567 98.7022 4.39804C99.0416 4.08042 99.4443 3.8309 99.8864 3.6642C100.329 3.49749 100.801 3.41698 101.276 3.42742ZM98.5141 20.8766L104.1 15.096V39.1167H98.5244L98.5141 20.8766Z" fill="#2A0D80"/>
<path d="M123.415 39.1167L123.251 37.5348C121.523 38.9755 119.294 39.7485 117 39.7025C115.808 39.7311 114.622 39.5327 113.511 39.119C112.399 38.7052 111.386 38.0844 110.529 37.2926C109.672 36.5009 108.988 35.5542 108.519 34.5078C108.049 33.4613 107.803 32.3361 107.793 31.1977C107.793 26.3935 111.885 22.7025 117.144 22.7025C119.261 22.681 121.318 23.3725 122.954 24.6554V23.4349C122.954 20.5055 121.399 19.0994 117.584 19.0994C115.546 19.1461 113.529 19.5021 111.609 20.154L112.387 15.8772C114.324 15.3167 116.337 15.0337 118.361 15.0374C124.826 15.0374 128.264 17.8301 128.264 23.0638V34.6836L128.478 39.1167H123.415ZM118.105 26.5595C117.176 26.6203 116.285 26.9387 115.543 27.4755C114.8 28.0123 114.237 28.7443 113.924 29.5817C113.611 30.4191 113.56 31.3256 113.779 32.19C113.997 33.0544 114.475 33.8393 115.154 34.4483C115.832 35.0573 116.683 35.4641 117.6 35.6188C118.517 35.7734 119.462 35.6692 120.318 35.319C121.175 34.9687 121.905 34.3876 122.421 33.6469C122.936 32.9062 123.214 32.038 123.22 31.1488C123.202 30.5264 123.055 29.9137 122.787 29.3457C122.52 28.7778 122.137 28.2659 121.662 27.8394C121.187 27.4129 120.628 27.0803 120.017 26.8607C119.407 26.641 118.757 26.5387 118.105 26.5595Z" fill="#2A0D80"/>
<path d="M132.273 33.1013C134.287 34.5039 136.688 35.3119 139.178 35.4253C141.398 35.4253 142.83 34.3121 142.83 32.4959C142.83 31.0215 141.889 30.1232 139.015 29.2248L137.992 28.9026C134.176 27.6918 132.017 25.2116 132.017 21.8331C132.017 17.8687 135.332 14.9198 140.15 14.9198C142.602 14.9706 145.01 15.5445 147.199 16.5993L146.37 20.925C144.535 19.8416 142.447 19.2077 140.293 19.0795C138.299 19.0795 137.224 20.1341 137.224 21.6183C137.224 22.8877 138.053 23.7762 140.539 24.6257L141.644 24.9968C145.91 26.315 148.17 28.7952 148.17 32.3885C148.17 36.7142 144.692 39.7217 139.547 39.7217C136.705 39.6369 133.938 38.835 131.526 37.3977L132.273 33.1013Z" fill="#2A0D80"/>
<path d="M174.584 39.1165H168.999V25.3876C168.999 21.7943 166.953 19.6851 163.577 19.6851C160.201 19.6851 157.603 22.1067 157.603 25.7489V39.1165H152.017V6.83505L157.603 0.849411V18.2107C158.508 17.1473 159.658 16.2985 160.965 15.7309C162.271 15.1634 163.697 14.8925 165.132 14.9396C170.769 14.9396 174.584 18.6892 174.584 24.7627V39.1165Z" fill="#2A0D80"/>
<path d="M191.127 14.9394C193.676 15.0142 196.145 15.8037 198.226 17.2095C200.308 18.6153 201.909 20.5751 202.831 22.8443C203.753 25.1135 203.955 27.5916 203.411 29.9694C202.866 32.3471 201.601 34.5193 199.771 36.2147C197.942 37.9102 195.63 39.0538 193.124 39.503C190.618 39.9522 188.028 39.6869 185.679 38.7404C183.33 37.7939 181.325 36.208 179.914 34.1806C178.503 32.1532 177.749 29.7742 177.746 27.3403C177.754 25.6824 178.108 24.0426 178.788 22.5171C179.468 20.9915 180.46 19.6108 181.706 18.4559C182.952 17.301 184.428 16.395 186.045 15.7912C187.663 15.1874 189.39 14.8978 191.127 14.9394ZM191.127 19.6361C190.072 19.6292 189.027 19.8249 188.054 20.2116C187.081 20.5983 186.199 21.1681 185.461 21.887C184.723 22.6059 184.144 23.4592 183.759 24.3961C183.374 25.333 183.19 26.3343 183.219 27.3403C183.219 29.3421 184.052 31.262 185.535 32.6775C187.018 34.093 189.03 34.8883 191.127 34.8883C193.224 34.8883 195.235 34.093 196.718 32.6775C198.201 31.262 199.035 29.3421 199.035 27.3403C199.058 26.3357 198.87 25.3367 198.483 24.4023C198.096 23.4678 197.517 22.6167 196.78 21.8989C196.044 21.1811 195.164 20.6111 194.193 20.2225C193.222 19.8339 192.18 19.6346 191.127 19.6361Z" fill="#2A0D80"/>
<path d="M221.889 39.7025C220.326 39.7151 218.779 39.4109 217.348 38.8099C215.918 38.209 214.638 37.325 213.592 36.2165V51H208.007V20.8765L213.122 15.0959V18.9529C214.15 17.6786 215.477 16.6519 216.996 15.955C218.515 15.2581 220.183 14.9104 221.868 14.9397C228.559 14.7835 234.533 20.5933 234.369 27.2918C234.419 30.5119 233.137 33.6209 230.8 35.9443C228.464 38.2676 225.262 39.618 221.889 39.7025ZM220.968 19.6364C219.372 19.6151 217.805 20.0472 216.467 20.8777C215.129 21.7082 214.08 22.8996 213.452 24.3006C212.825 25.7017 212.648 27.249 212.944 28.7462C213.241 30.2433 213.996 31.6226 215.116 32.7089C216.235 33.7951 217.667 34.5393 219.231 34.8468C220.794 35.1544 222.418 35.0114 223.896 34.436C225.374 33.8607 226.639 32.879 227.532 31.6156C228.424 30.3522 228.902 28.8642 228.907 27.3406C228.922 26.3356 228.727 25.3378 228.335 24.405C227.943 23.4721 227.361 22.6228 226.623 21.9063C225.884 21.1897 225.004 20.6201 224.034 20.2304C223.063 19.8408 222.021 19.6389 220.968 19.6364Z" fill="#2A0D80"/>
<path d="M0 15.0957L13.2283 0.839569H0V15.0957Z" fill="#5FD7C2"/>
<path d="M253.806 26.9794C259.617 20.5934 261.499 17.0586 261.499 12.9868C261.499 6.33722 255.914 1.48426 248.988 1.48426C247.382 1.44929 245.785 1.71828 244.288 2.27569C242.792 2.8331 241.426 3.66789 240.27 4.73188C239.113 5.79587 238.189 7.06798 237.55 8.47478C236.911 9.88158 236.571 11.3952 236.548 12.9283V13.0943H242.451V13.0357C242.444 12.2066 242.609 11.3844 242.937 10.6165C243.264 9.84854 243.747 9.14998 244.359 8.56101C244.97 7.97203 245.697 7.50426 246.499 7.18462C247.3 6.86497 248.16 6.69977 249.029 6.6985C249.907 6.68481 250.78 6.8417 251.593 7.15965C252.406 7.4776 253.143 7.94998 253.759 8.54812C254.376 9.14625 254.858 9.85765 255.177 10.6391C255.497 11.4206 255.646 12.2559 255.617 13.0943C255.617 15.8381 254.021 18.8455 249.643 23.9719L236.497 39.1167H260.445L261.387 33.8926H247.832L253.806 26.9794Z" fill="#5FD7C2"/>
<path d="M289.979 30.9924H285.417V39.1164H279.831V30.9924H260.558L285.417 -0.000160217V26.1882H290L289.979 30.9924ZM279.811 26.1882V14.9395L270.901 26.1882H279.811Z" fill="#5FD7C2"/>
</g>
<defs>
<clipPath id="clip12">
<rect width="290" height="50" fill="white"/>
</clipPath>
</defs>
</svg>
