<svg width="48" height="48" viewBox="0 0 48 48" fill="none" xmlns="http://www.w3.org/2000/svg">
<path d="M27.6337 40.7044C28.2081 40.7044 28.6737 40.2388 28.6737 39.6644C28.6737 39.09 28.2081 38.6244 27.6337 38.6244C27.0594 38.6244 26.5938 39.09 26.5938 39.6644C26.5938 40.2388 27.0594 40.7044 27.6337 40.7044Z" fill="#303030"/>
<path d="M35.2003 10.7519L35.6803 8.14387L34.5123 6.75187C33.8347 5.55157 32.8586 4.5467 31.6784 3.83467C30.4982 3.12264 29.1541 2.7276 27.7763 2.68787H17.9523C16.4293 2.72542 14.9486 3.19709 13.6845 4.04741C12.4203 4.89773 11.4253 6.09134 10.8163 7.48787L10.3203 8.07987L15.1203 33.9519H14.8643L13.6803 34.9279L12.0003 43.8879L13.1843 45.3119H32.8803L34.0643 43.8879L32.3843 34.9759L31.2003 33.9999H30.9603L31.3923 31.6959H31.7923C33.0918 31.6922 34.3509 31.2443 35.3608 30.4265C36.3707 29.6087 37.0706 28.4702 37.3443 27.1999L39.2963 17.3279C39.5846 15.9158 39.3206 14.447 38.5586 13.2237C37.7967 12.0004 36.5948 11.1158 35.2003 10.7519ZM17.9523 5.08787H27.8563C28.5507 5.09237 29.237 5.23632 29.8747 5.51117C30.5123 5.78602 31.0883 6.18617 31.5683 6.68787H14.2403C14.7204 6.18617 15.2963 5.78602 15.9339 5.51117C16.5716 5.23632 17.258 5.09237 17.9523 5.08787ZM31.4243 42.9119H14.6243L15.8563 36.3999H30.2563L31.4243 42.9119ZM28.4963 33.9999H23.6963V29.1999H26.8963V27.5999H23.6963V24.1279H26.8963V22.5279H23.6963V19.0719H26.8963V17.4719H23.6963V14.9599H22.0963V33.9999H17.6003L12.9283 9.11987H33.1203L28.4963 33.9999ZM36.9603 16.8319L35.0083 26.7039C34.858 27.4439 34.4582 28.1099 33.8757 28.5904C33.2933 29.071 32.5634 29.337 31.8083 29.3439L34.8163 13.1199C35.5666 13.3668 36.1991 13.8826 36.5919 14.5679C36.9848 15.2532 37.1103 16.0596 36.9443 16.8319H36.9603Z" fill="#303030"/>
</svg>
