<svg width="40" height="40" viewBox="0 0 40 40" xmlns="http://www.w3.org/2000/svg">
<circle cx="20" cy="20" r="19.5" stroke="currentColor" fill="none"/>
<path d="M19.6887 14.7357C21.0628 14.7357 22.3577 15.3707 23.3066 16.3633V16.3662C23.3066 15.8895 23.6143 15.529 24.0395 15.529H24.1475C24.8185 15.529 24.953 16.1886 24.953 16.3967L24.9558 23.8048C24.9091 24.2903 25.4367 24.5412 25.7298 24.2293C26.8688 23.008 28.2339 17.9446 25.0205 15.013C22.0236 12.2767 18.0013 12.7287 15.8627 14.2649C13.5897 15.9019 12.1368 19.5177 13.5481 22.916C15.0893 26.6209 19.4952 27.7261 22.1175 26.6238C23.445 26.0651 24.0569 27.9331 22.6772 28.5446C20.5977 29.4692 14.8024 29.3748 12.0958 24.489C10.2671 21.1887 10.3639 15.383 15.2158 12.3752C18.9243 10.0727 23.8173 10.7106 26.767 13.9207C29.8494 17.2797 29.6711 23.5644 26.6618 26.0076C25.2989 27.1187 23.2751 26.0381 23.2897 24.4193L23.2745 23.8916C22.3256 24.8713 21.0628 25.4459 19.6887 25.4459C16.9702 25.4459 14.5769 22.9505 14.5769 20.1198C14.5769 17.2586 16.9702 14.7368 19.6887 14.7368V14.7357ZM23.108 19.9152C23.0051 17.8414 21.5286 16.5925 19.7444 16.5925H19.6769C17.6205 16.5925 16.4781 18.2811 16.4781 20.1954C16.4781 22.3419 17.8578 23.6975 19.6685 23.6975C21.6894 23.6975 23.0163 22.1561 23.1131 20.3326L23.108 19.9152Z"/>
</svg>
