<svg width="40" height="40" viewBox="0 0 40 40" xmlns="http://www.w3.org/2000/svg">
<circle cx="20" cy="20" r="19.5" stroke="currentColor" fill="none"/>
<path d="M19.8356 14.3144C20.3033 14.3148 20.7518 14.5007 21.0825 14.8315C21.4132 15.1622 21.5992 15.6106 21.5996 16.0784C21.5984 16.5455 21.412 16.9931 21.0814 17.3231C20.7507 17.653 20.3027 17.8384 19.8356 17.8386C19.3685 17.8384 18.9205 17.653 18.5898 17.3231C18.2591 16.9931 18.0728 16.5455 18.0716 16.0784C18.072 15.6106 18.258 15.1622 18.5887 14.8315C18.9194 14.5007 19.3679 14.3148 19.8356 14.3144ZM19.8356 20.3346C20.9645 20.3338 22.047 19.8853 22.8457 19.0873C23.6443 18.2894 24.0938 17.2073 24.0956 16.0784C24.0946 14.9488 23.6455 13.8659 22.8468 13.0672C22.0481 12.2685 20.9651 11.8194 19.8356 11.8184C18.7064 11.8194 17.6237 12.2686 16.8255 13.0674C16.0273 13.8661 15.5788 14.9491 15.5786 16.0784C15.5796 17.207 16.0284 18.2891 16.8266 19.0872C17.6247 19.8852 18.7069 20.3338 19.8356 20.3346ZM21.5583 23.8094C22.4342 23.6084 23.27 23.2618 24.0311 22.7841C24.1698 22.6967 24.2899 22.5829 24.3846 22.4491C24.4793 22.3154 24.5467 22.1642 24.5829 22.0044C24.6192 21.8446 24.6237 21.6792 24.596 21.5176C24.5684 21.3561 24.5092 21.2015 24.4218 21.0629C24.3345 20.9242 24.2207 20.8041 24.0869 20.7094C23.9531 20.6147 23.802 20.5473 23.6421 20.511C23.4823 20.4747 23.3169 20.4703 23.1553 20.4979C22.9938 20.5256 22.8393 20.5847 22.7006 20.6721C21.8409 21.209 20.8477 21.4937 19.8341 21.4937C18.8205 21.4937 17.8273 21.209 16.9676 20.6721C16.6879 20.5093 16.3559 20.4615 16.0416 20.5389C15.7273 20.6162 15.4554 20.8126 15.2832 21.0866C15.111 21.3606 15.0519 21.6908 15.1185 22.0075C15.1851 22.3242 15.3721 22.6027 15.6401 22.7841C16.4012 23.2618 17.237 23.6084 18.1128 23.8094L15.7308 26.1884C15.4969 26.4227 15.3657 26.7403 15.3659 27.0714C15.3662 27.4025 15.498 27.7199 15.7323 27.9539C15.9667 28.1878 16.2843 28.319 16.6154 28.3188C16.9465 28.3185 17.2639 28.1867 17.4978 27.9524L19.8356 25.6146L22.1763 27.9524C22.6631 28.4414 23.4513 28.4414 23.9403 27.9524C24.1741 27.7184 24.3054 27.4011 24.3054 27.0704C24.3054 26.7396 24.1741 26.4224 23.9403 26.1884L21.5583 23.8094Z"/>
</svg>
