<svg width="24" height="24" viewBox="0 0 24 24" fill="none" xmlns="http://www.w3.org/2000/svg">
<path d="M21.2812 7.5H9.65625V3.75C9.65625 3.54375 9.4875 3.375 9.28125 3.375H2.0625C1.85625 3.375 1.6875 3.54375 1.6875 3.75V20.25C1.6875 20.4562 1.85625 20.625 2.0625 20.625H21.2812C21.4875 20.625 21.6562 20.4562 21.6562 20.25V19.8937C21.6562 19.0547 20.9766 18.375 20.1375 18.375H16.7812V17.625H21.2812C21.8531 17.625 22.3125 17.1609 22.3125 16.5938V8.53125C22.3125 7.96406 21.8484 7.5 21.2812 7.5ZM8.90625 7.57031C8.52187 7.72031 8.25 8.09531 8.25 8.53125V16.5938C8.25 17.0297 8.52187 17.4047 8.90625 17.5547V19.875H2.4375V4.125H8.90625V7.57031ZM20.1375 19.125C20.5547 19.125 20.8969 19.4578 20.9062 19.875H9.65625C9.66563 19.4578 10.0078 19.125 10.425 19.125H20.1375ZM9.65625 18.5859V17.625H13.7812V18.375H10.425C10.1437 18.375 9.88125 18.45 9.65625 18.5859ZM14.5312 18.375V17.625H16.0312V18.375H14.5312ZM21.5625 16.5938C21.5625 16.7484 21.4359 16.875 21.2812 16.875H9.28125C9.12656 16.875 9 16.7484 9 16.5938V16.125H21.5625V16.5938ZM21.5625 15.375H9V8.53125C9 8.37656 9.12656 8.25 9.28125 8.25H21.2812C21.4359 8.25 21.5625 8.37656 21.5625 8.53125V15.375Z" fill="currentColor"/>
<path d="M7.54688 4.92188H3.79688C3.59062 4.92188 3.42188 5.09062 3.42188 5.29688V6.79688C3.42188 7.00312 3.59062 7.17188 3.79688 7.17188H7.54688C7.75313 7.17188 7.92188 7.00312 7.92188 6.79688V5.29688C7.92188 5.09062 7.75313 4.92188 7.54688 4.92188ZM7.17188 6.42188H4.17188V5.67188H7.17188V6.42188Z" fill="currentColor"/>
<path d="M5.67188 9.04688C4.84687 9.04688 4.17188 9.72187 4.17188 10.5469C4.17188 11.3719 4.84687 12.0469 5.67188 12.0469C6.49688 12.0469 7.17188 11.3719 7.17188 10.5469C7.17188 9.72187 6.49688 9.04688 5.67188 9.04688ZM5.67188 11.2969C5.25937 11.2969 4.92188 10.9594 4.92188 10.5469C4.92188 10.1344 5.25937 9.79688 5.67188 9.79688C6.08438 9.79688 6.42188 10.1344 6.42188 10.5469C6.42188 10.9594 6.08438 11.2969 5.67188 11.2969Z" fill="currentColor"/>
<path d="M5.67188 13.1719C5.05313 13.1719 4.54688 13.6781 4.54688 14.2969C4.54688 14.9156 5.05313 15.4219 5.67188 15.4219C6.29062 15.4219 6.79688 14.9156 6.79688 14.2969C6.79688 13.6781 6.29062 13.1719 5.67188 13.1719ZM5.67188 14.6719C5.46562 14.6719 5.29688 14.5031 5.29688 14.2969C5.29688 14.0906 5.46562 13.9219 5.67188 13.9219C5.87812 13.9219 6.04688 14.0906 6.04688 14.2969C6.04688 14.5031 5.87812 14.6719 5.67188 14.6719Z" fill="currentColor"/>
</svg>
