<svg width="24" height="24" viewBox="0 0 24 24" fill="none" xmlns="http://www.w3.org/2000/svg">
<g clip-path="url(#clip53)">
<path fill-rule="evenodd" clip-rule="evenodd" d="M17.5 6.51562H6.50001H5.50001H2.50001H1.50001C1.10218 6.51562 0.72065 6.67321 0.439345 6.95371C0.158041 7.23421 5.43889e-06 7.61465 5.43889e-06 8.01133V13.9942C-0.000550867 14.2002 0.041574 14.4041 0.12374 14.5931C0.205905 14.7821 0.32634 14.9521 0.477495 15.0926C0.628649 15.233 0.807265 15.3408 1.00215 15.4091C1.19703 15.4775 1.40397 15.505 1.61001 15.4899L2.00001 17.1053C2.02738 17.2159 2.09193 17.3138 2.1829 17.3827C2.27388 17.4517 2.38579 17.4875 2.50001 17.4842H5.50001C5.61422 17.4875 5.72613 17.4517 5.81711 17.3827C5.90808 17.3138 5.97263 17.2159 6.00001 17.1053L6.39001 15.4899H17.61L18 17.1053C18.0274 17.2159 18.0919 17.3138 18.1829 17.3827C18.2739 17.4517 18.3858 17.4875 18.5 17.4842H21.5C21.6142 17.4875 21.7261 17.4517 21.8171 17.3827C21.9081 17.3138 21.9726 17.2159 22 17.1053C22.465 15.2506 22.36 15.4899 22.5 15.4899C22.8978 15.4899 23.2794 15.3323 23.5607 15.0518C23.842 14.7713 24 14.3909 24 13.9942V8.01133C24 7.61465 23.842 7.23421 23.5607 6.95371C23.2794 6.67321 22.8978 6.51562 22.5 6.51562H21.5H18.5H17.5ZM1.14645 7.65879C1.05268 7.75229 1.00001 7.87911 1.00001 8.01133V12.4985H23V8.01133C23 7.87911 22.9473 7.75229 22.8536 7.65879C22.7598 7.56529 22.6326 7.51277 22.5 7.51277H1.50001C1.3674 7.51277 1.24022 7.56529 1.14645 7.65879ZM2.89001 16.487H5.11001L5.36001 15.4899H2.64001L2.89001 16.487ZM18.89 16.487H21.11L21.36 15.4899H18.64L18.89 16.487ZM22.8536 14.3467C22.9473 14.2532 23 14.1264 23 13.9942V13.4956H1.00001V13.9942C1.00001 14.1264 1.05268 14.2532 1.14645 14.3467C1.24022 14.4402 1.3674 14.4927 1.50001 14.4927H22.5C22.6326 14.4927 22.7598 14.4402 22.8536 14.3467Z" fill="currentColor"/>
<path d="M11.5 8.50977H2.5C2.36739 8.50977 2.24021 8.56229 2.14645 8.65579C2.05268 8.74929 2 8.87611 2 9.00834V11.0026C2 11.1348 2.05268 11.2617 2.14645 11.3552C2.24021 11.4487 2.36739 11.5012 2.5 11.5012H11.5C11.6326 11.5012 11.7598 11.4487 11.8536 11.3552C11.9473 11.2617 12 11.1348 12 11.0026V9.00834C12 8.87611 11.9473 8.74929 11.8536 8.65579C11.7598 8.56229 11.6326 8.50977 11.5 8.50977ZM11 10.504H3V9.50691H11V10.504Z" fill="currentColor"/>
<path d="M20.5 8.50977C20.2033 8.50977 19.9133 8.59749 19.6666 8.76184C19.42 8.92619 19.2277 9.15979 19.1142 9.43309C19.0007 9.7064 18.9709 10.0071 19.0288 10.2973C19.0867 10.5874 19.2296 10.8539 19.4393 11.0631C19.6491 11.2723 19.9164 11.4147 20.2074 11.4725C20.4983 11.5302 20.7999 11.5005 21.074 11.3873C21.3481 11.2741 21.5824 11.0824 21.7472 10.8365C21.912 10.5905 22 10.3013 22 10.0055C22 9.60879 21.842 9.22835 21.5607 8.94785C21.2794 8.66735 20.8978 8.50977 20.5 8.50977ZM20.5 10.504C20.3674 10.504 20.2402 10.4515 20.1465 10.358C20.0527 10.2645 20 10.1377 20 10.0055C20 9.87325 20.0527 9.74643 20.1465 9.65293C20.2402 9.55943 20.3674 9.50691 20.5 9.50691C20.6326 9.50691 20.7598 9.55943 20.8536 9.65293C20.9473 9.74643 21 9.87325 21 10.0055C21 10.1377 20.9473 10.2645 20.8536 10.358C20.7598 10.4515 20.6326 10.504 20.5 10.504Z" fill="currentColor"/>
<path d="M16.5 8.50977C16.2033 8.50977 15.9133 8.59749 15.6666 8.76184C15.42 8.92619 15.2277 9.15979 15.1142 9.43309C15.0006 9.7064 14.9709 10.0071 15.0288 10.2973C15.0867 10.5874 15.2296 10.8539 15.4393 11.0631C15.6491 11.2723 15.9164 11.4147 16.2074 11.4725C16.4983 11.5302 16.7999 11.5005 17.074 11.3873C17.3481 11.2741 17.5824 11.0824 17.7472 10.8365C17.912 10.5905 18 10.3013 18 10.0055C18 9.60879 17.842 9.22835 17.5607 8.94785C17.2794 8.66735 16.8978 8.50977 16.5 8.50977ZM16.5 10.504C16.3674 10.504 16.2402 10.4515 16.1465 10.358C16.0527 10.2645 16 10.1377 16 10.0055C16 9.87325 16.0527 9.74643 16.1465 9.65293C16.2402 9.55943 16.3674 9.50691 16.5 9.50691C16.6326 9.50691 16.7598 9.55943 16.8536 9.65293C16.9473 9.74643 17 9.87325 17 10.0055C17 10.1377 16.9473 10.2645 16.8536 10.358C16.7598 10.4515 16.6326 10.504 16.5 10.504Z" fill="currentColor"/>
</g>
<defs>
<clipPath id="clip53">
<rect width="24" height="24" fill="white"/>
</clipPath>
</defs>
</svg>
