<svg width="32" height="32" viewBox="0 0 32 32" fill="none" xmlns="http://www.w3.org/2000/svg">
<path d="M5.33317 18.6653L17.3332 18.6667C18.7383 18.6667 19.8907 19.754 19.9925 21.1342L19.9998 21.3333V23.3333C19.9985 28 15.0452 29.3333 11.3332 29.3333C7.70366 29.3333 2.8861 28.0586 2.67378 23.6395L2.6665 23.3333V21.332C2.6665 19.9269 3.75503 18.7745 5.13425 18.6727L5.33317 18.6653ZM20.2932 18.6667H26.6665C28.0716 18.6667 29.224 19.7552 29.3258 21.1344L29.3332 21.3333V22.6667C29.3318 26.7493 25.5225 28 22.6665 28C21.7598 28 20.7585 27.872 19.8132 27.5707C20.2612 27.056 20.6225 26.468 20.8825 25.8013C21.6065 25.968 22.2865 26 22.6665 26L23.0219 25.9921C24.3356 25.9345 27.137 25.5075 27.3234 22.94L27.3332 22.6667V21.3333C27.3332 21.0062 27.0961 20.7339 26.7859 20.6774L26.6665 20.6667H21.2652C21.1532 19.9982 20.8738 19.3909 20.4725 18.8798L20.2932 18.6667H26.6665H20.2932ZM5.33317 20.6653L5.19896 20.6787C5.03312 20.7124 4.91984 20.8024 4.86117 20.86C4.80357 20.9187 4.71354 21.0311 4.67984 21.1973L4.6665 21.332V23.3333C4.6665 24.6787 5.2665 25.6293 6.55584 26.3227C7.65738 26.9159 9.22585 27.2751 10.9099 27.3268L11.3332 27.3333L11.7564 27.3268C13.4403 27.2751 15.0077 26.9159 16.1105 26.3227C17.318 25.6727 17.922 24.7965 17.9928 23.5799L17.9998 23.332V21.3333C17.9998 21.0062 17.7628 20.7339 17.4526 20.6774L17.3332 20.6667L5.33317 20.6653ZM11.3332 4C14.6465 4 17.3332 6.68667 17.3332 10C17.3332 13.3133 14.6465 16 11.3332 16C8.01984 16 5.33317 13.3133 5.33317 10C5.33317 6.68667 8.01984 4 11.3332 4ZM23.3332 6.66667C25.9105 6.66667 27.9998 8.756 27.9998 11.3333C27.9998 13.9107 25.9105 16 23.3332 16C20.7558 16 18.6665 13.9107 18.6665 11.3333C18.6665 8.756 20.7558 6.66667 23.3332 6.66667ZM11.3332 6C9.12784 6 7.33317 7.79467 7.33317 10C7.33317 12.2053 9.12784 14 11.3332 14C13.5385 14 15.3332 12.2053 15.3332 10C15.3332 7.79467 13.5385 6 11.3332 6ZM23.3332 8.66667C21.8625 8.66667 20.6665 9.86267 20.6665 11.3333C20.6665 12.804 21.8625 14 23.3332 14C24.8038 14 25.9998 12.804 25.9998 11.3333C25.9998 9.86267 24.8038 8.66667 23.3332 8.66667Z" fill="#5F3EC0"/>
</svg>
