<svg width="48" height="48" viewBox="0 0 48 48" fill="none" xmlns="http://www.w3.org/2000/svg">
<path d="M45.5625 30.0001H42.9V21.6376C42.8985 20.2706 42.3548 18.9599 41.3881 17.9932C40.4215 17.0266 39.1108 16.4829 37.7437 16.4814H35.5462V13.9314C37.1032 12.7021 37.9237 11.2666 37.9237 9.76287C37.9237 5.41024 31.0796 2.00037 22.3425 2.00037C13.6054 2.00037 6.7575 5.41024 6.7575 9.76287C6.7575 11.2666 7.578 12.7025 9.135 13.9314V16.4814H6.9375C5.57043 16.4829 4.25979 17.0266 3.29313 17.9932C2.32646 18.9599 1.78274 20.2706 1.78125 21.6376V42.6879C1.7812 42.7741 1.79814 42.8594 1.8311 42.9391C1.86407 43.0187 1.9124 43.0911 1.97335 43.152C2.0343 43.213 2.10666 43.2613 2.18631 43.2943C2.26595 43.3272 2.35131 43.3442 2.4375 43.3441H6.7575V45.5626C6.75745 45.6488 6.77439 45.7342 6.80735 45.8138C6.84032 45.8935 6.88865 45.9658 6.9496 46.0268C7.01055 46.0877 7.08291 46.1361 7.16256 46.169C7.2422 46.202 7.32756 46.2189 7.41375 46.2189H9.66375C9.79917 46.2188 9.93126 46.1769 10.0419 46.0988C10.1525 46.0207 10.2363 45.9103 10.2817 45.7827L11.1499 43.3452H33.5344L34.3988 45.7827C34.4442 45.9105 34.5281 46.021 34.6389 46.0993C34.7496 46.1775 34.8819 46.2195 35.0175 46.2196H37.2675C37.3537 46.2197 37.439 46.2027 37.5187 46.1698C37.5983 46.1368 37.6707 46.0885 37.7316 46.0275C37.7926 45.9666 37.8409 45.8942 37.8739 45.8146C37.9069 45.7349 37.9238 45.6496 37.9237 45.5634V43.3445H42.2452C42.3314 43.3445 42.4168 43.3276 42.4964 43.2946C42.5761 43.2617 42.6484 43.2133 42.7094 43.1524C42.7703 43.0914 42.8187 43.0191 42.8516 42.9394C42.8846 42.8598 42.9015 42.7744 42.9015 42.6882V34.6876H45.564C45.6502 34.6877 45.7355 34.6707 45.8152 34.6378C45.8948 34.6048 45.9672 34.5565 46.0281 34.4955C46.0891 34.4346 46.1374 34.3622 46.1704 34.2826C46.2034 34.2029 46.2203 34.1176 46.2202 34.0314V30.6564C46.2203 30.57 46.2033 30.4846 46.1702 30.4048C46.1372 30.3251 46.0887 30.2527 46.0276 30.1917C45.9665 30.1307 45.894 30.0824 45.8142 30.0495C45.7343 30.0167 45.6488 29.9999 45.5625 30.0001ZM10.1801 13.0764C9.2175 12.3684 8.07 11.2182 8.07 9.76137C8.07 6.26524 14.6059 3.31137 22.3425 3.31137C30.0791 3.31137 36.6112 6.26524 36.6112 9.76137C36.6112 11.2182 35.4637 12.3684 34.5011 13.0767C34.4182 13.1377 34.3509 13.2172 34.3044 13.309C34.258 13.4008 34.2338 13.5022 34.2337 13.6051V16.481H33.2962V12.8004L33.9435 12.323C34.731 11.7444 35.6737 10.8301 35.6737 9.76137C35.6737 7.15399 30.1987 4.24887 22.3425 4.24887C14.4862 4.24887 9.0075 7.15399 9.0075 9.76137C9.0075 10.8226 9.94762 11.7399 10.7366 12.3219L11.385 12.8004V16.481H10.4475V13.6051C10.4475 13.5022 10.4233 13.4007 10.3769 13.3088C10.3304 13.217 10.263 13.1374 10.1801 13.0764ZM12.6975 16.481V12.4689C12.6976 12.3661 12.6735 12.2648 12.6272 12.1731C12.5809 12.0813 12.5136 12.0018 12.4309 11.9409L11.5159 11.2659C10.7782 10.7214 10.32 10.145 10.32 9.76137C10.32 8.50549 14.4105 5.56137 22.3425 5.56137C30.2745 5.56137 34.3612 8.50549 34.3612 9.76137C34.3612 10.1427 33.8925 10.733 33.1654 11.2659L32.25 11.9409C32.1673 12.0019 32.1001 12.0814 32.0538 12.1731C32.0075 12.2648 31.9834 12.3661 31.9834 12.4689V16.4814L12.6975 16.481ZM6.9375 17.7935H37.7452C38.7641 17.795 39.7409 18.2005 40.4611 18.9212C41.1814 19.6418 41.5865 20.6187 41.5875 21.6376V38.6566H3.09375V21.6376C3.09474 20.6185 3.50001 19.6413 4.22063 18.9206C4.94125 18.2 5.91834 17.7946 6.9375 17.7935ZM9.20062 44.906H8.07V43.3434H9.7575L9.20062 44.906ZM36.6131 44.906H35.481L34.9271 43.3434H36.6112L36.6131 44.906ZM3.09375 42.0312V39.9687H41.5875V42.0312H3.09375ZM44.9062 33.3751H42.9V31.3126H44.9047L44.9062 33.3751Z" fill="black"/>
<path d="M39.9961 29.3665C40.1701 29.3665 40.3371 29.2973 40.4601 29.1742C40.5832 29.0512 40.6523 28.8843 40.6523 28.7102V26.0852C40.6523 25.9112 40.5832 25.7442 40.4601 25.6212C40.3371 25.4981 40.1701 25.429 39.9961 25.429C39.822 25.429 39.6551 25.4981 39.5321 25.6212C39.409 25.7442 39.3398 25.9112 39.3398 26.0852V28.7102C39.3398 28.8843 39.409 29.0512 39.5321 29.1742C39.6551 29.2973 39.822 29.3665 39.9961 29.3665Z" fill="black"/>
<path d="M7.41406 21.1676H37.2697C37.4437 21.1676 37.6107 21.0985 37.7337 20.9754C37.8568 20.8523 37.9259 20.6854 37.9259 20.5114C37.9259 20.3373 37.8568 20.1704 37.7337 20.0473C37.6107 19.9242 37.4437 19.8551 37.2697 19.8551H7.41406C7.24001 19.8551 7.07309 19.9242 6.95002 20.0473C6.82695 20.1704 6.75781 20.3373 6.75781 20.5114C6.75781 20.6854 6.82695 20.8523 6.95002 20.9754C7.07309 21.0985 7.24001 21.1676 7.41406 21.1676Z" fill="black"/>
<path d="M7.41406 28.125H11.9141C12.0881 28.125 12.255 28.0559 12.3781 27.9328C12.5012 27.8097 12.5703 27.6428 12.5703 27.4688C12.5703 27.2947 12.5012 27.1278 12.3781 27.0047C12.255 26.8816 12.0881 26.8125 11.9141 26.8125H7.41406C7.24001 26.8125 7.07309 26.8816 6.95002 27.0047C6.82695 27.1278 6.75781 27.2947 6.75781 27.4688C6.75781 27.6428 6.82695 27.8097 6.95002 27.9328C7.07309 28.0559 7.24001 28.125 7.41406 28.125Z" fill="black"/>
<path d="M7.41406 30.375H11.9141C12.0881 30.375 12.255 30.3059 12.3781 30.1828C12.5012 30.0597 12.5703 29.8928 12.5703 29.7188C12.5703 29.5447 12.5012 29.3778 12.3781 29.2547C12.255 29.1316 12.0881 29.0625 11.9141 29.0625H7.41406C7.24001 29.0625 7.07309 29.1316 6.95002 29.2547C6.82695 29.3778 6.75781 29.5447 6.75781 29.7188C6.75781 29.8928 6.82695 30.0597 6.95002 30.1828C7.07309 30.3059 7.24001 30.375 7.41406 30.375Z" fill="black"/>
<path d="M7.41406 32.625H11.9141C12.0881 32.625 12.255 32.5559 12.3781 32.4328C12.5012 32.3097 12.5703 32.1428 12.5703 31.9687C12.5703 31.7947 12.5012 31.6278 12.3781 31.5047C12.255 31.3816 12.0881 31.3125 11.9141 31.3125H7.41406C7.24001 31.3125 7.07309 31.3816 6.95002 31.5047C6.82695 31.6278 6.75781 31.7947 6.75781 31.9687C6.75781 32.1428 6.82695 32.3097 6.95002 32.4328C7.07309 32.5559 7.24001 32.625 7.41406 32.625Z" fill="black"/>
<path d="M7.41406 34.875H11.9141C12.0881 34.875 12.255 34.8059 12.3781 34.6828C12.5012 34.5597 12.5703 34.3928 12.5703 34.2188C12.5703 34.0447 12.5012 33.8778 12.3781 33.7547C12.255 33.6316 12.0881 33.5625 11.9141 33.5625H7.41406C7.24001 33.5625 7.07309 33.6316 6.95002 33.7547C6.82695 33.8778 6.75781 34.0447 6.75781 34.2188C6.75781 34.3928 6.82695 34.5597 6.95002 34.6828C7.07309 34.8059 7.24001 34.875 7.41406 34.875Z" fill="black"/>
</svg>
