<svg width="40" height="40" viewBox="0 0 40 40" xmlns="http://www.w3.org/2000/svg">
<circle cx="20" cy="20" r="19.5" stroke="currentColor" fill="none"/>
<path d="M29 14.5345C28.326 14.8329 27.611 15.0283 26.879 15.1143C27.6497 14.6528 28.2265 13.927 28.502 13.072C27.7772 13.5016 26.9847 13.8049 26.1583 13.969C25.652 13.4278 24.9946 13.0514 24.2715 12.8888C23.5485 12.7262 22.7932 12.7849 22.104 13.0573C21.4147 13.3297 20.8234 13.8031 20.4068 14.4161C19.9903 15.0291 19.7678 15.7532 19.7682 16.4943C19.7683 16.7845 19.8005 17.0658 19.8658 17.335C18.3969 17.2627 16.9597 16.8818 15.648 16.2169C14.3362 15.552 13.1792 14.6182 12.2525 13.4763C11.9232 14.0399 11.7505 14.6813 11.7522 15.334C11.7522 16.6143 12.4025 17.7453 13.3955 18.4075C12.809 18.3889 12.2354 18.23 11.723 17.944V17.9913C11.7225 18.8442 12.0173 19.6709 12.5574 20.331C13.0974 20.9911 13.8494 21.4439 14.6855 21.6123C14.1418 21.7614 13.5711 21.7835 13.0175 21.6768C13.2533 22.4105 13.7124 23.0523 14.3307 23.5124C14.9489 23.9725 15.6955 24.2281 16.466 24.2433C15.7 24.8446 14.8229 25.2888 13.885 25.5507C12.9471 25.8126 11.9667 25.887 11 25.7695C12.6879 26.8558 14.6531 27.4325 16.6602 27.4308C23.4537 27.4308 27.1693 21.8028 27.1693 16.9218C27.1693 16.7643 27.1632 16.6023 27.1572 16.444C27.8792 15.9213 28.503 15.2751 29 14.5353V14.5345Z"/>
</svg>
