<svg width="26" height="20" viewBox="0 0 26 20" fill="none" xmlns="http://www.w3.org/2000/svg">
<path d="M23.8523 3.74375C23.7535 3.37125 22.5082 2.1525 22.1871 2.06625C21.619 1.9125 18.85 1.5625 13 1.5625C7.15 1.5625 4.3836 1.9125 3.8103 2.06625C3.4931 2.15125 2.24778 3.37 2.14768 3.74375C2.00598 4.27375 1.63548 6.495 1.63548 10C1.63548 13.505 2.00598 15.725 2.14768 16.2575C2.24648 16.6287 3.4918 17.8475 3.8116 17.9325C4.3836 18.0875 7.15 18.4375 13 18.4375C18.85 18.4375 21.6177 18.0875 22.1897 17.9338C22.5069 17.8488 23.7522 16.63 23.8523 16.2562C23.994 15.7262 24.3645 13.5 24.3645 10C24.3645 6.5 23.994 4.275 23.8523 3.74375ZM25.4059 3.1225C26 5.35 26 10 26 10C26 10 26 14.65 25.4059 16.8775C25.0757 18.1087 24.1098 19.0775 22.8865 19.405C20.6648 20 13 20 13 20C13 20 5.3391 20 3.1135 19.405C1.885 19.0725 0.9204 18.105 0.5941 16.8775C5.74897e-08 14.65 0 10 0 10C0 10 5.74897e-08 5.35 0.5941 3.1225C0.9243 1.89125 1.8902 0.9225 3.1135 0.595C5.3391 -2.23517e-07 13 0 13 0C13 0 20.6648 -2.23517e-07 22.8865 0.595C24.115 0.9275 25.0796 1.895 25.4059 3.1225ZM10.4 14.375V5.625L18.2 10L10.4 14.375Z" fill="currentColor"/>
</svg>
