<svg width="48" height="48" viewBox="0 0 48 48" fill="none" xmlns="http://www.w3.org/2000/svg">
<path d="M41.9019 17.456C35.4503 10.2875 29.013 13.388 25.3633 15.3865C25.202 15.4747 25.0043 15.465 24.8482 15.3679C17.7862 10.9738 12.0826 13.7444 9.6122 17.5933C2.03164 29.4038 12.306 42.1101 14.0123 44.1906C15.7186 46.2711 19.2893 46.6941 22.0785 45.1725C24.3098 43.9553 26.8272 43.9394 28.7271 45.1725C36.0737 49.9407 41.4096 38.0507 42.8167 34.7487C42.8391 34.6962 42.8079 34.64 42.7545 34.6198C32.719 30.8209 36.9512 18.7166 41.8486 17.6275C41.9252 17.6105 41.9545 17.5143 41.9019 17.456Z" stroke="currentColor" stroke-width="1.5"/>
<path d="M33.2591 1.78131C26.7448 2.87022 24.3797 8.92536 24.5312 12.124C24.5435 12.3834 24.7719 12.5705 25.0297 12.5397C29.6107 11.9928 34.4505 6.83424 33.7949 2.1646C33.7589 1.90816 33.5146 1.73862 33.2591 1.78131Z" stroke="currentColor" stroke-width="1.5"/>
</svg>
