<svg width="76" height="75" viewBox="0 0 76 75" fill="none" xmlns="http://www.w3.org/2000/svg">
<path d="M60.421 15.6899C64.9914 15.6899 68.7285 19.2578 68.999 23.7602L69.0147 24.2837V50.8621C69.0147 55.4325 65.4469 59.1696 60.9445 59.4402L60.421 59.4558H15.1777C10.6073 59.4558 6.87022 55.888 6.59967 51.3856L6.58398 50.8621V24.2837C6.58398 19.7133 10.1518 15.9762 14.6542 15.7056L15.1777 15.6899H60.421ZM64.3246 34.3587H11.2684L11.2715 50.8621C11.2715 52.8846 12.8086 54.5481 14.7783 54.7482L15.1777 54.7683H60.421C62.4435 54.7683 64.107 53.2312 64.3071 51.2615L64.3272 50.8621L64.3246 34.3587ZM57.3398 45.3127C58.6342 45.3127 59.6835 46.3621 59.6835 47.6565C59.6835 48.843 58.8018 49.8236 57.6578 49.9788L57.3398 50.0002H49.5273C48.2329 50.0002 47.1835 48.9509 47.1835 47.6565C47.1835 46.4699 48.0653 45.4893 49.2093 45.3341L49.5273 45.3127H57.3398ZM60.421 20.3774H15.1777C13.1552 20.3774 11.4917 21.9145 11.2917 23.8843L11.2715 24.2837L11.2684 29.6712H64.3246L64.3272 24.2837C64.3272 22.2612 62.7901 20.5976 60.8204 20.3976L60.421 20.3774Z" fill="currentColor"/>
</svg>
