<svg width="32" height="32" viewBox="0 0 32 32" xmlns="http://www.w3.org/2000/svg">
<path d="M13.3332 24.0047C14.4377 24.0047 15.3332 24.9001 15.3332 26.0047C15.3332 27.1092 14.4377 28.0047 13.3332 28.0047C12.2286 28.0047 11.3332 27.1092 11.3332 26.0047C11.3332 24.9001 12.2286 24.0047 13.3332 24.0047ZM21.3332 24.0047C22.4377 24.0047 23.3332 24.9001 23.3332 26.0047C23.3332 27.1092 22.4377 28.0047 21.3332 28.0047C20.2286 28.0047 19.3332 27.1092 19.3332 26.0047C19.3332 24.9001 20.2286 24.0047 21.3332 24.0047ZM3.6665 4H4.14959C5.49417 4 6.66446 4.89264 7.03188 6.16762L7.08558 6.38357L7.14384 6.66533L28.3316 6.66608C28.9589 6.66608 29.4313 7.23686 29.314 7.85305L27.1646 19.1461C26.7756 21.1901 24.9886 22.6691 22.9079 22.6692L11.7584 22.6696C9.67774 22.6696 7.89069 21.1909 7.50146 19.1469L5.35082 7.85315L5.12826 6.79452C5.04077 6.37783 4.70125 6.06762 4.28933 6.00975L4.14959 6H3.6665C3.11422 6 2.6665 5.55228 2.6665 5C2.6665 4.49374 3.04271 4.07535 3.53081 4.00913L3.6665 4ZM27.1233 8.66608H7.54157L9.46615 18.7728C9.67574 19.8734 10.638 20.6696 11.7584 20.6696L22.9078 20.6692C24.0282 20.6692 24.9904 19.8728 25.1999 18.7721L27.1233 8.66608Z"/>
</svg>
