<svg width="75" height="75" viewBox="0 0 75 75" fill="none" xmlns="http://www.w3.org/2000/svg">
<path d="M37.5 6.25C54.7594 6.25 68.75 20.2438 68.75 37.5C68.75 54.7562 54.7594 68.75 37.5 68.75C20.2406 68.75 6.25 54.7562 6.25 37.5C6.25 20.2438 20.2406 6.25 37.5 6.25ZM37.5 11.4594C23.1406 11.4594 11.4594 23.1406 11.4594 37.5C11.4594 51.8594 23.1406 63.5406 37.5 63.5406C51.8594 63.5406 63.5406 51.8594 63.5406 37.5C63.5406 23.1406 51.8594 11.4594 37.5 11.4594ZM35.1562 18.75C36.3422 18.75 37.3233 19.6323 37.4786 20.7759L37.5 21.0938V37.5H47.6562C48.95 37.5 50 38.55 50 39.8438C50 41.0297 49.1177 42.0108 47.9741 42.1661L47.6562 42.1875H35.1562C33.9703 42.1875 32.9892 41.3052 32.8339 40.1616L32.8125 39.8438V21.0938C32.8125 19.8 33.8625 18.75 35.1562 18.75Z" fill="currentColor"/>
</svg>
