<svg width="24" height="24" viewBox="0 0 24 24" fill="none" xmlns="http://www.w3.org/2000/svg">
<path fill-rule="evenodd" clip-rule="evenodd" d="M5.46601 6.6C5.46601 2.95492 8.42094 -4.47827e-07 12.066 -2.88495e-07C15.7111 -1.29164e-07 18.666 2.95492 18.666 6.6L18.666 19.2C18.666 21.851 16.517 24 13.866 24C11.215 24 9.06601 21.851 9.06601 19.2L9.06601 9C9.06601 7.34315 10.4092 6 12.066 6C13.7229 6 15.066 7.34315 15.066 9L15.066 18L13.266 18L13.266 9C13.266 8.33726 12.7288 7.8 12.066 7.8C11.4033 7.8 10.866 8.33726 10.866 9L10.866 19.2C10.866 19.9956 11.1821 20.7587 11.7447 21.3213C12.3073 21.8839 13.0704 22.2 13.866 22.2C14.6617 22.2 15.4247 21.8839 15.9873 21.3213C16.5499 20.7587 16.866 19.9956 16.866 19.2L16.866 6.6C16.866 3.94903 14.717 1.8 12.066 1.8C9.41505 1.8 7.26601 3.94903 7.26601 6.6L7.26601 18L5.46601 18L5.46601 6.6Z" fill="#1E1F20"/>
<mask id="mask0" mask-type="alpha" maskUnits="userSpaceOnUse" x="5" y="0" width="14" height="24">
<path fill-rule="evenodd" clip-rule="evenodd" d="M5.46601 6.6C5.46601 2.95492 8.42094 -4.47827e-07 12.066 -2.88495e-07C15.7111 -1.29164e-07 18.666 2.95492 18.666 6.6L18.666 19.2C18.666 21.851 16.517 24 13.866 24C11.215 24 9.06601 21.851 9.06601 19.2L9.06601 9C9.06601 7.34315 10.4092 6 12.066 6C13.7229 6 15.066 7.34315 15.066 9L15.066 18L13.266 18L13.266 9C13.266 8.33726 12.7288 7.8 12.066 7.8C11.4033 7.8 10.866 8.33726 10.866 9L10.866 19.2C10.866 19.9956 11.1821 20.7587 11.7447 21.3213C12.3073 21.8839 13.0704 22.2 13.866 22.2C14.6617 22.2 15.4247 21.8839 15.9873 21.3213C16.5499 20.7587 16.866 19.9956 16.866 19.2L16.866 6.6C16.866 3.94903 14.717 1.8 12.066 1.8C9.41505 1.8 7.26601 3.94903 7.26601 6.6L7.26601 18L5.46601 18L5.46601 6.6Z" fill="white"/>
</mask>
<g mask="url(#mask0)">
</g>
</svg>
