<svg width="75" height="75" viewBox="0 0 75 75" fill="none" xmlns="http://www.w3.org/2000/svg">
<path d="M9.375 17.9688C9.375 16.6743 10.4243 15.625 11.7188 15.625C20.0419 15.625 28.1499 12.6766 36.0938 6.71875C36.9271 6.09375 38.0729 6.09375 38.9062 6.71875C46.8501 12.6766 54.9581 15.625 63.2812 15.625C64.5757 15.625 65.625 16.6743 65.625 17.9688V34.375C65.625 50.0037 56.3826 61.4867 38.359 68.5869C37.807 68.8044 37.193 68.8044 36.641 68.5869C18.6174 61.4867 9.375 50.0037 9.375 34.375V17.9688ZM14.0625 20.2435V34.375C14.0625 47.6737 21.7293 57.4341 37.5 63.8809C53.2707 57.4341 60.9375 47.6737 60.9375 34.375V20.2435C52.8833 19.7683 45.0599 16.8384 37.5 11.4932C29.9401 16.8384 22.1167 19.7683 14.0625 20.2435Z" fill="currentColor"/>
</svg>
