<svg width="48" height="48" viewBox="0 0 48 48" fill="none" xmlns="http://www.w3.org/2000/svg">
<path d="M47.25 23.25H45V6.75C45 6.33581 44.6642 6 44.25 6H38.25C37.8358 6 37.5 6.33581 37.5 6.75V23.25H27.75V21H35.25C35.6642 21 36 20.6642 36 20.25V6.75C36 6.33581 35.6642 6 35.25 6H12.75C12.3358 6 12 6.33581 12 6.75V20.25C12 20.6642 12.3358 21 12.75 21H20.25V23.25H10.5V6.75C10.5 6.33581 10.1642 6 9.75 6H3.75C3.33581 6 3 6.33581 3 6.75V23.25H0.75C0.335812 23.25 0 23.5858 0 24V37.5C0 37.9142 0.335812 38.25 0.75 38.25H3V41.25C3 41.6642 3.33581 42 3.75 42H6C6.41419 42 6.75 41.6642 6.75 41.25V38.25H41.25V41.25C41.25 41.6642 41.5858 42 42 42H44.25C44.6642 42 45 41.6642 45 41.25V38.25H47.25C47.6642 38.25 48 37.9142 48 37.5V24C48 23.5858 47.6642 23.25 47.25 23.25ZM39 7.5H43.5V22.5H39V7.5ZM13.5 19.5V7.5H34.5V19.5H13.5ZM26.25 21V23.25H21.75V21H26.25ZM4.5 7.5H9V22.5H4.5V7.5ZM5.25 40.5H4.5V38.25H5.25V40.5ZM23.25 36.75H1.5V32.25H8.25C8.25 32.6642 8.58581 33 9 33H15C15.4142 33 15.75 32.6642 15.75 32.25H23.25V36.75ZM23.25 30.75H1.5V24.75H8.25C8.25 25.1642 8.58581 25.5 9 25.5H15C15.4142 25.5 15.75 25.1642 15.75 24.75H23.25V30.75ZM43.5 40.5H42.75V38.25H43.5V40.5ZM46.5 36.75H24.75V32.25H32.25C32.25 32.6642 32.5858 33 33 33H39C39.4142 33 39.75 32.6642 39.75 32.25H46.5V36.75ZM46.5 30.75H24.75V24.75H32.25C32.25 25.1642 32.5858 25.5 33 25.5H39C39.4142 25.5 39.75 25.1642 39.75 24.75H46.5V30.75Z" fill="black"/>
<path d="M33 8.25H15C14.5858 8.25 14.25 8.58581 14.25 9V18C14.25 18.4142 14.5858 18.75 15 18.75H33C33.4142 18.75 33.75 18.4142 33.75 18V9C33.75 8.58581 33.4142 8.25 33 8.25ZM32.25 17.25H15.75V9.75H32.25V17.25Z" fill="black"/>
<path d="M6.75 12C7.57843 12 8.25 11.3284 8.25 10.5C8.25 9.67157 7.57843 9 6.75 9C5.92157 9 5.25 9.67157 5.25 10.5C5.25 11.3284 5.92157 12 6.75 12Z" fill="black"/>
<path d="M6.75 19.5C7.57843 19.5 8.25 18.8284 8.25 18C8.25 17.1716 7.57843 16.5 6.75 16.5C5.92157 16.5 5.25 17.1716 5.25 18C5.25 18.8284 5.92157 19.5 6.75 19.5Z" fill="black"/>
<path d="M41.25 12C42.0784 12 42.75 11.3284 42.75 10.5C42.75 9.67157 42.0784 9 41.25 9C40.4216 9 39.75 9.67157 39.75 10.5C39.75 11.3284 40.4216 12 41.25 12Z" fill="black"/>
<path d="M41.25 19.5C42.0784 19.5 42.75 18.8284 42.75 18C42.75 17.1716 42.0784 16.5 41.25 16.5C40.4216 16.5 39.75 17.1716 39.75 18C39.75 18.8284 40.4216 19.5 41.25 19.5Z" fill="black"/>
</svg>
