<svg width="40" height="40" viewBox="0 0 40 40" xmlns="http://www.w3.org/2000/svg">
<circle cx="20" cy="20" r="19.5" stroke="currentColor" fill="none"/>
<path d="M24.0325 11H15.9672C13.2283 11 11 13.2284 11 15.9673V24.0327C11 26.7717 13.2283 29 15.9672 29H24.0325C26.7717 29 29 26.7716 29 24.0327V15.9673C29.0001 13.2284 26.7717 11 24.0325 11ZM27.4031 24.0327C27.4031 25.8911 25.8911 27.403 24.0327 27.403H15.9672C14.1089 27.4031 12.597 25.8911 12.597 24.0327V15.9673C12.597 14.109 14.1089 12.597 15.9672 12.597H24.0325C25.891 12.597 27.403 14.109 27.403 15.9673V24.0327H27.4031Z"/>
<path d="M20.0014 15.3633C17.4439 15.3633 15.3633 17.4439 15.3633 20.0014C15.3633 22.5588 17.4439 24.6394 20.0014 24.6394C22.5589 24.6394 24.6396 22.5588 24.6396 20.0014C24.6396 17.4439 22.5589 15.3633 20.0014 15.3633ZM20.0014 23.0422C18.3246 23.0422 16.9603 21.6781 16.9603 20.0013C16.9603 18.3244 18.3245 16.9602 20.0014 16.9602C21.6783 16.9602 23.0425 18.3244 23.0425 20.0013C23.0425 21.6781 21.6782 23.0422 20.0014 23.0422Z"/>
<path d="M24.8313 14.0078C24.5236 14.0078 24.2214 14.1324 24.0041 14.3506C23.7857 14.5678 23.6602 14.8702 23.6602 15.179C23.6602 15.4868 23.7858 15.7891 24.0041 16.0073C24.2212 16.2245 24.5236 16.3501 24.8313 16.3501C25.1401 16.3501 25.4414 16.2245 25.6596 16.0073C25.8779 15.7891 26.0025 15.4867 26.0025 15.179C26.0025 14.8702 25.8779 14.5678 25.6596 14.3506C25.4425 14.1324 25.1401 14.0078 24.8313 14.0078Z"/>
</svg>
