<svg width="35" height="34" viewBox="0 0 35 34" fill="none" xmlns="http://www.w3.org/2000/svg">
<g opacity="0.8">
<path d="M17.6058 10.5781C15.9025 10.5781 14.269 11.2548 13.0646 12.4592C11.8602 13.6636 11.1836 15.2971 11.1836 17.0003C11.1836 18.7036 11.8602 20.3371 13.0646 21.5415C14.269 22.7459 15.9025 23.4226 17.6058 23.4226C19.3091 23.4226 20.9426 22.7459 22.147 21.5415C23.3514 20.3371 24.028 18.7036 24.028 17.0003C24.028 15.2971 23.3514 13.6636 22.147 12.4592C20.9426 11.2548 19.3091 10.5781 17.6058 10.5781ZM17.6058 21.1712C16.4993 21.1712 15.4381 20.7316 14.6556 19.9492C13.8732 19.1667 13.4336 18.1055 13.4336 16.999C13.4336 15.8924 13.8732 14.8312 14.6556 14.0488C15.4381 13.2663 16.4993 12.8267 17.6058 12.8267C18.7124 12.8267 19.7736 13.2663 20.556 14.0488C21.3385 14.8312 21.778 15.8924 21.778 16.999C21.778 18.1055 21.3385 19.1667 20.556 19.9492C19.7736 20.7316 18.7124 21.1712 17.6058 21.1712Z" fill="#303030"/>
<path d="M24.2824 11.8382C25.1093 11.8382 25.7796 11.1679 25.7796 10.341C25.7796 9.51408 25.1093 8.84375 24.2824 8.84375C23.4555 8.84375 22.7852 9.51408 22.7852 10.341C22.7852 11.1679 23.4555 11.8382 24.2824 11.8382Z" fill="#303030"/>
<path d="M29.458 8.81975C29.1365 7.98944 28.6451 7.23542 28.0154 6.60594C27.3857 5.97646 26.6315 5.4854 25.801 5.16419C24.8293 4.79941 23.8027 4.60217 22.7649 4.58086C21.4274 4.52253 21.0038 4.50586 17.6122 4.50586C14.2205 4.50586 13.7858 4.50586 12.4594 4.58086C11.4224 4.60108 10.3965 4.79836 9.42604 5.16419C8.5954 5.48503 7.84099 5.97596 7.21123 6.60548C6.58146 7.23501 6.09025 7.98923 5.7691 8.81975C5.40424 9.79143 5.20745 10.8181 5.18715 11.8559C5.12743 13.192 5.10938 13.6156 5.10938 17.0086C5.10938 20.4003 5.10937 20.8322 5.18715 22.1614C5.20799 23.2003 5.40382 24.2253 5.7691 25.1989C6.09115 26.0291 6.58284 26.7831 7.21276 27.4125C7.84267 28.0419 8.59696 28.533 9.42743 28.8545C10.3961 29.2339 11.4224 29.4453 12.4622 29.4795C13.7997 29.5378 14.2233 29.5559 17.6149 29.5559C21.0066 29.5559 21.4413 29.5559 22.7677 29.4795C23.8053 29.4584 24.8319 29.2616 25.8038 28.8975C26.634 28.5756 27.388 28.0841 28.0177 27.4544C28.6473 26.8248 29.1388 26.0708 29.4608 25.2406C29.826 24.2684 30.0219 23.2434 30.0427 22.2045C30.1024 20.8684 30.1205 20.4447 30.1205 17.0517C30.1205 13.6586 30.1205 13.2281 30.0427 11.8989C30.0265 10.8465 29.8287 9.80482 29.458 8.81975ZM27.7663 22.0586C27.7574 22.8591 27.6113 23.652 27.3344 24.4031C27.1258 24.9432 26.8065 25.4336 26.397 25.8429C25.9875 26.2522 25.4968 26.5712 24.9566 26.7795C24.2139 27.0551 23.4293 27.2012 22.6371 27.2114C21.3177 27.2725 20.9455 27.2878 17.5622 27.2878C14.176 27.2878 13.8302 27.2878 12.4858 27.2114C11.694 27.2017 10.9098 27.0556 10.1677 26.7795C9.62561 26.5725 9.13299 26.254 8.72172 25.8447C8.31046 25.4353 7.9897 24.9442 7.78021 24.4031C7.50722 23.6601 7.3612 22.8765 7.34826 22.085C7.28854 20.7656 7.27465 20.3934 7.27465 17.01C7.27465 13.6253 7.27465 13.2795 7.34826 11.9336C7.35724 11.1337 7.50334 10.3412 7.78021 9.59058C8.20382 8.49475 9.07187 7.63225 10.1677 7.2128C10.9102 6.938 11.6941 6.79192 12.4858 6.78086C13.8066 6.72114 14.1774 6.70447 17.5622 6.70447C20.9469 6.70447 21.2941 6.70447 22.6371 6.78086C23.4294 6.79039 24.214 6.93651 24.9566 7.2128C25.4968 7.42152 25.9873 7.74086 26.3968 8.15035C26.8063 8.55983 27.1257 9.0504 27.3344 9.59058C27.6074 10.3336 27.7534 11.1172 27.7663 11.9086C27.826 13.2295 27.8413 13.6003 27.8413 16.985C27.8413 20.3684 27.8413 20.7322 27.7816 22.06H27.7663V22.0586Z" fill="#303030"/>
</g>
</svg>
