<svg width="60" height="24" viewBox="0 0 60 24" fill="none" xmlns="http://www.w3.org/2000/svg">
<path d="M22.5304 23.9999H19.0933V15.3189C19.0933 13.246 17.9727 12.0478 16.2038 12.0478C14.3152 12.0478 12.9995 13.4437 12.9995 15.5825V23.9999H9.5309V15.3189C9.5309 13.246 8.40406 12.0478 6.63512 12.0478C4.74656 12.0478 3.43717 13.4437 3.43717 15.5825V23.9999H0V12.8087L3.29867 9.26203V11.1432C3.80324 10.5184 4.4541 10.0143 5.19945 9.6711C5.9448 9.32787 6.76405 9.15498 7.59199 9.16618C8.4872 9.1404 9.37249 9.35056 10.1501 9.77344C10.9277 10.1963 11.5674 10.8155 11.9986 11.5626C12.5531 10.8028 13.2973 10.1861 14.1643 9.76784C15.0312 9.34955 15.9938 9.14281 16.9655 9.16618C20.3334 9.16618 22.5116 11.3709 22.5116 14.9655L22.5304 23.9999Z" fill="#2A0D80"/>
<path d="M0 9.26246L8.14027 0.515625H0V9.26246Z" fill="#5FD7C2"/>
<path d="M37.7257 16.5525C41.3013 12.6344 42.4596 10.4657 42.4596 7.96743C42.4596 3.88757 39.0225 0.910056 34.7606 0.910056C33.7724 0.888602 32.7895 1.05364 31.8687 1.39563C30.9479 1.73763 30.1074 2.24982 29.3957 2.90263C28.684 3.55543 28.1152 4.33593 27.7221 5.19907C27.3291 6.06221 27.1196 6.99088 27.1057 7.93149V8.03333H30.738V7.99739C30.7339 7.48871 30.8354 6.98428 31.0369 6.51311C31.2384 6.04194 31.5358 5.61334 31.912 5.25197C32.2882 4.89061 32.7358 4.60361 33.229 4.40749C33.7222 4.21138 34.2513 4.11002 34.7858 4.10924C35.3265 4.10084 35.8634 4.1971 36.3638 4.39218C36.8642 4.58726 37.3178 4.87708 37.6969 5.24406C38.0761 5.61105 38.3729 6.04753 38.5694 6.52701C38.7658 7.00649 38.8579 7.51897 38.8399 8.03333C38.8399 9.7168 37.8579 11.562 35.1635 14.7073L27.0742 23.9993H41.8112L42.3904 20.7941H34.0493L37.7257 16.5525Z" fill="#5FD7C2"/>
<path d="M59.9877 19.0154H57.1801V23.9999H53.7429V19.0154H41.8828L57.1801 0V16.0678H60.0003L59.9877 19.0154ZM53.7303 16.0678V9.1662L48.2472 16.0678H53.7303Z" fill="#5FD7C2"/>
</svg>
