<svg width="24" height="24" viewBox="0 0 24 24" fill="none" xmlns="http://www.w3.org/2000/svg">
<path d="M18 0H6C4.896 0.0013 4.0013 0.896 4 2V20.4C4.0012 21.35 4.66945 22.1687 5.6 22.36V24H8V22.4H16V24H18.4V22.36C19.3305 22.1687 19.9988 21.35 20 20.4V2C19.9987 0.896 19.104 0.0013 18 0ZM7.2 23.2H6.4V22.4H7.2V23.2ZM17.6 23.2H16.8V22.4H17.6V23.2ZM19.2 20.4C19.2 21.0627 18.6627 21.6 18 21.6H6C5.33725 21.6 4.8 21.0627 4.8 20.4V2C4.8 1.33725 5.33725 0.8 6 0.8H18C18.6627 0.8 19.2 1.33725 19.2 2V20.4Z" fill="currentColor"/>
<path d="M11.9996 8C8.46501 8 5.59961 10.8654 5.59961 14.4C5.60381 17.9329 8.46671 20.7958 11.9996 20.8C15.5342 20.8 18.3996 17.9346 18.3996 14.4C18.3996 10.8654 15.5342 8 11.9996 8ZM11.9996 20C8.90681 20 6.39961 17.4928 6.39961 14.4C6.40291 11.3086 8.90821 8.8033 11.9996 8.8C15.0924 8.8 17.5996 11.3072 17.5996 14.4C17.5996 17.4928 15.0924 20 11.9996 20Z" fill="currentColor"/>
<path d="M11.9992 9.59961C9.34827 9.59961 7.19922 11.7487 7.19922 14.3996C7.20207 17.0494 9.34942 19.1968 11.9992 19.1996C14.6502 19.1996 16.7992 17.0506 16.7992 14.3996C16.7992 11.7487 14.6502 9.59961 11.9992 9.59961ZM11.9992 18.3996C9.79007 18.3996 7.99922 16.6088 7.99922 14.3996C8.00167 12.1915 9.79107 10.402 11.9992 10.3996C14.2084 10.3996 15.9992 12.1905 15.9992 14.3996C15.9992 16.6088 14.2084 18.3996 11.9992 18.3996Z" fill="currentColor"/>
<path d="M11.9992 1.59961C10.4528 1.59961 9.19922 2.85321 9.19922 4.39961C9.20097 5.94526 10.4536 7.19786 11.9992 7.19961C13.5456 7.19961 14.7992 5.94601 14.7992 4.39961C14.7992 2.85321 13.5456 1.59961 11.9992 1.59961ZM11.9992 6.39961C10.8947 6.39961 9.99922 5.50416 9.99922 4.39961C10.0005 3.29561 10.8952 2.40091 11.9992 2.39961C13.1038 2.39961 13.9992 3.29506 13.9992 4.39961C13.9992 5.50416 13.1038 6.39961 11.9992 6.39961Z" fill="currentColor"/>
<path d="M12.0008 3.19922C11.338 3.19922 10.8008 3.73647 10.8008 4.39922C10.8008 5.06197 11.338 5.59922 12.0008 5.59922C12.6635 5.59922 13.2008 5.06197 13.2008 4.39922C13.2008 3.73647 12.6635 3.19922 12.0008 3.19922ZM12.0008 4.79922C11.7799 4.79922 11.6008 4.62012 11.6008 4.39922C11.6008 4.17832 11.7799 3.99922 12.0008 3.99922C12.2217 3.99922 12.4008 4.17832 12.4008 4.39922C12.4008 4.62012 12.2217 4.79922 12.0008 4.79922Z" fill="currentColor"/>
<path d="M6.39961 1.59961H5.59961V2.39961H6.39961V1.59961Z" fill="currentColor"/>
<path d="M18.3996 1.59961H17.5996V2.39961H18.3996V1.59961Z" fill="currentColor"/>
<path d="M6.39961 20H5.59961V20.8H6.39961V20Z" fill="currentColor"/>
<path d="M18.3996 20H17.5996V20.8H18.3996V20Z" fill="currentColor"/>
<path d="M12 12.4004C10.8955 12.4004 10 13.2958 10 14.4004C10.0013 15.5044 10.896 16.3991 12 16.4004C13.1046 16.4004 14 15.5049 14 14.4004C14 13.2958 13.1046 12.4004 12 12.4004ZM12 15.6004C11.3372 15.6004 10.8 15.0631 10.8 14.4004C10.8 13.7376 11.3372 13.2004 12 13.2004C12.6628 13.2004 13.2 13.7376 13.2 14.4004C13.2 15.0631 12.6628 15.6004 12 15.6004Z" fill="currentColor"/>
</svg>
