<svg xmlns="http://www.w3.org/2000/svg" viewBox="0 0 24 24"><path d="M21.58,3.58H2.42a.43.43,0,0,0-.3.13A.38.38,0,0,0,2,4V16.5a.42.42,0,0,0,.12.3.47.47,0,0,0,.3.12H9.5v.91l-3.83.75a.44.44,0,0,0-.27.19.38.38,0,0,0-.07.31.47.47,0,0,0,.18.27.41.41,0,0,0,.32.07c4.95-1,3.07-.84,8.21-.84l4.21.84a.4.4,0,0,0,.31-.1.43.43,0,0,0,.15-.28.4.4,0,0,0-.09-.3.47.47,0,0,0-.29-.16l-3.83-.75v-.91h7.08a.47.47,0,0,0,.3-.12.42.42,0,0,0,.12-.3V4a.38.38,0,0,0-.12-.29A.43.43,0,0,0,21.58,3.58Zm-.41.84v10H2.83v-10ZM2.83,15.25h.84v.83H2.83Zm10.84,2.5H10.33v-.83h3.34ZM4.5,16.08v-.83H21.17v.83Z"/></svg>