<svg width="24" height="24" viewBox="0 0 24 24" fill="none" xmlns="http://www.w3.org/2000/svg">
<path d="M23.5 2H0.5C0.367392 2 0.240215 2.05268 0.146447 2.14645C0.0526784 2.24021 0 2.36739 0 2.5L0 17.5C0 17.6326 0.0526784 17.7598 0.146447 17.8536C0.240215 17.9473 0.367392 18 0.5 18H9V19.09L4.4 20C4.26739 20.0265 4.15075 20.1046 4.07574 20.2172C4.00072 20.3297 3.97348 20.4674 4 20.6C4.02652 20.7326 4.10464 20.8492 4.21716 20.9243C4.32968 20.9993 4.46739 21.0265 4.6 21C10.54 19.81 8.28 20 14.45 20C19.76 21.06 19.45 21 19.5 21C19.6326 21.0133 19.7651 20.9733 19.8682 20.8889C19.9713 20.8045 20.0367 20.6826 20.05 20.55C20.0633 20.4174 20.0233 20.2849 19.9389 20.1818C19.8545 20.0787 19.7326 20.0133 19.6 20L15 19.09V18H23.5C23.6326 18 23.7598 17.9473 23.8536 17.8536C23.9473 17.7598 24 17.6326 24 17.5V2.5C24 2.36739 23.9473 2.24021 23.8536 2.14645C23.7598 2.05268 23.6326 2 23.5 2ZM23 3V15H1V3H23ZM1 16H2V17H1V16ZM14 19H10V18H14V19ZM3 17V16H23V17H3Z" fill="currentColor"/>
</svg>
