<svg width="26" height="22" viewBox="0 0 26 22" fill="none" xmlns="http://www.w3.org/2000/svg">
<path d="M2 14H5C5.825 14 6.5 13.325 6.5 12.5V9.5C6.5 8.675 5.825 8 5 8H2C1.175 8 0.5 8.675 0.5 9.5V12.5C0.5 13.325 1.175 14 2 14ZM2 21.5H5C5.825 21.5 6.5 20.825 6.5 20V17C6.5 16.175 5.825 15.5 5 15.5H2C1.175 15.5 0.5 16.175 0.5 17V20C0.5 20.825 1.175 21.5 2 21.5ZM2 6.5H5C5.825 6.5 6.5 5.825 6.5 5V2C6.5 1.175 5.825 0.5 5 0.5H2C1.175 0.5 0.5 1.175 0.5 2V5C0.5 5.825 1.175 6.5 2 6.5ZM9.5 14H24.5C25.325 14 26 13.325 26 12.5V9.5C26 8.675 25.325 8 24.5 8H9.5C8.675 8 8 8.675 8 9.5V12.5C8 13.325 8.675 14 9.5 14ZM9.5 21.5H24.5C25.325 21.5 26 20.825 26 20V17C26 16.175 25.325 15.5 24.5 15.5H9.5C8.675 15.5 8 16.175 8 17V20C8 20.825 8.675 21.5 9.5 21.5ZM8 2V5C8 5.825 8.675 6.5 9.5 6.5H24.5C25.325 6.5 26 5.825 26 5V2C26 1.175 25.325 0.5 24.5 0.5H9.5C8.675 0.5 8 1.175 8 2Z" fill="currentColor"/>
</svg>
