<svg width="29" height="18" viewBox="0 0 29 18" fill="none" xmlns="http://www.w3.org/2000/svg">
<path d="M27.5251 1.85382C27.7195 1.20799 27.5251 0.734375 26.6056 0.734375H23.5598C22.7848 0.734375 22.4306 1.1441 22.2362 1.5941C22.2362 1.5941 20.6876 5.37049 18.4931 7.8191C17.7848 8.5316 17.4612 8.7566 17.0751 8.7566C16.882 8.7566 16.6015 8.5316 16.6015 7.88576V1.85382C16.6015 1.07882 16.3779 0.734375 15.732 0.734375H10.9459C10.4626 0.734375 10.1709 1.09271 10.1709 1.43438C10.1709 2.16771 11.2681 2.33715 11.3806 4.40382V8.88715C11.3806 9.8691 11.2043 10.0483 10.8154 10.0483C9.78342 10.0483 7.27231 6.25799 5.78203 1.9191C5.49175 1.07604 5.1987 0.735764 4.42092 0.735764H1.37648C0.505643 0.735764 0.332031 1.14549 0.332031 1.59549C0.332031 2.40382 1.36398 6.40382 5.13898 11.6941C7.65564 15.3066 11.1987 17.2649 14.4265 17.2649C16.3612 17.2649 16.6001 16.8302 16.6001 16.0802V13.3497C16.6001 12.4802 16.7848 12.3052 17.3973 12.3052C17.8473 12.3052 18.6223 12.533 20.4293 14.2733C22.4931 16.3372 22.8348 17.2635 23.9945 17.2635H27.039C27.9084 17.2635 28.3431 16.8288 28.0931 15.9705C27.8195 15.1163 26.8334 13.8733 25.5251 12.4024C24.814 11.5635 23.7515 10.6608 23.4279 10.2094C22.9765 9.62743 23.107 9.37049 23.4279 8.85382C23.4293 8.85521 27.139 3.63021 27.5251 1.85382Z" fill="#303030"/>
</svg>
