<svg width="40" height="40" viewBox="0 0 40 40" xmlns="http://www.w3.org/2000/svg">
<circle cx="20" cy="20" r="19.5" stroke="currentColor" fill="none"/>
<path d="M29.3798 14.806C29.5198 14.341 29.3798 14 28.7178 14H26.5248C25.9668 14 25.7118 14.295 25.5718 14.619C25.5718 14.619 24.4568 17.338 22.8768 19.101C22.3668 19.614 22.1338 19.776 21.8558 19.776C21.7168 19.776 21.5148 19.614 21.5148 19.149V14.806C21.5148 14.248 21.3538 14 20.8888 14H17.4428C17.0948 14 16.8848 14.258 16.8848 14.504C16.8848 15.032 17.6748 15.154 17.7558 16.642V19.87C17.7558 20.577 17.6288 20.706 17.3488 20.706C16.6058 20.706 14.7978 17.977 13.7248 14.853C13.5158 14.246 13.3048 14.001 12.7448 14.001H10.5528C9.92578 14.001 9.80078 14.296 9.80078 14.62C9.80078 15.202 10.5438 18.082 13.2618 21.891C15.0738 24.492 17.6248 25.902 19.9488 25.902C21.3418 25.902 21.5138 25.589 21.5138 25.049V23.083C21.5138 22.457 21.6468 22.331 22.0878 22.331C22.4118 22.331 22.9698 22.495 24.2708 23.748C25.7568 25.234 26.0028 25.901 26.8378 25.901H29.0298C29.6558 25.901 29.9688 25.588 29.7888 24.97C29.5918 24.355 28.8818 23.46 27.9398 22.401C27.4278 21.797 26.6628 21.147 26.4298 20.822C26.1048 20.403 26.1988 20.218 26.4298 19.846C26.4308 19.847 29.1018 16.085 29.3798 14.806Z"/>
</svg>
