<svg width="24" height="24" viewBox="0 0 24 24" fill="none" xmlns="http://www.w3.org/2000/svg">
<path d="M15.2899 6.19336H7.54801C6.90669 6.19336 6.38672 6.71333 6.38672 7.35465V16.645C6.38672 17.2863 6.90669 17.8063 7.54801 17.8063H15.2899C15.9313 17.8063 16.4512 17.2863 16.4512 16.645V7.35465C16.4512 6.71333 15.9313 6.19336 15.2899 6.19336ZM15.677 16.645C15.677 16.8587 15.5037 17.0321 15.2899 17.0321H7.54801C7.33424 17.0321 7.16091 16.8587 7.16091 16.645V7.35465C7.16091 7.14088 7.33424 6.96755 7.54801 6.96755H15.2899C15.5037 6.96755 15.677 7.14088 15.677 7.35465V16.645Z" fill="currentColor"/>
<path d="M18.7734 11.2258C18.9871 11.2258 19.1605 11.0525 19.1605 10.8387V8.12903C19.1605 7.91526 18.9871 7.74194 18.7734 7.74194H17.9992V6.58065C17.9963 5.77281 17.4921 5.05154 16.7341 4.7718C16.7027 4.73683 16.6653 4.70772 16.6237 4.6858C16.6107 4.67918 15.2895 3.99364 15.2895 3.09677V0.387097C15.2895 0.173324 15.1162 0 14.9024 0H7.93467C7.72089 0 7.54757 0.173324 7.54757 0.387097V3.09677C7.54757 3.8481 6.58417 4.49887 6.21239 4.68618C6.17137 4.70791 6.13451 4.73683 6.1037 4.7718C5.34558 5.05135 4.84091 5.77262 4.83789 6.58065V17.4194C4.84073 18.2272 5.34501 18.9485 6.10295 19.2282C6.13432 19.2632 6.17175 19.2923 6.21333 19.3142C6.22637 19.3208 7.54757 20.0064 7.54757 20.9032V23.6129C7.54757 23.8267 7.72089 24 7.93467 24H14.9024C15.1162 24 15.2895 23.8267 15.2895 23.6129V20.9032C15.2895 20.1519 16.2529 19.5011 16.6247 19.3138C16.6657 19.2921 16.7026 19.2632 16.7334 19.2282C17.4915 18.9487 17.9962 18.2274 17.9992 17.4194V16.2581H18.7734C18.9871 16.2581 19.1605 16.0847 19.1605 15.871V13.1613C19.1605 12.9475 18.9871 12.7742 18.7734 12.7742H17.9992V11.2258H18.7734ZM18.3863 8.51613V10.4516H17.9992V8.51613H18.3863ZM8.32176 3.09677V0.774194H14.5153V3.09677C14.5471 3.6933 14.8185 4.25164 15.2678 4.64516H7.5693C8.01859 4.25164 8.29001 3.6933 8.32176 3.09677ZM14.5153 20.9032V23.2258H8.32176V20.9032C8.29001 20.3067 8.01859 19.7484 7.5693 19.3548H15.2678C14.8185 19.7484 14.5471 20.3067 14.5153 20.9032ZM17.225 17.4194C17.225 18.0607 16.705 18.5806 16.0637 18.5806H6.77337C6.13206 18.5806 5.61208 18.0607 5.61208 17.4194V6.58065C5.61208 5.93933 6.13206 5.41935 6.77337 5.41935H16.0637C16.705 5.41935 17.225 5.93933 17.225 6.58065V17.4194ZM18.3863 13.5484V15.4839H17.9992V13.5484H18.3863Z" fill="currentColor"/>
<path d="M11.4198 8.12891C9.28188 8.12891 7.54883 9.86196 7.54883 11.9999C7.54883 14.1378 9.28188 15.8708 11.4198 15.8708C13.5577 15.8708 15.2908 14.1378 15.2908 11.9999C15.2885 9.8629 13.5568 8.13117 11.4198 8.12891ZM11.4198 15.0966C9.70943 15.0966 8.32302 13.7102 8.32302 11.9999C8.32302 10.2895 9.70943 8.9031 11.4198 8.9031C13.1302 8.9031 14.5166 10.2895 14.5166 11.9999C14.5147 13.7093 13.1292 15.0948 11.4198 15.0966Z" fill="currentColor"/>
<path d="M12.3067 10.5647L11.617 11.2546C11.5526 11.2361 11.4861 11.2265 11.4191 11.2255C11.4148 11.2255 11.411 11.2255 11.4067 11.2255L10.5896 9.86368C10.5196 9.74252 10.3898 9.66843 10.2497 9.66994C10.1099 9.67165 9.98171 9.74857 9.91461 9.87143C9.84751 9.99429 9.85186 10.1438 9.92614 10.2625L10.7444 11.6266C10.6799 11.7404 10.6455 11.8689 10.645 11.9997C10.645 12.4272 10.9916 12.7739 11.4191 12.7739C11.8467 12.7739 12.1933 12.4272 12.1933 11.9997C12.1924 11.9328 12.1828 11.8663 12.1642 11.8018L12.8541 11.1121C13.0008 10.9601 12.9987 10.7188 12.8494 10.5694C12.7001 10.4201 12.4587 10.4181 12.3067 10.5647Z" fill="currentColor"/>
</svg>
