<svg width="24" height="24" viewBox="0 0 24 24" fill="none" xmlns="http://www.w3.org/2000/svg">
<g clip-path="url(#clip54)">
<path d="M23.9185 13.7205C23.5915 11.9532 23.1455 10.1126 22.555 8.09364C21.9683 6.0885 20.1677 4.69324 18.0748 4.62171C14.0438 4.48287 9.95608 4.48287 5.92527 4.62171C3.83224 4.69324 2.03171 6.0885 1.44489 8.09373C0.854459 10.1127 0.408497 11.9532 0.0815024 13.7206C-0.38724 16.2543 1.21084 18.7134 3.71956 19.319L3.80726 19.3401C4.19031 19.4327 4.5767 19.4784 4.95999 19.4784C5.86869 19.4784 6.76024 19.2213 7.54932 18.7213C8.59124 18.061 9.3252 17.059 9.63818 15.8793C10.3477 15.7957 10.9428 15.3335 11.2148 14.7004C11.476 14.7008 11.7378 14.7011 12 14.7011C12.2622 14.7011 12.524 14.7008 12.7851 14.7004C13.0572 15.3337 13.6525 15.796 14.3622 15.8793C14.6812 17.0832 15.4354 18.098 16.5081 18.757C16.54 18.7766 16.5739 18.7905 16.6084 18.799C16.6359 18.8057 16.6639 18.809 16.6918 18.809C16.8099 18.809 16.9253 18.7495 16.9917 18.6415C17.0933 18.4761 17.0415 18.2595 16.8761 18.1579C15.9992 17.6192 15.3721 16.8022 15.0803 15.8322C15.9298 15.6148 16.5597 14.8429 16.5597 13.9266C16.5597 12.8421 15.6775 11.9598 14.593 11.9598C13.5085 11.9598 12.6262 12.8421 12.6262 13.9266C12.6262 13.9504 12.6272 13.974 12.628 13.9975C12.2099 13.9981 11.79 13.9981 11.372 13.9975C11.3728 13.974 11.3737 13.9504 11.3737 13.9266C11.3737 12.8421 10.4915 11.9598 9.407 11.9598C8.32251 11.9598 7.44025 12.8421 7.44025 13.9266C7.44025 14.8431 8.07042 15.6151 8.92021 15.8323C8.63399 16.7822 8.02397 17.5882 7.17306 18.1274C6.21345 18.7355 5.0768 18.9235 3.97127 18.6564L3.88469 18.6356C1.73902 18.1177 0.37217 16.015 0.772945 13.8486C1.09558 12.1049 1.53615 10.2871 2.11978 8.29126C2.62115 6.57791 4.16013 5.38567 5.94941 5.32454C6.19794 5.31596 6.44665 5.30795 6.6956 5.30045C6.70254 5.47154 6.71318 5.64526 6.72855 5.82089C6.78776 6.4761 7.16861 7.0513 7.74732 7.35954C7.80001 7.38757 7.85654 7.40088 7.91232 7.40088C7.91716 7.40088 7.922 7.40078 7.92684 7.40058C8.04733 7.39559 8.16211 7.32867 8.22291 7.21451C8.31417 7.04314 8.24925 6.83024 8.07788 6.73893C7.70926 6.54262 7.46664 6.17573 7.4289 5.75855C7.41479 5.5974 7.40495 5.43788 7.39844 5.28076C10.4579 5.20093 13.5421 5.20093 16.6016 5.28076C16.5951 5.43784 16.5853 5.59716 16.5712 5.7578C16.5159 6.37406 16.01 6.85686 15.3945 6.88077C13.37 6.95994 11.3213 6.96809 9.30537 6.90505C9.11127 6.89778 8.94908 7.05139 8.94299 7.24545C8.93694 7.43951 9.08933 7.60174 9.28339 7.60779C10.1838 7.63596 11.0903 7.65002 11.9988 7.65002C13.1406 7.65002 14.2853 7.62776 15.4219 7.58332C16.3895 7.54577 17.1846 6.788 17.2715 5.81991C17.2868 5.64488 17.2975 5.4714 17.3044 5.3004C17.5533 5.3079 17.8021 5.31592 18.0507 5.3245C19.8398 5.38562 21.3788 6.57787 21.8802 8.29117C22.4639 10.287 22.9044 12.1049 23.227 13.8485C23.6278 16.0149 22.261 18.1177 20.1152 18.6356L20.0275 18.6567C19.3726 18.815 18.7112 18.8142 18.0618 18.6542C17.8734 18.6079 17.6828 18.723 17.6364 18.9116C17.599 19.0636 17.6666 19.2169 17.7931 19.2949C17.8235 19.3136 17.8572 19.328 17.8937 19.337C18.6536 19.5241 19.4271 19.5251 20.1927 19.3401L20.2802 19.3191C22.7891 18.7133 24.3872 16.2542 23.9185 13.7205ZM14.593 12.6628C15.2898 12.6628 15.8566 13.2296 15.8566 13.9264C15.8566 14.6232 15.2897 15.19 14.593 15.19C13.8962 15.19 13.3293 14.6231 13.3293 13.9264C13.3293 13.2297 13.8962 12.6628 14.593 12.6628ZM8.14331 13.9264C8.14331 13.2296 8.71021 12.6628 9.40695 12.6628C10.1037 12.6628 10.6706 13.2296 10.6706 13.9264C10.6706 14.6232 10.1037 15.19 9.40695 15.19C8.71021 15.19 8.14331 14.6232 8.14331 13.9264Z" fill="currentColor"/>
<path d="M16.6918 18.809C16.6639 18.809 16.6359 18.8057 16.6084 18.799L17.7931 19.2949C17.6666 19.2169 17.599 19.0636 17.6364 18.9116C17.6828 18.723 17.8734 18.6079 18.0618 18.6542L16.8761 18.1579C17.0415 18.2595 17.0933 18.4761 16.9917 18.6415C16.9253 18.7495 16.8099 18.809 16.6918 18.809Z" fill="currentColor"/>
<path d="M8.22291 7.21451C8.16211 7.32867 8.04733 7.39559 7.92684 7.40058C8.29983 7.48259 8.90198 7.59712 9.28339 7.60779C9.08933 7.60174 8.93694 7.43951 8.94299 7.24545C8.94908 7.05139 9.11127 6.89778 9.30537 6.90505C8.9534 6.89496 8.34039 6.79009 8.07788 6.73893C8.24925 6.83024 8.31417 7.04314 8.22291 7.21451Z" fill="currentColor"/>
<path d="M6.62576 9.10818C6.6034 9.10757 6.58108 9.10696 6.55872 9.1064C6.55816 9.08404 6.55755 9.06168 6.55694 9.03932C6.53609 8.27073 5.9188 7.6683 5.15142 7.66797H5.1307C4.36347 7.66834 3.74618 8.27073 3.72532 9.03937C3.72471 9.06173 3.7241 9.08409 3.72354 9.1064C3.70118 9.10696 3.67887 9.10757 3.65651 9.10818C2.88791 9.12899 2.28548 9.74633 2.28516 10.5137V10.5344C2.28553 11.3017 2.88791 11.919 3.65656 11.9398C3.67887 11.9404 3.70123 11.941 3.72354 11.9416C3.7241 11.964 3.72471 11.9863 3.72532 12.0086C3.74618 12.7772 4.36347 13.3796 5.13084 13.38H5.15156C5.9188 13.3796 6.53609 12.7773 6.55694 12.0086C6.55755 11.9863 6.55816 11.964 6.55872 11.9416C6.58108 11.941 6.6034 11.9404 6.62576 11.9398C7.39435 11.919 7.99678 11.3017 7.99711 10.5343V10.5136C7.99673 9.74633 7.39435 9.12904 6.62576 9.10818ZM7.29399 10.5341C7.29381 10.9178 6.99189 11.2265 6.60672 11.237C6.47384 11.2406 6.34085 11.2437 6.20797 11.2464C6.0193 11.2501 5.86719 11.4022 5.86344 11.5909C5.86082 11.7238 5.85768 11.8568 5.85411 11.9896C5.84366 12.3749 5.5349 12.6768 5.15142 12.677H5.13103C4.74737 12.6768 4.43865 12.3749 4.42815 11.9897C4.42454 11.8568 4.42145 11.7238 4.41882 11.5909C4.41507 11.4022 4.26301 11.2501 4.0743 11.2464C3.94141 11.2437 3.80843 11.2406 3.67554 11.237C3.29033 11.2266 2.98841 10.9178 2.98822 10.5343V10.5139C2.98841 10.1303 3.29033 9.82156 3.67549 9.81106C3.80838 9.80745 3.94132 9.80436 4.0742 9.80173C4.26292 9.79803 4.41503 9.64592 4.41878 9.45721C4.4214 9.32427 4.42454 9.19129 4.4281 9.0584C4.43856 8.67319 4.74732 8.37127 5.1308 8.37108H5.15119C5.53485 8.37127 5.84357 8.67319 5.85407 9.05836C5.85767 9.19129 5.86077 9.32423 5.86339 9.45721C5.86714 9.64592 6.01925 9.79803 6.20797 9.80173C6.34085 9.80436 6.47374 9.80745 6.60663 9.81106C6.99184 9.82152 7.29376 10.1303 7.29395 10.5138V10.5341H7.29399Z" fill="currentColor"/>
<path d="M19.7669 10.8228C20.1292 10.8228 20.47 10.6817 20.7262 10.4254C20.9825 10.1692 21.1236 9.82847 21.1236 9.46612C21.1236 9.10373 20.9825 8.763 20.7262 8.50678C20.47 8.25052 20.1292 8.10938 19.7669 8.10938C19.4045 8.10938 19.0638 8.25052 18.8076 8.50678C18.5513 8.763 18.4102 9.10373 18.4102 9.46612C18.4102 9.82847 18.5513 10.1692 18.8076 10.4254C19.0638 10.6816 19.4045 10.8228 19.7669 10.8228ZM19.3047 9.00394C19.4281 8.88052 19.5923 8.8125 19.7669 8.8125C19.9415 8.8125 20.1056 8.88052 20.229 9.00394C20.4838 9.2588 20.4838 9.67341 20.229 9.92822C20.1055 10.0516 19.9414 10.1196 19.7669 10.1196C19.5923 10.1196 19.4281 10.0516 19.3047 9.92822C19.0499 9.67341 19.0499 9.25875 19.3047 9.00394Z" fill="currentColor"/>
<path d="M16.6865 10.6259C16.4302 10.8821 16.2891 11.2229 16.2891 11.5853C16.2891 11.9476 16.4302 12.2883 16.6865 12.5446C16.9427 12.8008 17.2834 12.9419 17.6458 12.9419C18.0082 12.9419 18.3489 12.8008 18.6051 12.5446C18.8614 12.2883 19.0025 11.9476 19.0025 11.5853C19.0025 11.2229 18.8614 10.8821 18.6051 10.6259C18.3489 10.3697 18.0082 10.2285 17.6458 10.2285C17.2834 10.2285 16.9427 10.3697 16.6865 10.6259ZM18.108 12.0474C17.8531 12.3022 17.4385 12.3022 17.1837 12.0474C16.9289 11.7925 16.9289 11.3779 17.1837 11.1231C17.3111 10.9957 17.4785 10.932 17.6458 10.932C17.8132 10.932 17.9805 10.9957 18.108 11.1231C18.3628 11.3779 18.3628 11.7925 18.108 12.0474Z" fill="currentColor"/>
<path d="M11.0157 8.875C10.4643 8.875 10.0156 9.32363 10.0156 9.87506C10.0156 10.4265 10.4643 10.8751 11.0157 10.8751H13.0959C13.6473 10.8751 14.096 10.4265 14.096 9.87506C14.096 9.32363 13.6473 8.875 13.0959 8.875H11.0157ZM13.3929 9.87511C13.3929 10.0388 13.2596 10.1721 13.0959 10.1721H11.0157C10.852 10.1721 10.7187 10.0388 10.7187 9.87511C10.7187 9.71138 10.852 9.57816 11.0157 9.57816H13.0959C13.2596 9.57812 13.3929 9.71138 13.3929 9.87511Z" fill="currentColor"/>
</g>
<defs>
<clipPath id="clip54">
<rect width="24" height="24" fill="white"/>
</clipPath>
</defs>
</svg>
