<svg width="28" height="24" viewBox="0 0 28 24" fill="none" xmlns="http://www.w3.org/2000/svg">
<path d="M25.5926 5.04644C25.4871 4.63255 24.1566 3.27838 23.8135 3.18255C23.2066 3.01172 20.2483 2.62283 13.9983 2.62283C7.74826 2.62283 4.79271 3.01172 4.18021 3.18255C3.84132 3.277 2.51085 4.63116 2.40391 5.04644C2.25252 5.63533 1.85669 8.10338 1.85669 11.9978C1.85669 15.8923 2.25252 18.3589 2.40391 18.9506C2.50946 19.3631 3.83993 20.7173 4.1816 20.8117C4.79271 20.9839 7.74826 21.3728 13.9983 21.3728C20.2483 21.3728 23.2052 20.9839 23.8163 20.8131C24.1552 20.7187 25.4857 19.3645 25.5926 18.9492C25.744 18.3603 26.1398 15.8867 26.1398 11.9978C26.1398 8.10894 25.744 5.63672 25.5926 5.04644ZM27.2524 4.35616C27.8871 6.83116 27.8871 11.9978 27.8871 11.9978C27.8871 11.9978 27.8871 17.1645 27.2524 19.6395C26.8996 21.0076 25.8677 22.0839 24.5608 22.4478C22.1871 23.1089 13.9983 23.1089 13.9983 23.1089C13.9983 23.1089 5.81354 23.1089 3.43576 22.4478C2.12326 22.0784 1.09271 21.0034 0.744097 19.6395C0.109375 17.1645 0.109375 11.9978 0.109375 11.9978C0.109375 11.9978 0.109375 6.83116 0.744097 4.35616C1.09687 2.98811 2.12882 1.91172 3.43576 1.54783C5.81354 0.886719 13.9983 0.886719 13.9983 0.886719C13.9983 0.886719 22.1871 0.886719 24.5608 1.54783C25.8733 1.91727 26.9038 2.99227 27.2524 4.35616ZM11.2205 16.8589V7.13672L19.5538 11.9978L11.2205 16.8589Z" fill="#303030"/>
</svg>
