<svg width="40" height="40" viewBox="0 0 40 40" xmlns="http://www.w3.org/2000/svg">
<circle cx="20" cy="20" r="19.5" stroke="currentColor" fill="none"/>
<path d="M28.3479 14.8078C28.2719 14.5284 27.314 13.6144 27.067 13.5497C26.63 13.4344 24.5 13.1719 20 13.1719C15.5 13.1719 13.372 13.4344 12.931 13.5497C12.687 13.6134 11.7291 14.5275 11.6521 14.8078C11.5431 15.2053 11.2581 16.8713 11.2581 19.5C11.2581 22.1287 11.5431 23.7938 11.6521 24.1931C11.7281 24.4716 12.686 25.3856 12.932 25.4494C13.372 25.5656 15.5 25.8281 20 25.8281C24.5 25.8281 26.629 25.5656 27.069 25.4503C27.313 25.3866 28.2709 24.4725 28.3479 24.1922C28.4569 23.7947 28.7419 22.125 28.7419 19.5C28.7419 16.875 28.4569 15.2062 28.3479 14.8078ZM29.543 14.3419C30 16.0125 30 19.5 30 19.5C30 19.5 30 22.9875 29.543 24.6581C29.289 25.5816 28.546 26.3081 27.605 26.5538C25.896 27 20 27 20 27C20 27 14.107 27 12.395 26.5538C11.45 26.3044 10.708 25.5788 10.457 24.6581C10 22.9875 10 19.5 10 19.5C10 19.5 10 16.0125 10.457 14.3419C10.711 13.4184 11.454 12.6919 12.395 12.4462C14.107 12 20 12 20 12C20 12 25.896 12 27.605 12.4462C28.55 12.6956 29.292 13.4213 29.543 14.3419ZM18 22.7812V16.2188L24 19.5L18 22.7812Z"/>
</svg>
