<svg width="70" height="70" viewBox="0 0 70 70" fill="none" xmlns="http://www.w3.org/2000/svg">
<circle cx="35" cy="35" r="35" fill="#303030"/>
<path d="M14.8193 25.998H13.3203V28.1514C13.3203 28.9912 13.54 29.6455 13.9844 30.1045C14.4238 30.5684 15.0391 30.7979 15.8203 30.7979C16.4844 30.8027 17.0361 30.6709 17.4707 30.4023V33H18.9697V25.998H17.4707V28.9521L17.2998 29.0791C17.1924 29.1621 17.0215 29.2451 16.7871 29.3281C16.5527 29.4111 16.3135 29.4502 16.0693 29.4502C15.6689 29.4502 15.3564 29.3428 15.1416 29.1182C14.9268 28.8936 14.8193 28.5713 14.8193 28.1514V25.998ZM22.2754 31.6523V30.0996H25.1221V28.752H22.2754V27.3506H25.9229V25.998H20.7715V33H26.0254V31.6523H22.2754ZM27.4219 25.998V33H28.9258V30.7002H30.3711C31.0938 30.7002 31.6895 30.4756 32.1631 30.0264C32.6318 29.5771 32.8711 29.0156 32.8711 28.3516C32.8711 27.6875 32.6318 27.126 32.1582 26.6768C31.6846 26.2275 31.0889 26.0029 30.3711 26.0029L27.4219 25.998ZM30.3223 27.3555C30.6201 27.3555 30.8691 27.4482 31.0693 27.6436C31.2695 27.8389 31.3721 28.0732 31.3721 28.3564C31.3721 28.6348 31.2695 28.8691 31.0693 29.0645C30.8691 29.2549 30.6201 29.3525 30.3223 29.3525H28.9258V27.3555H30.3223ZM40.2197 25.998H38.7207V28.8008H35.7227V25.998H34.2188V33H35.7227V30.1484H38.7207V33H40.2197V25.998ZM45.625 30.0508H43.9209L44.7754 27.751L45.625 30.0508ZM46.123 31.3496L46.7236 33H48.3252L45.5713 25.998H43.9746L41.2207 33H42.8223L43.4229 31.3496H46.123ZM54.5264 25.998H51.4258C50.7324 25.998 50.1562 26.2227 49.707 26.6621C49.2529 27.1064 49.0283 27.6533 49.0283 28.3027C49.0283 28.5811 49.0723 28.8447 49.1602 29.0938C49.248 29.3379 49.3506 29.5332 49.4629 29.6748C49.5703 29.8115 49.6973 29.9434 49.8438 30.0654C49.9854 30.1826 50.083 30.2607 50.1416 30.29C50.2002 30.3193 50.2441 30.3389 50.2783 30.3535L48.7793 33.0049H50.376L51.7285 30.5537H53.0273V33.0049H54.5264V25.998ZM50.5273 28.3027C50.5273 28.0293 50.6152 27.7998 50.7959 27.624C50.9766 27.4434 51.2061 27.3555 51.4795 27.3555H53.0273V29.2061H51.4795C51.2061 29.2061 50.9766 29.1182 50.7959 28.9424C50.6152 28.7666 50.5273 28.5566 50.5273 28.3027ZM16.0205 37.998H10.0684V45H11.5723V39.3506H14.5215V45H16.0205V37.998ZM23.0225 37.998H19.9219C19.2285 37.998 18.6523 38.2227 18.2031 38.6621C17.749 39.1064 17.5244 39.6533 17.5244 40.3027C17.5244 40.5811 17.5684 40.8447 17.6562 41.0938C17.7441 41.3379 17.8467 41.5332 17.959 41.6748C18.0664 41.8115 18.1934 41.9434 18.3398 42.0654C18.4814 42.1826 18.5791 42.2607 18.6377 42.29C18.6963 42.3193 18.7402 42.3389 18.7744 42.3535L17.2754 45.0049H18.8721L20.2246 42.5537H21.5234V45.0049H23.0225V37.998ZM19.0234 40.3027C19.0234 40.0293 19.1113 39.7998 19.292 39.624C19.4727 39.4434 19.7021 39.3555 19.9756 39.3555H21.5234V41.2061H19.9756C19.7021 41.2061 19.4727 41.1182 19.292 40.9424C19.1113 40.7666 19.0234 40.5566 19.0234 40.3027ZM24.126 37.998V39.3506H26.1279V45H27.627V39.3506H29.624V37.998H24.126ZM36.7236 37.998H35.2246V40.8008H32.2266V37.998H30.7227V45H32.2266V42.1484H35.2246V45H36.7236V37.998ZM44.7754 45V37.998H43.4766L40.0293 42.4512V37.998H38.5254V45H39.8291L43.2764 40.5518V45H44.7754ZM46.5723 45H51.7725V46.4502H53.2715V43.6523H52.4219V37.998H50.9229V43.6523H48.0762V37.998H46.5723V45ZM58.0273 42.0508H56.3232L57.1777 39.751L58.0273 42.0508ZM58.5254 43.3496L59.126 45H60.7275L57.9736 37.998H56.377L53.623 45H55.2246L55.8252 43.3496H58.5254Z" fill="white"/>
</svg>
