<svg width="70" height="70" viewBox="0 0 70 70" fill="none" xmlns="http://www.w3.org/2000/svg">
<circle cx="35" cy="35" r="35" fill="#303030"/>
<g filter="url(#filter0_d)">
<path d="M21.4287 25.8516C20.3594 25.8516 19.4561 26.208 18.7236 26.9209C17.9912 27.6338 17.625 28.4932 17.625 29.499C17.625 30.5049 17.9912 31.3691 18.7236 32.082C19.4561 32.7949 20.3594 33.1514 21.4287 33.1514C21.79 33.1514 22.1416 33.1025 22.4834 33C22.8252 32.9023 23.0986 32.79 23.3086 32.668C23.5186 32.5459 23.7139 32.4043 23.8994 32.2432C24.085 32.082 24.2021 31.9697 24.2559 31.9062C24.3096 31.8428 24.3486 31.7891 24.3779 31.75L23.4746 30.7979L23.3965 30.9004C23.3428 30.9736 23.2598 31.0566 23.1426 31.1543C23.0254 31.252 22.8887 31.3496 22.7373 31.4473C22.5811 31.5449 22.3906 31.6279 22.1562 31.6963C21.9219 31.7646 21.6826 31.7988 21.4287 31.7988C20.7744 31.7988 20.2275 31.5791 19.7881 31.1396C19.3486 30.7002 19.1289 30.1533 19.1289 29.499C19.1289 28.8447 19.3486 28.2979 19.7881 27.8584C20.2275 27.4189 20.7744 27.1992 21.4287 27.1992C21.6631 27.1992 21.8975 27.2383 22.127 27.3115C22.3516 27.3848 22.5371 27.4629 22.6787 27.5508C22.8154 27.6387 22.9473 27.7363 23.0645 27.8486C23.1816 27.9658 23.2598 28.0439 23.2939 28.0928C23.3281 28.1416 23.3574 28.1758 23.377 28.2002L24.3291 27.248L24.2168 27.1016C24.1436 27.0088 24.0264 26.8916 23.8604 26.7549C23.6943 26.6182 23.5088 26.4814 23.2939 26.3447C23.0791 26.208 22.8105 26.0957 22.4785 25.998C22.1465 25.9004 21.7949 25.8516 21.4287 25.8516ZM26.1699 25.998H24.5684L27.0684 30.5V33H28.5723V30.5L31.0723 25.998H29.4707L27.8203 29.001L26.1699 25.998ZM35.2422 33C35.9355 33 36.502 32.7998 36.9512 32.3945C37.3955 31.9941 37.6201 31.5107 37.6201 30.9492C37.6201 30.7246 37.5762 30.5146 37.4932 30.3193C37.4102 30.124 37.3174 29.9678 37.2197 29.8506C37.1172 29.7383 37 29.6357 36.8682 29.5381C36.7314 29.4404 36.6387 29.3818 36.5898 29.3574C36.541 29.333 36.4971 29.3135 36.4678 29.2988L36.5508 29.25C36.5996 29.2207 36.668 29.1621 36.7461 29.084C36.8242 29.0059 36.9072 28.9082 36.9902 28.7959C37.0684 28.6885 37.1367 28.5469 37.1904 28.3809C37.2393 28.2148 37.2686 28.0342 37.2686 27.8486C37.2686 27.3604 37.0586 26.9258 36.6436 26.5547C36.2285 26.1836 35.7061 25.998 35.0713 25.998H32.0684V33H35.2422ZM33.5723 31.75V29.9482H35.1689C35.4424 29.9482 35.667 30.0361 35.8477 30.2119C36.0283 30.3877 36.1211 30.5977 36.1211 30.8516C36.1211 31.1055 36.0283 31.3203 35.8477 31.4912C35.667 31.667 35.4424 31.75 35.1689 31.75H33.5723ZM34.9688 27.248C35.2129 27.248 35.4082 27.3164 35.5547 27.4531C35.6963 27.5898 35.7695 27.7754 35.7695 28C35.7695 28.2295 35.6963 28.4102 35.5547 28.5469C35.4082 28.6836 35.2129 28.752 34.9688 28.752H33.5723V27.248H34.9688ZM40.5254 31.6523V30.0996H43.3721V28.752H40.5254V27.3506H44.1729V25.998H39.0215V33H44.2754V31.6523H40.5254ZM45.6719 33H47.1758V30.5488H48.4746L49.8223 33H51.4238L49.9248 30.3486L50.0518 30.2803C50.1396 30.2412 50.2422 30.168 50.3691 30.0605C50.4912 29.9531 50.6133 29.8262 50.7305 29.6748C50.8477 29.5283 50.9502 29.3281 51.0381 29.084C51.126 28.8398 51.1699 28.5811 51.1699 28.2979C51.1699 27.6533 50.9453 27.1113 50.4912 26.667C50.0371 26.2227 49.4609 25.998 48.7676 25.998H45.667L45.6719 33ZM49.6709 28.2979C49.6709 28.5518 49.583 28.7666 49.4023 28.9424C49.2217 29.1182 48.9922 29.2012 48.7188 29.2012H47.1709V27.3506H48.7188C48.9922 27.3506 49.2217 27.4434 49.4023 27.6191C49.583 27.7998 49.6709 28.0244 49.6709 28.2979ZM15.9746 41.0498L13.5771 37.998H12.2246V45H13.7285V40.3516L15.9746 43.1982L18.2256 40.332V45H19.7246V37.998H18.3965L15.9746 41.0498ZM22.6738 41.5039C22.6738 40.8594 22.8887 40.3125 23.3281 39.8682C23.7627 39.4238 24.2949 39.1992 24.9199 39.1992C25.5449 39.1992 26.0771 39.4238 26.5117 39.8682C26.9512 40.3125 27.166 40.8594 27.166 41.5039C27.166 42.1484 26.9512 42.6953 26.5117 43.1348C26.0771 43.5791 25.5449 43.7988 24.9199 43.7988C24.2949 43.7988 23.7627 43.5791 23.3281 43.1348C22.8887 42.6953 22.6738 42.1484 22.6738 41.5039ZM21.1211 41.499C21.1211 42.5049 21.4873 43.3691 22.2197 44.082C22.9521 44.7949 23.8555 45.1514 24.9199 45.1514C25.9844 45.1514 26.8877 44.7949 27.6201 44.082C28.3525 43.3691 28.7188 42.5049 28.7188 41.499C28.7188 40.4932 28.3525 39.6338 27.6201 38.9209C26.8877 38.208 25.9844 37.8516 24.9199 37.8516C23.8555 37.8516 22.9521 38.208 22.2197 38.9209C21.4873 39.6338 21.1211 40.4932 21.1211 41.499ZM34.876 37.998V42.4512L31.4287 37.998H30.125V45H31.6289V40.5518L35.0762 45H36.375V37.998H34.876ZM38.1719 37.998V45H40.7744C41.79 45 42.6445 44.6631 43.3379 43.9844C44.0264 43.3105 44.373 42.4805 44.373 41.499C44.373 40.5225 44.0264 39.6924 43.3379 39.0137C42.6445 38.3398 41.79 37.998 40.7744 37.998H38.1719ZM40.7744 39.3506C41.3701 39.3506 41.873 39.5605 42.2734 39.9756C42.6738 40.3955 42.874 40.9033 42.874 41.5039C42.874 42.1045 42.6689 42.6123 42.2588 43.0273C41.8486 43.4473 41.3506 43.6523 40.7744 43.6523H39.6758V39.3506H40.7744ZM48.9727 42.0508H47.2686L48.123 39.751L48.9727 42.0508ZM49.4707 43.3496L50.0713 45H51.6729L48.9189 37.998H47.3223L44.5684 45H46.1699L46.7705 43.3496H49.4707ZM52.6738 37.998H51.0723L53.5723 42.5V45H55.0762V42.5L57.5762 37.998H55.9746L54.3242 41.001L52.6738 37.998Z" fill="#6CE8F5"/>
</g>
<defs>
<filter id="filter0_d" x="8.22461" y="21.8516" width="53.3516" height="27.2998" filterUnits="userSpaceOnUse" color-interpolation-filters="sRGB">
<feFlood flood-opacity="0" result="BackgroundImageFix"/>
<feColorMatrix in="SourceAlpha" type="matrix" values="0 0 0 0 0 0 0 0 0 0 0 0 0 0 0 0 0 0 127 0"/>
<feOffset/>
<feGaussianBlur stdDeviation="2"/>
<feColorMatrix type="matrix" values="0 0 0 0 0.423529 0 0 0 0 0.909804 0 0 0 0 0.960784 0 0 0 1 0"/>
<feBlend mode="normal" in2="BackgroundImageFix" result="effect1_dropShadow"/>
<feBlend mode="normal" in="SourceGraphic" in2="effect1_dropShadow" result="shape"/>
</filter>
</defs>
</svg>
