<svg width="70" height="70" viewBox="0 0 70 70" fill="none" xmlns="http://www.w3.org/2000/svg">
<circle cx="35" cy="35" r="34" fill="white" stroke="#303030" stroke-width="2"/>
<path d="M51.0014 34.4966L48.9202 33.4559L46.0351 27.6875H47.375C47.5242 27.6875 47.6673 27.6282 47.7727 27.5227C47.8782 27.4173 47.9375 27.2742 47.9375 27.125V23.75C47.9375 23.6008 47.8782 23.4577 47.7727 23.3523C47.6673 23.2468 47.5242 23.1875 47.375 23.1875H19.25C19.1008 23.1875 18.9577 23.2468 18.8523 23.3523C18.7468 23.4577 18.6875 23.6008 18.6875 23.75V41.75C18.6876 41.868 18.7248 41.983 18.7938 42.0787C18.8629 42.1744 18.9603 42.246 19.0723 42.2833L22.0844 43.2873C22.1893 44.2381 22.6366 45.1182 23.3429 45.7632C24.0492 46.4082 24.9662 46.7741 25.9225 46.7925C26.8788 46.8109 27.8092 46.4806 28.5397 45.8631C29.2703 45.2457 29.7512 44.3835 29.8925 43.4375H40.1075C40.242 44.374 40.7096 45.2306 41.4246 45.8502C42.1395 46.4698 43.0539 46.8109 44 46.8109C44.9461 46.8109 45.8605 46.4698 46.5754 45.8502C47.2904 45.2306 47.758 44.374 47.8925 43.4375H50.75C50.8992 43.4375 51.0423 43.3782 51.1477 43.2727C51.2532 43.1673 51.3125 43.0242 51.3125 42.875V35C51.3125 34.8955 51.2835 34.793 51.2285 34.7041C51.1736 34.6151 51.0949 34.5433 51.0014 34.4966ZM47.5899 33.3125H42.3125V27.6875H44.7774L47.5899 33.3125ZM38.9375 24.3125V38.9375H19.8125V24.3125H38.9375ZM19.8125 40.0625H23.2499C22.6786 40.6192 22.2903 41.3367 22.1367 42.1196L19.8125 41.3444V40.0625ZM26 45.6875C25.4437 45.6875 24.9 45.5226 24.4375 45.2135C23.9749 44.9045 23.6145 44.4652 23.4016 43.9513C23.1887 43.4374 23.133 42.8719 23.2415 42.3263C23.3501 41.7807 23.6179 41.2796 24.0113 40.8863C24.4046 40.4929 24.9057 40.2251 25.4513 40.1165C25.9969 40.008 26.5624 40.0637 27.0763 40.2766C27.5902 40.4895 28.0295 40.8499 28.3385 41.3125C28.6475 41.775 28.8125 42.3187 28.8125 42.875C28.8116 43.6206 28.515 44.3355 27.9878 44.8628C27.4605 45.39 26.7456 45.6866 26 45.6875ZM44 45.6875C43.4437 45.6875 42.9 45.5226 42.4375 45.2135C41.9749 44.9045 41.6145 44.4652 41.4016 43.9513C41.1887 43.4374 41.133 42.8719 41.2415 42.3263C41.3501 41.7807 41.6179 41.2796 42.0113 40.8863C42.4046 40.4929 42.9057 40.2251 43.4513 40.1165C43.9969 40.008 44.5624 40.0637 45.0763 40.2766C45.5902 40.4895 46.0295 40.8499 46.3385 41.3125C46.6476 41.775 46.8125 42.3187 46.8125 42.875C46.8116 43.6206 46.515 44.3355 45.9878 44.8628C45.4605 45.39 44.7456 45.6866 44 45.6875ZM50.1875 42.3125H47.8925C47.758 41.376 47.2904 40.5194 46.5754 39.8998C45.8605 39.2802 44.9461 38.9391 44 38.9391C43.0539 38.9391 42.1395 39.2802 41.4246 39.8998C40.7096 40.5194 40.242 41.376 40.1075 42.3125H29.8925C29.7697 41.4572 29.3681 40.6663 28.7501 40.0625H39.5C39.6492 40.0625 39.7923 40.0032 39.8977 39.8977C40.0032 39.7923 40.0625 39.6492 40.0625 39.5V24.3125H46.8125V26.5625H41.75C41.6008 26.5625 41.4577 26.6218 41.3523 26.7273C41.2468 26.8327 41.1875 26.9758 41.1875 27.125V33.875C41.1875 34.0242 41.2468 34.1673 41.3523 34.2727C41.4577 34.3782 41.6008 34.4375 41.75 34.4375H48.3673L50.1875 35.3476V42.3125Z" fill="#303030"/>
<path d="M22.0625 32.1875H24.3125V31.0625H22.0625V29.9375H24.3125V28.8125H21.5C21.3508 28.8125 21.2077 28.8718 21.1023 28.9773C20.9968 29.0827 20.9375 29.2258 20.9375 29.375V34.4375H22.0625V32.1875Z" fill="#303030"/>
<path d="M28.8125 31.625V29.375C28.8125 29.2258 28.7532 29.0827 28.6477 28.9773C28.5423 28.8718 28.3992 28.8125 28.25 28.8125H26C25.8508 28.8125 25.7077 28.8718 25.6023 28.9773C25.4968 29.0827 25.4375 29.2258 25.4375 29.375V34.4375H26.5625V32.9829L28.25 34.6704L29.0454 33.875L27.3579 32.1875H28.25C28.3992 32.1875 28.5423 32.1282 28.6477 32.0227C28.7532 31.9173 28.8125 31.7742 28.8125 31.625ZM27.6875 31.0625H26.5625V29.9375H27.6875V31.0625Z" fill="#303030"/>
<path d="M33.3125 29.9375V28.8125H30.5C30.3508 28.8125 30.2077 28.8718 30.1023 28.9773C29.9968 29.0827 29.9375 29.2258 29.9375 29.375V33.875C29.9375 34.0242 29.9968 34.1673 30.1023 34.2727C30.2077 34.3782 30.3508 34.4375 30.5 34.4375H33.3125V33.3125H31.0625V32.1875H33.3125V31.0625H31.0625V29.9375H33.3125Z" fill="#303030"/>
<path d="M34.4375 29.375V33.875C34.4375 34.0242 34.4968 34.1673 34.6023 34.2727C34.7077 34.3782 34.8508 34.4375 35 34.4375H37.8125V33.3125H35.5625V32.1875H37.8125V31.0625H35.5625V29.9375H37.8125V28.8125H35C34.8508 28.8125 34.7077 28.8718 34.6023 28.9773C34.4968 29.0827 34.4375 29.2258 34.4375 29.375Z" fill="#303030"/>
<path d="M26 44C26.6213 44 27.125 43.4963 27.125 42.875C27.125 42.2537 26.6213 41.75 26 41.75C25.3787 41.75 24.875 42.2537 24.875 42.875C24.875 43.4963 25.3787 44 26 44Z" fill="#303030"/>
<path d="M44 44C44.6213 44 45.125 43.4963 45.125 42.875C45.125 42.2537 44.6213 41.75 44 41.75C43.3787 41.75 42.875 42.2537 42.875 42.875C42.875 43.4963 43.3787 44 44 44Z" fill="#303030"/>
</svg>
