<svg width="70" height="70" viewBox="0 0 70 70" fill="none" xmlns="http://www.w3.org/2000/svg">
<circle cx="35" cy="35" r="35" fill="#5F3EC0"/>
<g clip-path="url(#clip0)">
<path d="M32.7632 25.1614C32.9512 25.1614 33.1285 25.0726 33.2409 24.9218C33.3536 24.771 33.3885 24.5762 33.335 24.3957C32.9076 22.9363 32.169 21.5869 31.1695 20.441C30.3642 19.5842 29.1656 19.2173 28.0189 19.4767C27.8605 19.5373 27.7356 19.6625 27.675 19.8209C27.6421 19.9099 27.6177 20.0019 27.6023 20.0957C27.5839 20.2069 27.574 20.3193 27.5723 20.4319V20.4416C27.5795 21.3924 27.9627 22.3019 28.6384 22.9712C29.7843 23.9698 31.1328 24.7081 32.5914 25.1352C32.6473 25.1518 32.7049 25.1608 32.7632 25.1614ZM29.4838 22.1269C29.2472 21.8899 29.0614 21.6067 28.9377 21.2952V21.2893C28.9115 21.2232 28.8888 21.1569 28.8693 21.0931C28.8591 21.0585 28.8518 21.0259 28.8431 20.9918C28.834 20.9577 28.8262 20.9321 28.8204 20.9024C28.8142 20.8724 28.8131 20.8605 28.809 20.8392C28.7915 20.7502 28.7793 20.6602 28.7726 20.5697C29.3607 20.6142 29.913 20.8681 30.3299 21.2853C30.9226 21.9554 31.4004 22.7191 31.7436 23.5456C30.9162 23.2012 30.1514 22.7217 29.4809 22.1269H29.4838Z" fill="white"/>
<path d="M51.0625 25.5729H41.8589C42.2569 25.301 42.6307 24.995 42.9757 24.6588C45.1086 22.5195 45.1784 19.276 43.8159 17.9135C42.4534 16.551 39.2111 16.6197 37.0695 18.7549C36.1938 19.708 35.4822 20.7998 34.964 21.9859C34.4458 20.7989 33.7337 19.7066 32.8571 18.7531C30.7178 16.6203 27.4746 16.5504 26.1118 17.9129C24.7487 19.2754 24.8192 22.5189 26.9523 24.6588C27.2976 24.995 27.6714 25.301 28.0691 25.5729H18.8655C18.5363 25.5729 18.2693 25.8399 18.2693 26.1692V32.1316C18.2693 32.4608 18.5363 32.7278 18.8655 32.7278H20.058V50.0188C20.06 51.6643 21.3937 52.9979 23.0392 53H46.8888C48.5346 52.9979 49.8683 51.6643 49.87 50.0188V32.7278H51.0625C51.3918 32.7278 51.6588 32.4608 51.6588 32.1316V26.1692C51.6588 25.8399 51.3918 25.5729 51.0625 25.5729ZM37.9132 19.5974C39.6268 17.889 42.1262 17.9088 42.9734 18.756C43.8206 19.6032 43.841 22.1014 42.1326 23.8156C41.3503 24.5388 40.4571 25.1319 39.4871 25.5729H35.9242C35.9242 25.5604 35.9242 25.5467 35.9242 25.5342C35.9242 25.3982 35.914 25.2605 35.9009 25.122C35.8959 25.0762 35.8907 25.0308 35.8855 24.9842C35.8718 24.8698 35.8549 24.7557 35.8345 24.6422C35.8281 24.6023 35.8214 24.5621 35.8144 24.5228C35.7859 24.3743 35.7547 24.2282 35.7189 24.087C35.7143 24.0666 35.7087 24.0488 35.7041 24.0273C35.6724 23.9039 35.6397 23.7889 35.6063 23.6698C35.6016 23.6535 35.5972 23.6357 35.5926 23.6194C36.0811 22.1335 36.8712 20.764 37.9132 19.5974ZM37.349 31.5353H32.5791V26.7654H37.349V31.5353ZM27.796 23.8162C26.0874 22.102 26.1075 19.6038 26.955 18.756C27.8022 17.9083 30.3004 17.8885 32.0134 19.5957C33.0982 20.8109 33.9113 22.2438 34.3984 23.7985C34.4656 24.0078 34.5174 24.2087 34.5663 24.4037C34.58 24.4596 34.5914 24.5138 34.6033 24.5688C34.6356 24.7144 34.6615 24.8532 34.681 24.9863C34.6875 25.0314 34.6959 25.078 34.7011 25.122C34.7201 25.2707 34.7302 25.4207 34.7317 25.5706H30.441C29.4715 25.1304 28.5786 24.5382 27.796 23.8162ZM19.4618 26.7654H31.3866V31.5353H19.4618V26.7654ZM21.2505 50.0188V32.7278H32.5791V51.8075H23.0392C22.0514 51.8075 21.2505 51.0066 21.2505 50.0188ZM33.7715 51.8075V32.7278H36.1565V51.8075H33.7715ZM48.6776 50.0188C48.6776 51.0066 47.8769 51.8075 46.8888 51.8075H37.349V32.7278H48.6776V50.0188ZM50.4663 31.5353H38.5415V26.7654H50.4663V31.5353Z" fill="white"/>
<path d="M37.1622 25.1632C37.2196 25.1632 37.2766 25.155 37.3316 25.1387C38.792 24.7119 40.142 23.9722 41.2876 22.9707C42.1359 22.1593 42.5016 20.9656 42.2536 19.8183C42.1936 19.6605 42.0687 19.5359 41.9109 19.4756C40.7635 19.2276 39.5699 19.5932 38.7585 20.4416C37.7573 21.5872 37.0175 22.9372 36.5904 24.3975C36.5371 24.578 36.5718 24.7731 36.6844 24.9236C36.7971 25.0744 36.9741 25.1632 37.1622 25.1632ZM39.6016 21.2847C40.0191 20.8678 40.572 20.6142 41.1601 20.5691C41.1155 21.1575 40.8616 21.7106 40.4447 22.1281C39.774 22.7249 39.008 23.2053 38.1788 23.5497C38.5235 22.7206 39.0045 21.9552 39.6016 21.2847Z" fill="white"/>
</g>
<defs>
<clipPath id="clip0">
<rect width="36" height="36" fill="white" transform="translate(17 17)"/>
</clipPath>
</defs>
</svg>
