<svg xmlns="http://www.w3.org/2000/svg" viewBox="0 0 512 512"><path d="M501.5 512h-75V322.73c0-45.14-24.42-71.31-63-71.31a69.77 69.77 0 00-70.36 69.19 67.6 67.6 0 00.37 7.79V512H218V322.73c0-45.14-24.64-71.31-63.24-71.31S85 281.73 85 328.4V512H10V268l71.3-77.41v41a117.44 117.44 0 0141.44-32.06 120 120 0 0152.33-10.9 109 109 0 0155.6 13.08 105.44 105.44 0 0140.35 39 127.09 127.09 0 0148-39A130.88 130.88 0 01380 188.62c73.49 0 121 48 121 126.47z" fill="#2a0d80"/><path d="M10 190.58L187.72 0H10z" fill="#5fd7c2"/></svg>