<svg width="70" height="70" viewBox="0 0 70 70" fill="none" xmlns="http://www.w3.org/2000/svg">
<circle cx="35" cy="35" r="34" fill="white" stroke="#303030" stroke-width="2"/>
<path d="M21.5605 32C22.5312 32 23.3242 31.7197 23.9531 31.1523C24.5752 30.5918 24.8896 29.915 24.8896 29.1289C24.8896 28.8145 24.8281 28.5205 24.7119 28.2471C24.5957 27.9736 24.4658 27.7549 24.3291 27.5908C24.1855 27.4336 24.0215 27.29 23.8369 27.1533C23.6455 27.0166 23.5156 26.9346 23.4473 26.9004C23.3789 26.8662 23.3174 26.8389 23.2764 26.8184L23.3926 26.75C23.4609 26.709 23.5566 26.627 23.666 26.5176C23.7754 26.4082 23.8916 26.2715 24.0078 26.1143C24.1172 25.9639 24.2129 25.7656 24.2881 25.5332C24.3564 25.3008 24.3975 25.0479 24.3975 24.7881C24.3975 24.1045 24.1035 23.4961 23.5225 22.9766C22.9414 22.457 22.21 22.1973 21.3213 22.1973H17.1172V32H21.5605ZM19.2227 30.25V27.7275H21.458C21.8408 27.7275 22.1553 27.8506 22.4082 28.0967C22.6611 28.3428 22.791 28.6367 22.791 28.9922C22.791 29.3477 22.6611 29.6484 22.4082 29.8877C22.1553 30.1338 21.8408 30.25 21.458 30.25H19.2227ZM21.1777 23.9473C21.5195 23.9473 21.793 24.043 21.998 24.2344C22.1963 24.4258 22.2988 24.6855 22.2988 25C22.2988 25.3213 22.1963 25.5742 21.998 25.7656C21.793 25.957 21.5195 26.0527 21.1777 26.0527H19.2227V23.9473H21.1777ZM28.957 30.1133V27.9395H32.9424V26.0527H28.957V24.0908H34.0635V22.1973H26.8516V32H34.207V30.1133H28.957ZM40.4346 29.1289C40.4346 29.498 40.291 29.7988 40.0039 30.0312C39.7168 30.2705 39.3271 30.3867 38.8213 30.3867C38.3838 30.3867 37.96 30.291 37.5635 30.0928C37.1602 29.9014 36.9004 29.7441 36.7842 29.6279C36.668 29.5117 36.5791 29.416 36.5176 29.3408L35.2529 30.5986L35.4102 30.7695C35.499 30.8789 35.6494 31.0156 35.8613 31.1729C36.0664 31.3369 36.3125 31.4941 36.5859 31.6445C36.8594 31.8018 37.2148 31.9385 37.6387 32.0479C38.0625 32.1572 38.5068 32.2119 38.958 32.2119C40.1201 32.2119 41.0293 31.9248 41.6855 31.3506C42.3418 30.7764 42.6699 30.0381 42.6699 29.1289C42.6699 28.4863 42.5059 27.96 42.1709 27.5361C41.8428 27.1191 41.4395 26.8184 40.9609 26.6338C40.4824 26.4561 40.0107 26.292 39.5391 26.1553C39.0674 26.0186 38.6641 25.8545 38.3359 25.6562C38.0078 25.458 37.8369 25.1914 37.8369 24.8633C37.8369 24.5762 37.96 24.3232 38.2061 24.1182C38.4521 23.9131 38.7734 23.8105 39.1699 23.8105C39.5049 23.8105 39.8262 23.8926 40.1406 24.043C40.4551 24.2002 40.667 24.3232 40.7627 24.4189C40.8584 24.5146 40.9336 24.5898 40.9883 24.6582L42.2461 23.3252L42.123 23.1885C42.0479 23.0928 41.918 22.9766 41.7402 22.8467C41.5625 22.7168 41.3506 22.5869 41.1113 22.4639C40.8721 22.3408 40.5645 22.2314 40.1885 22.1357C39.8193 22.04 39.4297 21.999 39.0264 21.999C38.0146 21.999 37.1875 22.2793 36.5518 22.8398C35.916 23.4004 35.5947 24.0771 35.5947 24.8701C35.5947 25.5127 35.7656 26.0391 36.0938 26.4629C36.4287 26.8799 36.832 27.1807 37.3037 27.3652C37.7754 27.543 38.2471 27.7002 38.7256 27.8369C39.2041 27.9736 39.6074 28.1377 39.9355 28.3428C40.2637 28.541 40.4346 28.8008 40.4346 29.1289ZM43.292 22.1973V24.0908H46.0947V32H48.1934V24.0908H50.9893V22.1973H43.292ZM13.7949 46.1289C13.7949 46.498 13.6514 46.7988 13.3643 47.0312C13.0771 47.2705 12.6875 47.3867 12.1816 47.3867C11.7441 47.3867 11.3203 47.291 10.9238 47.0928C10.5205 46.9014 10.2607 46.7441 10.1445 46.6279C10.0283 46.5117 9.93945 46.416 9.87793 46.3408L8.61328 47.5986L8.77051 47.7695C8.85938 47.8789 9.00977 48.0156 9.22168 48.1729C9.42676 48.3369 9.67285 48.4941 9.94629 48.6445C10.2197 48.8018 10.5752 48.9385 10.999 49.0479C11.4229 49.1572 11.8672 49.2119 12.3184 49.2119C13.4805 49.2119 14.3896 48.9248 15.0459 48.3506C15.7021 47.7764 16.0303 47.0381 16.0303 46.1289C16.0303 45.4863 15.8662 44.96 15.5312 44.5361C15.2031 44.1191 14.7998 43.8184 14.3213 43.6338C13.8428 43.4561 13.3711 43.292 12.8994 43.1553C12.4277 43.0186 12.0244 42.8545 11.6963 42.6562C11.3682 42.458 11.1973 42.1914 11.1973 41.8633C11.1973 41.5762 11.3203 41.3232 11.5664 41.1182C11.8125 40.9131 12.1338 40.8105 12.5303 40.8105C12.8652 40.8105 13.1865 40.8926 13.501 41.043C13.8154 41.2002 14.0273 41.3232 14.123 41.4189C14.2188 41.5146 14.2939 41.5898 14.3486 41.6582L15.6064 40.3252L15.4834 40.1885C15.4082 40.0928 15.2783 39.9766 15.1006 39.8467C14.9229 39.7168 14.7109 39.5869 14.4717 39.4639C14.2324 39.3408 13.9248 39.2314 13.5488 39.1357C13.1797 39.04 12.79 38.999 12.3867 38.999C11.375 38.999 10.5479 39.2793 9.91211 39.8398C9.27637 40.4004 8.95508 41.0771 8.95508 41.8701C8.95508 42.5127 9.12598 43.0391 9.4541 43.4629C9.78906 43.8799 10.1924 44.1807 10.6641 44.3652C11.1357 44.543 11.6074 44.7002 12.0859 44.8369C12.5645 44.9736 12.9678 45.1377 13.2959 45.3428C13.624 45.541 13.7949 45.8008 13.7949 46.1289ZM20.0225 47.1133V44.9395H24.0078V43.0527H20.0225V41.0908H25.1289V39.1973H17.917V49H25.2725V47.1133H20.0225ZM33.8789 49V47.1133H29.333V39.1973H27.2275V49H33.8789ZM42.1367 49V47.1133H37.5908V39.1973H35.4854V49H42.1367ZM45.8486 47.1133V44.9395H49.834V43.0527H45.8486V41.0908H50.9551V39.1973H43.7432V49H51.0986V47.1133H45.8486ZM53.0537 49H55.1592V45.5684H56.9775L58.8643 49H61.1064L59.0078 45.2881L59.1855 45.1924C59.3086 45.1377 59.4521 45.0352 59.6299 44.8848C59.8008 44.7344 59.9717 44.5566 60.1357 44.3447C60.2998 44.1396 60.4434 43.8594 60.5664 43.5176C60.6895 43.1758 60.751 42.8135 60.751 42.417C60.751 41.5146 60.4365 40.7559 59.8008 40.1338C59.165 39.5117 58.3584 39.1973 57.3877 39.1973H53.0469L53.0537 49ZM58.6523 42.417C58.6523 42.7725 58.5293 43.0732 58.2764 43.3193C58.0234 43.5654 57.7021 43.6816 57.3193 43.6816H55.1523V41.0908H57.3193C57.7021 41.0908 58.0234 41.2207 58.2764 41.4668C58.5293 41.7197 58.6523 42.0342 58.6523 42.417Z" fill="#303030"/>
</svg>
