<svg width="70" height="70" viewBox="0 0 70 70" fill="none" xmlns="http://www.w3.org/2000/svg">
<circle cx="35" cy="35" r="35" fill="#D7364F"/>
<path d="M19.1973 35.6104H12.7197V37.7725H19.1973V35.6104ZM25.666 40.0225C25.1035 40.0225 24.6113 39.8467 24.207 39.4775C23.8027 39.1084 23.6006 38.6953 23.6006 38.2207C23.6006 37.7549 23.8027 37.3418 24.207 36.9727C24.6113 36.6035 25.1035 36.4189 25.666 36.4189C26.2285 36.4189 26.7207 36.6035 27.125 36.9727C27.5293 37.3418 27.7314 37.7549 27.7314 38.2207C27.7314 38.6953 27.5293 39.1084 27.125 39.4775C26.7207 39.8467 26.2285 40.0225 25.666 40.0225ZM25.6748 34.2568C25.1914 34.2568 24.7959 34.125 24.4971 33.8438C24.1982 33.5713 24.0488 33.2285 24.0488 32.8242C24.0488 32.4199 24.1982 32.0771 24.4971 31.8047C24.7959 31.5234 25.1914 31.3916 25.6748 31.3916C26.1494 31.3916 26.5449 31.5234 26.8438 31.8047C27.1426 32.0771 27.292 32.4199 27.292 32.8242C27.292 33.2285 27.1426 33.5713 26.8438 33.8438C26.5449 34.125 26.1494 34.2568 25.6748 34.2568ZM25.666 42.2725C26.9844 42.2725 28.083 41.877 28.9531 41.0771C29.8232 40.2773 30.2627 39.3281 30.2627 38.2207C30.2627 37.834 30.1924 37.4648 30.0518 37.1133C29.9111 36.7617 29.7617 36.4805 29.5947 36.252C29.4365 36.0322 29.2432 35.8301 29.0234 35.6455C28.8037 35.4521 28.6543 35.3379 28.5664 35.2852C28.4785 35.2324 28.417 35.1885 28.3643 35.1709L28.7246 34.916C28.9707 34.7402 29.208 34.4502 29.4453 34.0283C29.6914 33.6064 29.8057 33.1494 29.8057 32.6484C29.8057 31.708 29.4102 30.8906 28.6191 30.1875C27.8281 29.4844 26.8438 29.1328 25.666 29.1328C24.4883 29.1328 23.5039 29.4844 22.7129 30.1875C21.9219 30.8906 21.5264 31.708 21.5264 32.6484C21.5264 32.9648 21.5791 33.2725 21.6758 33.5625C21.7812 33.8525 21.8955 34.0898 22.0186 34.2656C22.1416 34.4414 22.291 34.6084 22.458 34.7666C22.6338 34.9248 22.748 35.0215 22.8096 35.0654C22.8799 35.1094 22.9238 35.1445 22.959 35.1709L22.7656 35.2764C22.6338 35.3555 22.4756 35.4785 22.291 35.6455C22.1064 35.8213 21.9219 36.0146 21.7373 36.2432C21.5615 36.4717 21.4033 36.7617 21.2715 37.1133C21.1396 37.4648 21.0693 37.834 21.0693 38.2207C21.0693 39.3281 21.5088 40.2773 22.3789 41.0771C23.249 41.877 24.3477 42.2725 25.666 42.2725ZM34.6748 35.6982C34.6748 34.3799 34.9385 33.3604 35.4746 32.6396C36.0107 31.9189 36.6436 31.5586 37.3818 31.5586C38.1113 31.5586 38.7441 31.9189 39.2803 32.6396C39.8076 33.3604 40.0801 34.3799 40.0801 35.6982C40.0801 37.0166 39.8076 38.0361 39.2803 38.7568C38.7441 39.4775 38.1113 39.8379 37.3818 39.8379C36.6436 39.8379 36.0107 39.4775 35.4746 38.7568C34.9385 38.0361 34.6748 37.0166 34.6748 35.6982ZM42.7783 35.6982C42.7783 33.7295 42.251 32.1475 41.2051 30.9434C40.1504 29.7393 38.876 29.1328 37.3818 29.1328C35.8789 29.1328 34.6045 29.7393 33.5498 30.9434C32.4951 32.1475 31.9678 33.7295 31.9678 35.6982C31.9678 37.667 32.4951 39.2578 33.5498 40.4619C34.6045 41.6748 35.8789 42.2725 37.3818 42.2725C38.876 42.2725 40.1504 41.6748 41.2051 40.4619C42.251 39.2578 42.7783 37.667 42.7783 35.6982ZM45.5732 32.1035C45.5732 31.7432 45.6875 31.4443 45.9336 31.1982C46.1709 30.9609 46.4697 30.8379 46.8301 30.8379C47.1904 30.8379 47.4893 30.9609 47.7354 31.1982C47.9727 31.4443 48.0957 31.7432 48.0957 32.1035C48.0957 32.4639 47.9727 32.7627 47.7354 33C47.4893 33.2461 47.1904 33.3604 46.8301 33.3604C46.4697 33.3604 46.1709 33.2461 45.9336 33C45.6875 32.7627 45.5732 32.4639 45.5732 32.1035ZM45.4854 42H47.7354L55.6543 29.3965H53.4043L45.4854 42ZM49.8975 32.1035C49.8975 31.3213 49.5898 30.627 48.9922 30.0293C48.3945 29.4316 47.6738 29.1328 46.8301 29.1328C45.9863 29.1328 45.2656 29.4316 44.668 30.0293C44.0703 30.627 43.7715 31.3213 43.7715 32.1035C43.7715 32.8857 44.0703 33.5801 44.668 34.1777C45.2656 34.7754 45.9863 35.0742 46.8301 35.0742C47.6738 35.0742 48.3945 34.7754 48.9922 34.1777C49.5898 33.5801 49.8975 32.8857 49.8975 32.1035ZM55.5664 39.3018C55.5664 39.6621 55.4434 39.9609 55.2061 40.1982C54.96 40.4443 54.6611 40.5586 54.3008 40.5586C53.9404 40.5586 53.6416 40.4443 53.4043 40.1982C53.1582 39.9609 53.0439 39.6621 53.0439 39.3018C53.0439 38.9414 53.1582 38.6426 53.4043 38.3965C53.6416 38.1592 53.9404 38.0361 54.3008 38.0361C54.6611 38.0361 54.96 38.1592 55.2061 38.3965C55.4434 38.6426 55.5664 38.9414 55.5664 39.3018ZM51.2422 39.3018C51.2422 40.084 51.541 40.7783 52.1387 41.376C52.7363 41.9736 53.457 42.2725 54.3008 42.2725C55.1445 42.2725 55.8652 41.9736 56.4629 41.376C57.0605 40.7783 57.3682 40.084 57.3682 39.3018C57.3682 38.5283 57.0605 37.834 56.4629 37.2363C55.8652 36.6387 55.1445 36.3311 54.3008 36.3311C53.457 36.3311 52.7363 36.6387 52.1387 37.2363C51.541 37.834 51.2422 38.5283 51.2422 39.3018Z" fill="white"/>
</svg>
