<svg width="70" height="70" viewBox="0 0 70 70" fill="none" xmlns="http://www.w3.org/2000/svg">
<circle cx="35" cy="35" r="34" fill="white" stroke="#303030" stroke-width="2"/>
<path d="M21.9355 37.1289C21.9355 37.498 21.792 37.7988 21.5049 38.0312C21.2178 38.2705 20.8281 38.3867 20.3223 38.3867C19.8848 38.3867 19.4609 38.291 19.0645 38.0928C18.6611 37.9014 18.4014 37.7441 18.2852 37.6279C18.1689 37.5117 18.0801 37.416 18.0186 37.3408L16.7539 38.5986L16.9111 38.7695C17 38.8789 17.1504 39.0156 17.3623 39.1729C17.5674 39.3369 17.8135 39.4941 18.0869 39.6445C18.3604 39.8018 18.7158 39.9385 19.1396 40.0479C19.5635 40.1572 20.0078 40.2119 20.459 40.2119C21.6211 40.2119 22.5303 39.9248 23.1865 39.3506C23.8428 38.7764 24.1709 38.0381 24.1709 37.1289C24.1709 36.4863 24.0068 35.96 23.6719 35.5361C23.3438 35.1191 22.9404 34.8184 22.4619 34.6338C21.9834 34.4561 21.5117 34.292 21.04 34.1553C20.5684 34.0186 20.165 33.8545 19.8369 33.6562C19.5088 33.458 19.3379 33.1914 19.3379 32.8633C19.3379 32.5762 19.4609 32.3232 19.707 32.1182C19.9531 31.9131 20.2744 31.8105 20.6709 31.8105C21.0059 31.8105 21.3271 31.8926 21.6416 32.043C21.9561 32.2002 22.168 32.3232 22.2637 32.4189C22.3594 32.5146 22.4346 32.5898 22.4893 32.6582L23.7471 31.3252L23.624 31.1885C23.5488 31.0928 23.4189 30.9766 23.2412 30.8467C23.0635 30.7168 22.8516 30.5869 22.6123 30.4639C22.373 30.3408 22.0654 30.2314 21.6895 30.1357C21.3203 30.04 20.9307 29.999 20.5273 29.999C19.5156 29.999 18.6885 30.2793 18.0527 30.8398C17.417 31.4004 17.0957 32.0771 17.0957 32.8701C17.0957 33.5127 17.2666 34.0391 17.5947 34.4629C17.9297 34.8799 18.333 35.1807 18.8047 35.3652C19.2764 35.543 19.748 35.7002 20.2266 35.8369C20.7051 35.9736 21.1084 36.1377 21.4365 36.3428C21.7646 36.541 21.9355 36.8008 21.9355 37.1289ZM31.1025 35.8711H28.7168L29.9131 32.6514L31.1025 35.8711ZM31.7998 37.6895L32.6406 40H34.8828L31.0273 30.1973H28.792L24.9365 40H27.1787L28.0195 37.6895H31.7998ZM42.9355 40V38.1133H38.3896V30.1973H36.2842V40H42.9355ZM46.6475 38.1133V35.9395H50.6328V34.0527H46.6475V32.0908H51.7539V30.1973H44.542V40H51.8975V38.1133H46.6475Z" fill="#303030"/>
</svg>
