<svg width="70" height="70" viewBox="0 0 70 70" fill="none" xmlns="http://www.w3.org/2000/svg">
<circle cx="35" cy="35" r="34" fill="white" stroke="#303030" stroke-width="2"/>
<path d="M11.2344 30.5977H9.31836L12.3184 36.2402L12.0781 36.6621C11.7559 37.2246 11.293 37.5 10.6895 37.5C10.4082 37.5 10.168 37.4648 9.96875 37.3828V38.9414L10.0918 38.9766C10.1738 39.0117 10.291 39.041 10.4492 39.0703C10.6133 39.1055 10.7715 39.1172 10.9297 39.1172C11.6211 39.1172 12.1953 38.9297 12.6582 38.5547C13.127 38.1797 13.5312 37.6289 13.8711 36.9023L16.8125 30.5977H14.8906L13.209 34.5586L11.2344 30.5977ZM17.8906 39H24.1309V40.7402H25.9297V37.3828H24.9102V30.5977H23.1113V37.3828H19.6953V30.5977H17.8906V39ZM29.1172 37.3828V35.5195H32.5332V33.9023H29.1172V32.2207H33.4941V30.5977H27.3125V39H33.6172V37.3828H29.1172ZM42.4941 30.5977H40.6953V33.9609H37.0977V30.5977H35.293V39H37.0977V35.5781H40.6953V39H42.4941V30.5977ZM46.4609 30.5977H44.6562V39H46.4609V36.5977L47.5391 35.4023L50 39H52.0977L48.7402 34.0781L51.8574 30.5977H49.7598L46.4609 34.2598V30.5977ZM57.5 35.4609H55.4551L56.4805 32.7012L57.5 35.4609ZM58.0977 37.0195L58.8184 39H60.7402L57.4355 30.5977H55.5195L52.2148 39H54.1367L54.8574 37.0195H58.0977Z" fill="#303030"/>
</svg>
