<svg width="90" height="92" viewBox="0 0 90 92" fill="none" xmlns="http://www.w3.org/2000/svg">
<path fill-rule="evenodd" clip-rule="evenodd" d="M64.6509 6.6068L84.9345 0.0360586C85.4971 -0.146184 86.0255 0.393666 85.8312 0.952202L79.6795 18.6383C86.0255 26.3842 89.8335 36.2896 89.8335 47.0844C89.8335 71.8912 69.7235 92.0011 44.9167 92.0011C20.1099 92.0011 0 71.8912 0 47.0844C0 22.2775 20.1099 2.16764 44.9167 2.16764C51.9465 2.16764 58.599 3.78254 64.5237 6.66161C64.5632 6.63991 64.6056 6.62146 64.6509 6.6068Z" fill="white"/>
<g clip-path="url(#clip0)">
<circle cx="44.9161" cy="46.4864" r="35.7911" fill="#2A0D80"/>
<path fill-rule="evenodd" clip-rule="evenodd" d="M44.6117 10.6963L10.2539 55.4392C9.51698 52.5777 9.125 49.5777 9.125 46.4861C9.125 26.8208 24.985 10.8598 44.6117 10.6963Z" fill="#00C8AF"/>
<circle cx="44.9151" cy="46.4864" r="33.6436" fill="white"/>
<ellipse cx="44.9414" cy="46.413" rx="31.7109" ry="31.7109" fill="#2A0D80"/>
<path d="M18.5742 57.9868H21.9624V48.8486C21.9624 48.8486 21.9624 46.0091 24.8973 45.7228C28.0231 45.7228 27.8083 48.8486 27.8083 48.8486V57.9868H31.2443V48.8486C31.2443 48.8486 31.2443 46.033 34.1791 45.7228C36.8754 45.7228 37.1379 48.3236 37.1379 48.3236V57.9868H40.4545V47.8941C40.4545 47.8941 40.2631 43.9571 36.8754 43.0743C32.2703 41.8742 30.2898 45.2452 30.2898 45.2452C30.2898 45.2452 29.0252 43.0571 26.1381 42.7641C23.5611 42.5026 21.7954 44.768 21.7954 44.768V42.5967H18.5742V57.9868Z" fill="white"/>
<path fill-rule="evenodd" clip-rule="evenodd" d="M41.3817 14.9043L13.5759 51.1148C13.3484 49.5821 13.2305 48.0136 13.2305 46.4176C13.2305 30.1076 25.5439 16.6735 41.3817 14.9043Z" fill="#00C8AF"/>
<path d="M65.555 53.1919V57.9641H68.7046V53.1919H71.3054V50.3525H68.7046V34.9385L54.7461 53.1919H65.555Z" fill="#00C8AF"/>
<path d="M65.531 43.7656L60.5918 50.3512H65.531V43.7656Z" fill="#2A0D80"/>
<path d="M56.6312 54.8614V57.9872L42.625 58.011L51.2149 47.56C51.2149 47.56 53.9111 44.4582 53.243 41.6665C52.7418 39.572 50.5229 39.0418 50.5229 39.0418C50.5229 39.0418 48.7095 38.5168 47.1585 39.9246C45.9493 41.0222 45.9894 42.6447 45.9894 42.6447H42.6966C42.6966 42.6447 42.5057 40.1632 44.4146 38.0873C46.3234 36.0115 49.0435 35.7967 49.0435 35.7967C49.0435 35.7967 54.5315 35.3195 56.3449 40.4973C58.0152 44.2673 53.9111 49.0156 53.9111 49.0156L49.0435 54.8614H56.6312Z" fill="#00C8AF"/>
</g>
<defs>
<clipPath id="clip0">
<rect width="71.5822" height="71.5822" fill="white" transform="translate(9.125 10.6953)"/>
</clipPath>
</defs>
</svg>
