<svg width="685" height="285" viewBox="0 0 685 285" fill="none" xmlns="http://www.w3.org/2000/svg">
<path fill-rule="evenodd" clip-rule="evenodd" d="M116.042 10.8727L133.178 189H142L133.598 9.15712C133.377 4.43765 129.355 0.7902 124.614 1.00938C124.468 1.01641 124.324 1.02625 124.179 1.0403C119.207 1.52292 115.565 5.92207 116.042 10.8727Z" fill="#F9F9F9"/>
<path d="M116.044 10.4463L133.172 189H143L134.598 8.65683C134.365 3.64794 130.108 -0.223164 125.09 0.0100039C124.937 0.017027 124.783 0.0275596 124.63 0.0430105C119.383 0.553591 115.542 5.20851 116.044 10.4463ZM134.132 187.947L117.095 10.3459C116.648 5.68607 120.065 1.54524 124.733 1.09155C124.868 1.0782 125.004 1.06838 125.139 1.06206C129.575 0.85628 133.338 4.27794 133.544 8.70531L141.894 187.947H134.132Z" fill="#263E4B"/>
<path d="M129.215 194.672C129.104 194.941 128.797 195.071 128.528 194.96C128.258 194.85 128.13 194.542 128.24 194.271C135.188 177.224 139.233 165.313 140.371 158.566C140.419 158.279 140.691 158.085 140.978 158.134C141.265 158.182 141.458 158.455 141.409 158.743C140.254 165.589 136.191 177.555 129.215 194.672ZM139.985 135.025C140.077 135.302 139.929 135.601 139.653 135.694C139.377 135.787 139.079 135.638 138.986 135.361C135.894 126.108 129.646 118.213 120.227 111.671C119.988 111.505 119.928 111.176 120.093 110.936C120.259 110.696 120.587 110.636 120.826 110.802C130.425 117.469 136.817 125.545 139.985 135.025ZM132.429 172.496C132.309 172.762 131.997 172.88 131.733 172.759C131.467 172.639 131.35 172.326 131.47 172.06C132.41 169.98 133.039 168.286 133.357 166.984C137.728 149.1 135.018 136.031 127.279 126.742C127.093 126.518 127.122 126.185 127.345 125.998C127.569 125.81 127.901 125.84 128.088 126.064C136.047 135.618 138.828 149.033 134.379 167.236C134.044 168.611 133.393 170.361 132.429 172.496ZM120.015 2.12271C119.979 1.83312 120.182 1.5682 120.471 1.53156C120.76 1.49492 121.024 1.69925 121.06 1.98884C125.624 37.8868 142.75 56.8708 172.513 59.0995C172.803 59.1213 173.02 59.375 172.998 59.666C172.977 59.957 172.724 60.1754 172.434 60.1536C142.136 57.8848 124.639 38.4892 120.015 2.12271ZM127.726 1.57874C127.699 1.28844 127.911 1.03057 128.201 1.00238C128.491 0.974902 128.748 1.18841 128.775 1.47871C131.766 33.0885 146.007 49.5684 171.591 51.4574C171.881 51.4785 172.099 51.7322 172.078 52.0232C172.057 52.3142 171.804 52.5326 171.514 52.5115C145.377 50.5816 130.763 33.669 127.726 1.57874Z" fill="#263E4B"/>
<path fill-rule="evenodd" clip-rule="evenodd" d="M31 42.6114L59.2947 130L199 111.249V9L60.986 36.612L59.2947 48.6258L50.2433 38.7614L31 42.6114Z" fill="#F9F9F9"/>
<path d="M51.0388 37.9182C50.9144 37.7819 50.7274 37.7204 50.5468 37.7564L31.4243 41.6046C31.115 41.6668 30.9288 41.9861 31.0258 42.2877L59.1429 129.633C59.2216 129.877 59.4627 130.029 59.715 129.995L198.543 111.253C198.805 111.217 199 110.993 199 110.728V8.52975C199 8.19559 198.696 7.9448 198.369 8.01051L61.2221 35.6088C61.0021 35.6526 60.8341 35.8313 60.8032 36.0545L59.2785 46.9505L51.0388 37.9182ZM50.4624 38.8543L59.256 48.4941C59.5576 48.824 60.1045 48.653 60.167 48.2101L61.795 36.5738L197.946 9.17616V110.264L60.011 128.886L32.2116 42.5272L50.4624 38.8543Z" fill="#263E4B"/>
<path fill-rule="evenodd" clip-rule="evenodd" d="M1 285H47.7279C66.1338 236.733 83.0324 206.598 98.4245 194.594C99.3337 193.886 93.9119 186.024 82.159 171.01C89.7774 177.08 95.0474 180.974 97.9691 182.692C99.345 183.501 99.4623 171.938 98.3205 148L110.901 186.372C115.691 183.949 119.344 182.25 121.86 181.277C157.228 167.588 186.272 202.163 208.992 285H684" fill="#F9F9F9"/>
<path d="M97.365 183.407C97.8667 183.7 98.3198 183.428 98.5668 182.901C98.7272 182.56 98.8504 182.041 98.951 181.326C99.1417 179.964 99.2508 177.844 99.2803 174.954C99.3324 169.841 99.1354 162.304 98.6885 152.34L110.08 186.77C110.181 187.074 110.53 187.219 110.818 187.075C115.6 184.677 119.244 182.998 121.744 182.039C156.745 168.616 185.621 202.679 208.298 284.614C208.362 284.842 208.57 285 208.807 285H684.472C684.761 285 685 284.764 685 284.474C685 284.183 684.761 283.947 684.472 283.947H209.209C186.4 201.76 157.143 167.335 121.366 181.056C118.923 181.993 115.434 183.594 110.89 185.861L98.4838 148.362C98.2917 147.78 97.4262 147.94 97.4558 148.552C98.0271 160.42 98.2832 169.218 98.2248 174.943C98.1953 177.792 98.0884 179.874 97.9054 181.18C97.8301 181.716 97.7429 182.112 97.6528 182.354C94.708 180.596 89.5264 176.79 82.1261 170.948C81.6357 170.56 80.9968 171.196 81.3845 171.686C87.2627 179.128 91.5571 184.796 94.264 188.685C95.6101 190.62 96.5614 192.111 97.1145 193.152C97.3805 193.651 97.5493 194.04 97.6218 194.305C97.6359 194.357 97.6451 194.4 97.6507 194.435C82.2042 206.453 65.3265 236.279 46.9579 283.947H0.527735C0.236425 283.947 0 284.183 0 284.474C0 284.764 0.236425 285 0.527735 285H47.3202C47.5391 285 47.7347 284.866 47.8128 284.662C66.211 236.853 83.0964 207.014 98.4099 195.179C99.2754 194.511 98.2157 192.517 95.1309 188.085C92.8427 184.797 89.4356 180.258 84.909 174.464C90.7275 178.978 94.8755 181.957 97.365 183.407Z" fill="#263E4B"/>
<path d="M103.047 80.4365L104.085 86.9478L98.0565 87.8968L98.8348 92.7806L91.0853 94L90.307 89.1169L69.0378 92.4648L68 85.9535L86.3064 64.0129L94.0566 62.7928L97.0194 81.3854L103.047 80.4365ZM76.3527 84.6383L89.2693 82.6048L87.5354 71.724L76.3527 84.6383ZM124.607 89.1623C112.638 91.0469 106.081 86.458 104.49 76.4765C102.906 66.5376 107.723 60.2023 119.692 58.3184C131.618 56.4414 138.219 61.0234 139.796 70.919C141.379 80.8579 136.533 87.2853 124.607 89.1623ZM123.577 82.6936C130.379 81.623 132.94 77.751 132.045 72.1391C131.158 66.5697 127.525 63.7166 120.723 64.7871C113.92 65.8583 111.346 69.6444 112.24 75.2564C113.141 80.911 116.774 83.7648 123.577 82.6936ZM177.963 68.6437L179 75.1551L172.972 76.104L173.751 80.9871L166.001 82.2072L165.223 77.3241L143.954 80.672L142.916 74.1607L161.222 52.2201L168.972 51L171.935 69.592L177.963 68.6437ZM151.269 72.8455L164.185 70.8121L162.451 59.9312L151.269 72.8455Z" fill="#5F3EC0"/>
<path d="M103.313 79.3032L104.525 86.8161L98.4519 87.7608L99.236 92.6226L90.3789 94L89.5948 89.1382L68.1666 92.4717L67 85.2412L85.7244 63.067L94.2549 61.7397L97.2399 80.2479L103.313 79.3032ZM96.3566 81.4416L93.3717 62.9334L86.2868 64.0359L68.1249 85.5438L69.05 91.2779L90.4781 87.9444L91.2615 92.8063L98.0198 91.7552L97.2364 86.8933L103.309 85.9486L102.429 80.4976L96.3566 81.4416ZM74.6303 84.821L87.5887 70.0338L89.5983 82.4934L74.6303 84.821ZM88.3828 81.6259L86.8981 72.4212L77.3248 83.3456L88.3828 81.6259ZM124.675 89.1027C112.553 90.9885 105.481 86.4634 103.801 76.04C102.127 65.6645 107.429 59.2534 119.558 57.3669C131.64 55.4872 138.752 60.0096 140.419 70.3441C142.093 80.7265 136.753 87.2237 124.675 89.1027ZM124.51 88.0717C136.03 86.2798 140.948 80.2959 139.369 70.5075C137.799 60.7679 131.25 56.6044 119.723 58.3978C108.152 60.1974 103.273 66.0964 104.85 75.8764C106.435 85.7058 112.943 89.8707 124.51 88.0717ZM123.637 82.6631C116.712 83.74 112.595 80.9442 111.609 74.8253C110.629 68.7545 113.667 64.884 120.596 63.8064C127.508 62.731 131.636 65.5142 132.611 71.5586C133.594 77.6503 130.547 81.5884 123.637 82.6631ZM123.471 81.6322C129.811 80.6465 132.45 77.2343 131.561 71.7221C130.681 66.2599 127.107 63.8502 120.762 64.8373C114.4 65.8266 111.773 69.1739 112.658 74.6626C113.551 80.2006 117.115 82.6214 123.471 81.6322ZM178.788 67.5636L180 75.0765L173.927 76.0211L174.711 80.883L165.854 82.2603L165.07 77.3985L143.642 80.732L142.475 73.5016L161.2 51.3266L169.73 50L172.715 68.5082L178.788 67.5636ZM171.832 69.702L168.847 51.1937L161.762 52.2956L143.6 73.8042L144.525 79.5376L165.953 76.2048L166.737 81.0667L173.495 80.0155L172.711 75.1537L178.784 74.209L177.905 68.7573L171.832 69.702ZM150.106 73.0814L163.064 58.2935L165.074 70.7531L150.106 73.0814ZM163.858 69.8863L162.374 60.6816L152.8 71.6059L163.858 69.8863Z" fill="#263E4B"/>
</svg>
